<svg width="880" height="500" viewBox="0 0 880 500" xmlns="http://www.w3.org/2000/svg">
  <rect width="880" height="500" fill="#0a0a0a" rx="12"/>

  <text x="60" y="52" font-family="'Wanted Sans Variable','Wanted Sans',-apple-system,sans-serif" font-size="22" font-weight="700" fill="#e8e8e8">베이스 이미지 비교</text>
  <text x="60" y="76" font-family="'Wanted Sans Variable','Wanted Sans',-apple-system,sans-serif" font-size="16" font-weight="600" fill="#888">크기 · 보안 · 호환성 트레이드오프</text>

  <!-- Header -->
  <rect x="60" y="104" width="136" height="36" fill="#1e2433" rx="4"/>
  <text x="128" y="127" font-family="'Wanted Sans Variable','Wanted Sans',-apple-system,sans-serif" font-size="13" font-weight="700" fill="#888" text-anchor="middle">이미지</text>
  <rect x="204" y="104" width="110" height="36" fill="#1e2433" rx="4"/>
  <text x="259" y="127" font-family="'Wanted Sans Variable','Wanted Sans',-apple-system,sans-serif" font-size="13" font-weight="700" fill="#888" text-anchor="middle">크기</text>
  <rect x="322" y="104" width="130" height="36" fill="#1e2433" rx="4"/>
  <text x="387" y="127" font-family="'Wanted Sans Variable','Wanted Sans',-apple-system,sans-serif" font-size="13" font-weight="700" fill="#888" text-anchor="middle">보안 취약점</text>
  <rect x="460" y="104" width="160" height="36" fill="#1e2433" rx="4"/>
  <text x="540" y="127" font-family="'Wanted Sans Variable','Wanted Sans',-apple-system,sans-serif" font-size="13" font-weight="700" fill="#888" text-anchor="middle">셸 / 디버깅</text>
  <rect x="628" y="104" width="192" height="36" fill="#1e2433" rx="4"/>
  <text x="724" y="127" font-family="'Wanted Sans Variable','Wanted Sans',-apple-system,sans-serif" font-size="13" font-weight="700" fill="#888" text-anchor="middle">적합한 용도</text>

  <!-- debian -->
  <rect x="60" y="148" width="136" height="44" fill="#0d1117" rx="4" stroke="#1e2433" stroke-width="1"/>
  <text x="128" y="175" font-family="'JetBrains Mono','Menlo','Consolas',monospace" font-size="13" fill="#e8e8e8" text-anchor="middle">debian</text>
  <rect x="204" y="148" width="110" height="44" fill="#0d1117" rx="4" stroke="#1e2433" stroke-width="1"/>
  <text x="259" y="175" font-family="'Wanted Sans Variable','Wanted Sans',-apple-system,sans-serif" font-size="13" fill="#e05555" text-anchor="middle">~120MB</text>
  <rect x="322" y="148" width="130" height="44" fill="#0d1117" rx="4" stroke="#1e2433" stroke-width="1"/>
  <text x="387" y="175" font-family="'Wanted Sans Variable','Wanted Sans',-apple-system,sans-serif" font-size="13" fill="#e05555" text-anchor="middle">많음</text>
  <rect x="460" y="148" width="160" height="44" fill="#0d1117" rx="4" stroke="#1e2433" stroke-width="1"/>
  <text x="540" y="175" font-family="'Wanted Sans Variable','Wanted Sans',-apple-system,sans-serif" font-size="13" fill="#55c555" text-anchor="middle">완전한 셸 ✓</text>
  <rect x="628" y="148" width="192" height="44" fill="#0d1117" rx="4" stroke="#1e2433" stroke-width="1"/>
  <text x="724" y="175" font-family="'Wanted Sans Variable','Wanted Sans',-apple-system,sans-serif" font-size="12" fill="#888" text-anchor="middle">개발 / 디버깅</text>

  <!-- debian-slim -->
  <rect x="60" y="200" width="136" height="44" fill="#0d1117" rx="4" stroke="#1e2433" stroke-width="1"/>
  <text x="128" y="227" font-family="'JetBrains Mono','Menlo','Consolas',monospace" font-size="13" fill="#e8e8e8" text-anchor="middle">debian-slim</text>
  <rect x="204" y="200" width="110" height="44" fill="#0d1117" rx="4" stroke="#1e2433" stroke-width="1"/>
  <text x="259" y="227" font-family="'Wanted Sans Variable','Wanted Sans',-apple-system,sans-serif" font-size="13" fill="#7ec8e3" text-anchor="middle">~30MB</text>
  <rect x="322" y="200" width="130" height="44" fill="#0d1117" rx="4" stroke="#1e2433" stroke-width="1"/>
  <text x="387" y="227" font-family="'Wanted Sans Variable','Wanted Sans',-apple-system,sans-serif" font-size="13" fill="#7ec8e3" text-anchor="middle">적음</text>
  <rect x="460" y="200" width="160" height="44" fill="#0d1117" rx="4" stroke="#1e2433" stroke-width="1"/>
  <text x="540" y="227" font-family="'Wanted Sans Variable','Wanted Sans',-apple-system,sans-serif" font-size="13" fill="#55c555" text-anchor="middle">bash ✓</text>
  <rect x="628" y="200" width="192" height="44" fill="#0d1117" rx="4" stroke="#7ec8e3" stroke-width="1"/>
  <text x="724" y="227" font-family="'Wanted Sans Variable','Wanted Sans',-apple-system,sans-serif" font-size="12" fill="#7ec8e3" text-anchor="middle">일반 프로덕션</text>

  <!-- alpine -->
  <rect x="60" y="252" width="136" height="44" fill="#0d1117" rx="4" stroke="#1e2433" stroke-width="1"/>
  <text x="128" y="279" font-family="'JetBrains Mono','Menlo','Consolas',monospace" font-size="13" fill="#e8e8e8" text-anchor="middle">alpine</text>
  <rect x="204" y="252" width="110" height="44" fill="#0d1117" rx="4" stroke="#1e2433" stroke-width="1"/>
  <text x="259" y="279" font-family="'Wanted Sans Variable','Wanted Sans',-apple-system,sans-serif" font-size="13" fill="#55c555" text-anchor="middle">~5MB</text>
  <rect x="322" y="252" width="130" height="44" fill="#0d1117" rx="4" stroke="#1e2433" stroke-width="1"/>
  <text x="387" y="279" font-family="'Wanted Sans Variable','Wanted Sans',-apple-system,sans-serif" font-size="13" fill="#55c555" text-anchor="middle">매우 적음</text>
  <rect x="460" y="252" width="160" height="44" fill="#0d1117" rx="4" stroke="#1e2433" stroke-width="1"/>
  <text x="540" y="279" font-family="'Wanted Sans Variable','Wanted Sans',-apple-system,sans-serif" font-size="13" fill="#55c555" text-anchor="middle">ash ✓</text>
  <rect x="628" y="252" width="192" height="44" fill="#0d1117" rx="4" stroke="#e05555" stroke-width="1"/>
  <text x="724" y="279" font-family="'Wanted Sans Variable','Wanted Sans',-apple-system,sans-serif" font-size="12" fill="#e05555" text-anchor="middle">musl 호환성 확인 필수</text>

  <!-- distroless -->
  <rect x="60" y="304" width="136" height="44" fill="#0d1117" rx="4" stroke="#1e2433" stroke-width="1"/>
  <text x="128" y="331" font-family="'JetBrains Mono','Menlo','Consolas',monospace" font-size="12" fill="#e8e8e8" text-anchor="middle">distroless</text>
  <rect x="204" y="304" width="110" height="44" fill="#0d1117" rx="4" stroke="#1e2433" stroke-width="1"/>
  <text x="259" y="331" font-family="'Wanted Sans Variable','Wanted Sans',-apple-system,sans-serif" font-size="13" fill="#55c555" text-anchor="middle">~2-20MB</text>
  <rect x="322" y="304" width="130" height="44" fill="#0d1117" rx="4" stroke="#1e2433" stroke-width="1"/>
  <text x="387" y="331" font-family="'Wanted Sans Variable','Wanted Sans',-apple-system,sans-serif" font-size="13" fill="#55c555" text-anchor="middle">최소</text>
  <rect x="460" y="304" width="160" height="44" fill="#0d1117" rx="4" stroke="#1e2433" stroke-width="1"/>
  <text x="540" y="331" font-family="'Wanted Sans Variable','Wanted Sans',-apple-system,sans-serif" font-size="13" fill="#e05555" text-anchor="middle">셸 없음 ✗</text>
  <rect x="628" y="304" width="192" height="44" fill="#0d1117" rx="4" stroke="#55c555" stroke-width="1"/>
  <text x="724" y="331" font-family="'Wanted Sans Variable','Wanted Sans',-apple-system,sans-serif" font-size="12" fill="#55c555" text-anchor="middle">보안 최우선 환경</text>

  <!-- scratch -->
  <rect x="60" y="356" width="136" height="44" fill="#0d1117" rx="4" stroke="#1e2433" stroke-width="1"/>
  <text x="128" y="383" font-family="'JetBrains Mono','Menlo','Consolas',monospace" font-size="13" fill="#e8e8e8" text-anchor="middle">scratch</text>
  <rect x="204" y="356" width="110" height="44" fill="#0d1117" rx="4" stroke="#1e2433" stroke-width="1"/>
  <text x="259" y="383" font-family="'Wanted Sans Variable','Wanted Sans',-apple-system,sans-serif" font-size="13" fill="#55c555" text-anchor="middle">0B</text>
  <rect x="322" y="356" width="130" height="44" fill="#0d1117" rx="4" stroke="#1e2433" stroke-width="1"/>
  <text x="387" y="383" font-family="'Wanted Sans Variable','Wanted Sans',-apple-system,sans-serif" font-size="13" fill="#55c555" text-anchor="middle">없음</text>
  <rect x="460" y="356" width="160" height="44" fill="#0d1117" rx="4" stroke="#1e2433" stroke-width="1"/>
  <text x="540" y="383" font-family="'Wanted Sans Variable','Wanted Sans',-apple-system,sans-serif" font-size="13" fill="#e05555" text-anchor="middle">불가 ✗</text>
  <rect x="628" y="356" width="192" height="44" fill="#0d1117" rx="4" stroke="#7777cc" stroke-width="1"/>
  <text x="724" y="383" font-family="'Wanted Sans Variable','Wanted Sans',-apple-system,sans-serif" font-size="12" fill="#7777cc" text-anchor="middle">정적 바이너리 (Go 등)</text>

  <!-- Recommendation -->
  <rect x="60" y="420" width="760" height="56" fill="#0d1117" rx="8" stroke="#7ec8e3" stroke-width="1"/>
  <text x="440" y="442" font-family="'Wanted Sans Variable','Wanted Sans',-apple-system,sans-serif" font-size="13" font-weight="700" fill="#7ec8e3" text-anchor="middle">선택 가이드</text>
  <text x="440" y="462" font-family="'Wanted Sans Variable','Wanted Sans',-apple-system,sans-serif" font-size="12" fill="#888" text-anchor="middle">개발: debian-slim / 보안 우선: distroless / 정적 Go·Rust: scratch / 일반 웹: debian-slim or alpine</text>
</svg>
