<svg xmlns="http://www.w3.org/2000/svg" width="880" height="480" viewBox="0 0 880 480">
  <defs>
    <marker id="arw" viewBox="0 0 14 14" refX="12" refY="7"
            markerUnits="userSpaceOnUse" markerWidth="14" markerHeight="14" orient="auto">
      <path d="M 0 0 L 13 7 L 0 14 z" fill="#888"/>
    </marker>
  </defs>
  <rect width="880" height="480" fill="#0a0a0a" rx="12"/>

  <text x="440" y="42" font-family="'Wanted Sans Variable','Wanted Sans',-apple-system,sans-serif"
        font-size="22" font-weight="700" fill="#e8e8e8" text-anchor="middle">레드-블랙 트리 구조</text>

  <!-- RB Tree nodes -->
  <!-- Root: 13 (black) -->
  <circle cx="440" cy="100" r="26" fill="#1a1a1a" stroke="#888" stroke-width="2.5"/>
  <text x="440" y="106" font-family="'Wanted Sans Variable','Wanted Sans',-apple-system,sans-serif"
        font-size="15" font-weight="700" fill="#e8e8e8" text-anchor="middle">13</text>

  <!-- Level 2: 8 (red), 17 (red) -->
  <circle cx="280" cy="175" r="26" fill="#5a1a1a" stroke="#e05555" stroke-width="2.5"/>
  <text x="280" y="181" font-family="'Wanted Sans Variable','Wanted Sans',-apple-system,sans-serif"
        font-size="15" font-weight="700" fill="#e8e8e8" text-anchor="middle">8</text>

  <circle cx="600" cy="175" r="26" fill="#5a1a1a" stroke="#e05555" stroke-width="2.5"/>
  <text x="600" y="181" font-family="'Wanted Sans Variable','Wanted Sans',-apple-system,sans-serif"
        font-size="15" font-weight="700" fill="#e8e8e8" text-anchor="middle">17</text>

  <!-- Level 3: 1(black), 11(black), 15(black), 25(black) -->
  <circle cx="180" cy="255" r="26" fill="#1a1a1a" stroke="#888" stroke-width="2.5"/>
  <text x="180" y="261" font-family="'Wanted Sans Variable','Wanted Sans',-apple-system,sans-serif"
        font-size="15" font-weight="700" fill="#e8e8e8" text-anchor="middle">1</text>

  <circle cx="370" cy="255" r="26" fill="#1a1a1a" stroke="#888" stroke-width="2.5"/>
  <text x="370" y="261" font-family="'Wanted Sans Variable','Wanted Sans',-apple-system,sans-serif"
        font-size="15" font-weight="700" fill="#e8e8e8" text-anchor="middle">11</text>

  <circle cx="520" cy="255" r="26" fill="#1a1a1a" stroke="#888" stroke-width="2.5"/>
  <text x="520" y="261" font-family="'Wanted Sans Variable','Wanted Sans',-apple-system,sans-serif"
        font-size="15" font-weight="700" fill="#e8e8e8" text-anchor="middle">15</text>

  <circle cx="700" cy="255" r="26" fill="#1a1a1a" stroke="#888" stroke-width="2.5"/>
  <text x="700" y="261" font-family="'Wanted Sans Variable','Wanted Sans',-apple-system,sans-serif"
        font-size="15" font-weight="700" fill="#e8e8e8" text-anchor="middle">25</text>

  <!-- NIL nodes (black) -->
  <rect x="135" y="318" width="34" height="20" fill="#222" rx="4" stroke="#555"/>
  <text x="152" y="332" font-family="'Wanted Sans Variable','Wanted Sans',-apple-system,sans-serif"
        font-size="10" fill="#888" text-anchor="middle">NIL</text>
  <rect x="185" y="318" width="34" height="20" fill="#222" rx="4" stroke="#555"/>
  <text x="202" y="332" font-family="'Wanted Sans Variable','Wanted Sans',-apple-system,sans-serif"
        font-size="10" fill="#888" text-anchor="middle">NIL</text>

  <rect x="325" y="318" width="34" height="20" fill="#222" rx="4" stroke="#555"/>
  <text x="342" y="332" font-family="'Wanted Sans Variable','Wanted Sans',-apple-system,sans-serif"
        font-size="10" fill="#888" text-anchor="middle">NIL</text>
  <rect x="378" y="318" width="34" height="20" fill="#222" rx="4" stroke="#555"/>
  <text x="395" y="332" font-family="'Wanted Sans Variable','Wanted Sans',-apple-system,sans-serif"
        font-size="10" fill="#888" text-anchor="middle">NIL</text>

  <rect x="475" y="318" width="34" height="20" fill="#222" rx="4" stroke="#555"/>
  <text x="492" y="332" font-family="'Wanted Sans Variable','Wanted Sans',-apple-system,sans-serif"
        font-size="10" fill="#888" text-anchor="middle">NIL</text>
  <rect x="528" y="318" width="34" height="20" fill="#222" rx="4" stroke="#555"/>
  <text x="545" y="332" font-family="'Wanted Sans Variable','Wanted Sans',-apple-system,sans-serif"
        font-size="10" fill="#888" text-anchor="middle">NIL</text>

  <rect x="655" y="318" width="34" height="20" fill="#222" rx="4" stroke="#555"/>
  <text x="672" y="332" font-family="'Wanted Sans Variable','Wanted Sans',-apple-system,sans-serif"
        font-size="10" fill="#888" text-anchor="middle">NIL</text>
  <rect x="710" y="318" width="34" height="20" fill="#222" rx="4" stroke="#555"/>
  <text x="727" y="332" font-family="'Wanted Sans Variable','Wanted Sans',-apple-system,sans-serif"
        font-size="10" fill="#888" text-anchor="middle">NIL</text>

  <!-- Edges -->
  <line x1="420" y1="122" x2="298" y2="151" stroke="#555" stroke-width="1.5"/>
  <line x1="460" y1="122" x2="582" y2="151" stroke="#555" stroke-width="1.5"/>
  <line x1="261" y1="198" x2="197" y2="232" stroke="#555" stroke-width="1.5"/>
  <line x1="299" y1="198" x2="353" y2="232" stroke="#555" stroke-width="1.5"/>
  <line x1="581" y1="198" x2="537" y2="232" stroke="#555" stroke-width="1.5"/>
  <line x1="619" y1="198" x2="683" y2="232" stroke="#555" stroke-width="1.5"/>
  <line x1="171" y1="279" x2="160" y2="318" stroke="#555" stroke-width="1.5"/>
  <line x1="189" y1="279" x2="202" y2="318" stroke="#555" stroke-width="1.5"/>
  <line x1="361" y1="279" x2="349" y2="318" stroke="#555" stroke-width="1.5"/>
  <line x1="379" y1="279" x2="395" y2="318" stroke="#555" stroke-width="1.5"/>
  <line x1="511" y1="279" x2="500" y2="318" stroke="#555" stroke-width="1.5"/>
  <line x1="529" y1="279" x2="545" y2="318" stroke="#555" stroke-width="1.5"/>
  <line x1="691" y1="279" x2="679" y2="318" stroke="#555" stroke-width="1.5"/>
  <line x1="709" y1="279" x2="727" y2="318" stroke="#555" stroke-width="1.5"/>

  <!-- Legend -->
  <rect x="60" y="358" width="760" height="100" fill="#0f1a2e" rx="8" stroke="#3a4a6e" stroke-width="1"/>
  <text x="440" y="380" font-family="'Wanted Sans Variable','Wanted Sans',-apple-system,sans-serif"
        font-size="14" font-weight="600" fill="#e8e8e8" text-anchor="middle">5가지 레드-블랙 속성</text>
  <text x="80" y="402" font-family="'Wanted Sans Variable','Wanted Sans',-apple-system,sans-serif"
        font-size="12" fill="#aaa">1. 모든 노드는 빨강 또는 검정</text>
  <text x="80" y="418" font-family="'Wanted Sans Variable','Wanted Sans',-apple-system,sans-serif"
        font-size="12" fill="#aaa">2. 루트는 검정</text>
  <text x="80" y="434" font-family="'Wanted Sans Variable','Wanted Sans',-apple-system,sans-serif"
        font-size="12" fill="#aaa">3. 모든 리프(NIL)는 검정</text>
  <text x="440" y="402" font-family="'Wanted Sans Variable','Wanted Sans',-apple-system,sans-serif"
        font-size="12" fill="#aaa">4. 빨강 노드의 자식은 반드시 검정 (연속 빨강 금지)</text>
  <text x="440" y="418" font-family="'Wanted Sans Variable','Wanted Sans',-apple-system,sans-serif"
        font-size="12" fill="#aaa">5. 루트~NIL 경로의 블랙 노드 수는 모두 동일 (블랙 높이)</text>
</svg>
