<svg xmlns="http://www.w3.org/2000/svg" width="880" height="480" viewBox="0 0 880 480">
  <defs>
    <marker id="arr" viewBox="0 0 14 14" refX="12" refY="7"
            markerUnits="userSpaceOnUse" markerWidth="14" markerHeight="14" orient="auto">
      <path d="M 0 0 L 13 7 L 0 14 z" fill="#7ec8e3"/>
    </marker>
    <marker id="arr-search" viewBox="0 0 14 14" refX="12" refY="7"
            markerUnits="userSpaceOnUse" markerWidth="14" markerHeight="14" orient="auto">
      <path d="M 0 0 L 13 7 L 0 14 z" fill="#55c555"/>
    </marker>
  </defs>

  <rect width="880" height="480" fill="#0a0a0a" rx="12"/>

  <!-- title -->
  <text x="440" y="44" text-anchor="middle" font-family="'Wanted Sans Variable','Wanted Sans',-apple-system,sans-serif"
        font-size="22" font-weight="700" fill="#e8e8e8">스킵 리스트 구조</text>
  <text x="440" y="66" text-anchor="middle" font-family="'Wanted Sans Variable','Wanted Sans',-apple-system,sans-serif"
        font-size="13" fill="#888">여러 레벨의 연결 리스트 — 상위 레벨이 고속 도로 역할</text>

  <!-- ─── Skip list structure ─── -->
  <!-- Values: -∞, 3, 6, 7, 9, 12, 17, 19, 21, 25, +∞ -->
  <!-- x positions: 60, 130, 200, 270, 340, 410, 480, 550, 620, 690, 760 -->
  <!-- Level 3 (top), Level 2, Level 1, Level 0 (full list) -->

  <!-- Level 3 -->
  <text x="34" y="110" text-anchor="end" font-family="'Wanted Sans Variable','Wanted Sans',-apple-system,sans-serif"
        font-size="11" fill="#888">L3</text>
  <!-- head -∞ -->
  <rect x="42" y="94" width="40" height="30" rx="5" fill="#1a1a3a" stroke="#3a3a7a" stroke-width="1.5"/>
  <text x="62" y="113" text-anchor="middle" font-family="'JetBrains Mono','Menlo','Consolas',monospace" font-size="11" fill="#7777cc">-∞</text>
  <!-- 6 -->
  <rect x="182" y="94" width="40" height="30" rx="5" fill="#1a2a4a" stroke="#3a5a8a" stroke-width="1.5"/>
  <text x="202" y="113" text-anchor="middle" font-family="'JetBrains Mono','Menlo','Consolas',monospace" font-size="12" font-weight="600" fill="#7ec8e3">6</text>
  <!-- 25 -->
  <rect x="672" y="94" width="40" height="30" rx="5" fill="#1a2a4a" stroke="#3a5a8a" stroke-width="1.5"/>
  <text x="692" y="113" text-anchor="middle" font-family="'JetBrains Mono','Menlo','Consolas',monospace" font-size="12" font-weight="600" fill="#7ec8e3">25</text>
  <!-- +∞ -->
  <rect x="742" y="94" width="40" height="30" rx="5" fill="#1a1a3a" stroke="#3a3a7a" stroke-width="1.5"/>
  <text x="762" y="113" text-anchor="middle" font-family="'JetBrains Mono','Menlo','Consolas',monospace" font-size="11" fill="#7777cc">+∞</text>
  <!-- arrows L3 -->
  <line x1="82" y1="109" x2="182" y2="109" stroke="#3a5a8a" stroke-width="2" marker-end="url(#arr)"/>
  <line x1="222" y1="109" x2="672" y2="109" stroke="#3a5a8a" stroke-width="2" marker-end="url(#arr)"/>
  <line x1="712" y1="109" x2="742" y2="109" stroke="#3a5a8a" stroke-width="2" marker-end="url(#arr)"/>

  <!-- Level 2 -->
  <text x="34" y="162" text-anchor="end" font-family="'Wanted Sans Variable','Wanted Sans',-apple-system,sans-serif"
        font-size="11" fill="#888">L2</text>
  <rect x="42" y="146" width="40" height="30" rx="5" fill="#1a1a3a" stroke="#3a3a7a" stroke-width="1.5"/>
  <text x="62" y="165" text-anchor="middle" font-family="'JetBrains Mono','Menlo','Consolas',monospace" font-size="11" fill="#7777cc">-∞</text>
  <!-- 6 -->
  <rect x="182" y="146" width="40" height="30" rx="5" fill="#1a2a4a" stroke="#3a5a8a" stroke-width="1.5"/>
  <text x="202" y="165" text-anchor="middle" font-family="'JetBrains Mono','Menlo','Consolas',monospace" font-size="12" font-weight="600" fill="#7ec8e3">6</text>
  <!-- 9 -->
  <rect x="322" y="146" width="40" height="30" rx="5" fill="#1a2a4a" stroke="#3a5a8a" stroke-width="1.5"/>
  <text x="342" y="165" text-anchor="middle" font-family="'JetBrains Mono','Menlo','Consolas',monospace" font-size="12" font-weight="600" fill="#7ec8e3">9</text>
  <!-- 25 -->
  <rect x="672" y="146" width="40" height="30" rx="5" fill="#1a2a4a" stroke="#3a5a8a" stroke-width="1.5"/>
  <text x="692" y="165" text-anchor="middle" font-family="'JetBrains Mono','Menlo','Consolas',monospace" font-size="12" font-weight="600" fill="#7ec8e3">25</text>
  <rect x="742" y="146" width="40" height="30" rx="5" fill="#1a1a3a" stroke="#3a3a7a" stroke-width="1.5"/>
  <text x="762" y="165" text-anchor="middle" font-family="'JetBrains Mono','Menlo','Consolas',monospace" font-size="11" fill="#7777cc">+∞</text>
  <line x1="82"  y1="161" x2="182" y2="161" stroke="#3a5a8a" stroke-width="2" marker-end="url(#arr)"/>
  <line x1="222" y1="161" x2="322" y2="161" stroke="#3a5a8a" stroke-width="2" marker-end="url(#arr)"/>
  <line x1="362" y1="161" x2="672" y2="161" stroke="#3a5a8a" stroke-width="2" marker-end="url(#arr)"/>
  <line x1="712" y1="161" x2="742" y2="161" stroke="#3a5a8a" stroke-width="2" marker-end="url(#arr)"/>

  <!-- Level 1 -->
  <text x="34" y="214" text-anchor="end" font-family="'Wanted Sans Variable','Wanted Sans',-apple-system,sans-serif"
        font-size="11" fill="#888">L1</text>
  <rect x="42" y="198" width="40" height="30" rx="5" fill="#1a1a3a" stroke="#3a3a7a" stroke-width="1.5"/>
  <text x="62" y="217" text-anchor="middle" font-family="'JetBrains Mono','Menlo','Consolas',monospace" font-size="11" fill="#7777cc">-∞</text>
  <!-- 3, 6, 9, 17, 19, 25 -->
  <rect x="112" y="198" width="40" height="30" rx="5" fill="#1a2a4a" stroke="#3a5a8a" stroke-width="1.5"/>
  <text x="132" y="217" text-anchor="middle" font-family="'JetBrains Mono','Menlo','Consolas',monospace" font-size="12" font-weight="600" fill="#e8e8e8">3</text>
  <rect x="182" y="198" width="40" height="30" rx="5" fill="#1a2a4a" stroke="#3a5a8a" stroke-width="1.5"/>
  <text x="202" y="217" text-anchor="middle" font-family="'JetBrains Mono','Menlo','Consolas',monospace" font-size="12" font-weight="600" fill="#7ec8e3">6</text>
  <rect x="322" y="198" width="40" height="30" rx="5" fill="#1a2a4a" stroke="#3a5a8a" stroke-width="1.5"/>
  <text x="342" y="217" text-anchor="middle" font-family="'JetBrains Mono','Menlo','Consolas',monospace" font-size="12" font-weight="600" fill="#7ec8e3">9</text>
  <rect x="462" y="198" width="40" height="30" rx="5" fill="#1a2a4a" stroke="#3a5a8a" stroke-width="1.5"/>
  <text x="482" y="217" text-anchor="middle" font-family="'JetBrains Mono','Menlo','Consolas',monospace" font-size="12" font-weight="600" fill="#e8e8e8">17</text>
  <rect x="532" y="198" width="40" height="30" rx="5" fill="#1a2a4a" stroke="#3a5a8a" stroke-width="1.5"/>
  <text x="552" y="217" text-anchor="middle" font-family="'JetBrains Mono','Menlo','Consolas',monospace" font-size="12" font-weight="600" fill="#e8e8e8">19</text>
  <rect x="672" y="198" width="40" height="30" rx="5" fill="#1a2a4a" stroke="#3a5a8a" stroke-width="1.5"/>
  <text x="692" y="217" text-anchor="middle" font-family="'JetBrains Mono','Menlo','Consolas',monospace" font-size="12" font-weight="600" fill="#7ec8e3">25</text>
  <rect x="742" y="198" width="40" height="30" rx="5" fill="#1a1a3a" stroke="#3a3a7a" stroke-width="1.5"/>
  <text x="762" y="217" text-anchor="middle" font-family="'JetBrains Mono','Menlo','Consolas',monospace" font-size="11" fill="#7777cc">+∞</text>
  <line x1="82"  y1="213" x2="112" y2="213" stroke="#3a5a8a" stroke-width="1.5" marker-end="url(#arr)"/>
  <line x1="152" y1="213" x2="182" y2="213" stroke="#3a5a8a" stroke-width="1.5" marker-end="url(#arr)"/>
  <line x1="222" y1="213" x2="322" y2="213" stroke="#3a5a8a" stroke-width="1.5" marker-end="url(#arr)"/>
  <line x1="362" y1="213" x2="462" y2="213" stroke="#3a5a8a" stroke-width="1.5" marker-end="url(#arr)"/>
  <line x1="502" y1="213" x2="532" y2="213" stroke="#3a5a8a" stroke-width="1.5" marker-end="url(#arr)"/>
  <line x1="572" y1="213" x2="672" y2="213" stroke="#3a5a8a" stroke-width="1.5" marker-end="url(#arr)"/>
  <line x1="712" y1="213" x2="742" y2="213" stroke="#3a5a8a" stroke-width="1.5" marker-end="url(#arr)"/>

  <!-- Level 0 (full) -->
  <text x="34" y="266" text-anchor="end" font-family="'Wanted Sans Variable','Wanted Sans',-apple-system,sans-serif"
        font-size="11" fill="#888">L0</text>
  <rect x="42" y="250" width="40" height="30" rx="5" fill="#1a1a3a" stroke="#3a3a7a" stroke-width="1.5"/>
  <text x="62" y="269" text-anchor="middle" font-family="'JetBrains Mono','Menlo','Consolas',monospace" font-size="11" fill="#7777cc">-∞</text>
  <rect x="112" y="250" width="40" height="30" rx="5" fill="#1a2a4a" stroke="#3a5a8a" stroke-width="1"/>
  <text x="132" y="269" text-anchor="middle" font-family="'JetBrains Mono','Menlo','Consolas',monospace" font-size="12" fill="#e8e8e8">3</text>
  <rect x="182" y="250" width="40" height="30" rx="5" fill="#1a2a4a" stroke="#3a5a8a" stroke-width="1"/>
  <text x="202" y="269" text-anchor="middle" font-family="'JetBrains Mono','Menlo','Consolas',monospace" font-size="12" fill="#e8e8e8">6</text>
  <rect x="252" y="250" width="40" height="30" rx="5" fill="#1a2a4a" stroke="#3a5a8a" stroke-width="1"/>
  <text x="272" y="269" text-anchor="middle" font-family="'JetBrains Mono','Menlo','Consolas',monospace" font-size="12" fill="#e8e8e8">7</text>
  <rect x="322" y="250" width="40" height="30" rx="5" fill="#1a2a4a" stroke="#3a5a8a" stroke-width="1"/>
  <text x="342" y="269" text-anchor="middle" font-family="'JetBrains Mono','Menlo','Consolas',monospace" font-size="12" fill="#e8e8e8">9</text>
  <rect x="392" y="250" width="40" height="30" rx="5" fill="#1a2a4a" stroke="#3a5a8a" stroke-width="1"/>
  <text x="412" y="269" text-anchor="middle" font-family="'JetBrains Mono','Menlo','Consolas',monospace" font-size="12" fill="#e8e8e8">12</text>
  <rect x="462" y="250" width="40" height="30" rx="5" fill="#1a2a4a" stroke="#3a5a8a" stroke-width="1"/>
  <text x="482" y="269" text-anchor="middle" font-family="'JetBrains Mono','Menlo','Consolas',monospace" font-size="12" fill="#e8e8e8">17</text>
  <rect x="532" y="250" width="40" height="30" rx="5" fill="#1a2a4a" stroke="#3a5a8a" stroke-width="1"/>
  <text x="552" y="269" text-anchor="middle" font-family="'JetBrains Mono','Menlo','Consolas',monospace" font-size="12" fill="#e8e8e8">19</text>
  <rect x="602" y="250" width="40" height="30" rx="5" fill="#1a2a4a" stroke="#3a5a8a" stroke-width="1"/>
  <text x="622" y="269" text-anchor="middle" font-family="'JetBrains Mono','Menlo','Consolas',monospace" font-size="12" fill="#e8e8e8">21</text>
  <rect x="672" y="250" width="40" height="30" rx="5" fill="#1a2a4a" stroke="#3a5a8a" stroke-width="1"/>
  <text x="692" y="269" text-anchor="middle" font-family="'JetBrains Mono','Menlo','Consolas',monospace" font-size="12" fill="#e8e8e8">25</text>
  <rect x="742" y="250" width="40" height="30" rx="5" fill="#1a1a3a" stroke="#3a3a7a" stroke-width="1.5"/>
  <text x="762" y="269" text-anchor="middle" font-family="'JetBrains Mono','Menlo','Consolas',monospace" font-size="11" fill="#7777cc">+∞</text>
  <!-- L0 arrows -->
  <line x1="82"  y1="265" x2="112" y2="265" stroke="#2a4a6a" stroke-width="1.5" marker-end="url(#arr)"/>
  <line x1="152" y1="265" x2="182" y2="265" stroke="#2a4a6a" stroke-width="1.5" marker-end="url(#arr)"/>
  <line x1="222" y1="265" x2="252" y2="265" stroke="#2a4a6a" stroke-width="1.5" marker-end="url(#arr)"/>
  <line x1="292" y1="265" x2="322" y2="265" stroke="#2a4a6a" stroke-width="1.5" marker-end="url(#arr)"/>
  <line x1="362" y1="265" x2="392" y2="265" stroke="#2a4a6a" stroke-width="1.5" marker-end="url(#arr)"/>
  <line x1="432" y1="265" x2="462" y2="265" stroke="#2a4a6a" stroke-width="1.5" marker-end="url(#arr)"/>
  <line x1="502" y1="265" x2="532" y2="265" stroke="#2a4a6a" stroke-width="1.5" marker-end="url(#arr)"/>
  <line x1="572" y1="265" x2="602" y2="265" stroke="#2a4a6a" stroke-width="1.5" marker-end="url(#arr)"/>
  <line x1="642" y1="265" x2="672" y2="265" stroke="#2a4a6a" stroke-width="1.5" marker-end="url(#arr)"/>
  <line x1="712" y1="265" x2="742" y2="265" stroke="#2a4a6a" stroke-width="1.5" marker-end="url(#arr)"/>

  <!-- vertical connectors (nodes appearing at multiple levels) -->
  <line x1="202" y1="124" x2="202" y2="146" stroke="#3a5a8a" stroke-width="1" stroke-dasharray="2,2"/>
  <line x1="202" y1="176" x2="202" y2="198" stroke="#3a5a8a" stroke-width="1" stroke-dasharray="2,2"/>
  <line x1="202" y1="228" x2="202" y2="250" stroke="#3a5a8a" stroke-width="1" stroke-dasharray="2,2"/>
  <line x1="342" y1="176" x2="342" y2="198" stroke="#3a5a8a" stroke-width="1" stroke-dasharray="2,2"/>
  <line x1="342" y1="228" x2="342" y2="250" stroke="#3a5a8a" stroke-width="1" stroke-dasharray="2,2"/>
  <line x1="692" y1="124" x2="692" y2="146" stroke="#3a5a8a" stroke-width="1" stroke-dasharray="2,2"/>
  <line x1="692" y1="176" x2="692" y2="198" stroke="#3a5a8a" stroke-width="1" stroke-dasharray="2,2"/>
  <line x1="692" y1="228" x2="692" y2="250" stroke="#3a5a8a" stroke-width="1" stroke-dasharray="2,2"/>

  <!-- Search path: find 17 (green highlight) -->
  <text x="60" y="316" font-family="'Wanted Sans Variable','Wanted Sans',-apple-system,sans-serif"
        font-size="13" font-weight="600" fill="#55c555">탐색 경로: 17을 찾는 과정</text>
  <text x="60" y="336" font-family="'Wanted Sans Variable','Wanted Sans',-apple-system,sans-serif"
        font-size="12" fill="#888">L3: -∞ → 6 (6&lt;17, 계속) → 25 (25&gt;17, 하강)</text>
  <text x="60" y="356" font-family="'Wanted Sans Variable','Wanted Sans',-apple-system,sans-serif"
        font-size="12" fill="#888">L2: 6 → 9 (9&lt;17, 계속) → 25 (25&gt;17, 하강)</text>
  <text x="60" y="376" font-family="'Wanted Sans Variable','Wanted Sans',-apple-system,sans-serif"
        font-size="12" fill="#888">L1: 9 → 17 (17=17, 탐색 성공 ✓)</text>

  <!-- Complexity box -->
  <rect x="60" y="396" width="760" height="64" rx="8" fill="#000000" stroke="#3a4a6e" stroke-width="1"/>
  <text x="76" y="420" font-family="'JetBrains Mono','Menlo','Consolas',monospace"
        font-size="13" fill="#9aa4b8" xml:space="preserve">평균 레벨 수 O(log n) — 각 레벨에서 약 2개씩 비교 → 탐색 O(log n)</text>
  <text x="76" y="440" font-family="'JetBrains Mono','Menlo','Consolas',monospace"
        font-size="13" fill="#ffffff" xml:space="preserve">탐색/삽입/삭제 평균 <tspan fill="#55c555" font-weight="600">O(log n)</tspan>, 최악 O(n)  |  공간 <tspan fill="#7ec8e3" font-weight="600">O(n log n)</tspan> 평균</text>
  <text x="76" y="454" font-family="'JetBrains Mono','Menlo','Consolas',monospace"
        font-size="11" fill="#9aa4b8" xml:space="preserve">확률 p=0.5 → 각 노드 레벨 k 확률 = (1-p)·p^(k-1)</text>
</svg>
