<svg xmlns="http://www.w3.org/2000/svg" width="880" viewBox="0 0 880 460" style="background:#0a0a0a" font-family="'Wanted Sans Variable','Wanted Sans',-apple-system,sans-serif">
  <rect width="880" height="460" fill="#0a0a0a" rx="12"/>

  <!-- Title -->
  <text x="440" y="44" font-size="22" font-weight="700" fill="#e8e8e8" text-anchor="middle">DeepSpeed ZeRO 단계별 메모리 분산</text>
  <text x="440" y="68" font-size="15" fill="#888" text-anchor="middle">4-GPU 환경 기준 · 옵티마이저 / 그래디언트 / 파라미터 분산</text>

  <!-- Column headers -->
  <text x="170" y="100" font-size="13" font-weight="700" fill="#7ec8e3" text-anchor="middle">ZeRO Stage 1</text>
  <text x="170" y="116" font-size="11" fill="#888" text-anchor="middle">옵티마이저 상태 분산</text>

  <text x="440" y="100" font-size="13" font-weight="700" fill="#ce9178" text-anchor="middle">ZeRO Stage 2</text>
  <text x="440" y="116" font-size="11" fill="#888" text-anchor="middle">+ 그래디언트 분산</text>

  <text x="710" y="100" font-size="13" font-weight="700" fill="#55c555" text-anchor="middle">ZeRO Stage 3</text>
  <text x="710" y="116" font-size="11" fill="#888" text-anchor="middle">+ 파라미터 분산</text>

  <!-- Dividers -->
  <line x1="306" y1="88" x2="306" y2="310" stroke="#3a4a6e" stroke-width="1"/>
  <line x1="576" y1="88" x2="576" y2="310" stroke="#3a4a6e" stroke-width="1"/>

  <!-- ===== STAGE 1 ===== -->
  <!-- GPU boxes with legend -->
  <!-- GPU 0 -->
  <rect x="62" y="132" width="216" height="48" rx="8" fill="#0d1b2a" stroke="#7ec8e3" stroke-width="1.2"/>
  <text x="100" y="152" font-size="10" font-weight="700" fill="#7ec8e3">GPU 0</text>
  <!-- param: full -->
  <rect x="90" y="158" width="40" height="14" rx="3" fill="#7ec8e3" opacity="0.9"/>
  <text x="110" y="169" font-size="8" fill="#0a0a0a" text-anchor="middle" font-weight="700">Param</text>
  <!-- grad: full -->
  <rect x="136" y="158" width="40" height="14" rx="3" fill="#7777cc" opacity="0.9"/>
  <text x="156" y="169" font-size="8" fill="#fff" text-anchor="middle" font-weight="700">Grad</text>
  <!-- opt: 1/4 -->
  <rect x="182" y="158" width="12" height="14" rx="2" fill="#ce9178" opacity="0.9"/>
  <text x="244" y="152" font-size="9" fill="#ce9178">Opt ¼</text>

  <rect x="62" y="186" width="216" height="48" rx="8" fill="#0d1b2a" stroke="#7ec8e3" stroke-width="1.2"/>
  <text x="100" y="206" font-size="10" font-weight="700" fill="#7ec8e3">GPU 1</text>
  <rect x="90" y="212" width="40" height="14" rx="3" fill="#7ec8e3" opacity="0.9"/>
  <text x="110" y="223" font-size="8" fill="#0a0a0a" text-anchor="middle" font-weight="700">Param</text>
  <rect x="136" y="212" width="40" height="14" rx="3" fill="#7777cc" opacity="0.9"/>
  <text x="156" y="223" font-size="8" fill="#fff" text-anchor="middle" font-weight="700">Grad</text>
  <rect x="194" y="212" width="12" height="14" rx="2" fill="#ce9178" opacity="0.9"/>

  <rect x="62" y="240" width="216" height="48" rx="8" fill="#0d1b2a" stroke="#7ec8e3" stroke-width="1.2"/>
  <text x="100" y="260" font-size="10" font-weight="700" fill="#7ec8e3">GPU 2</text>
  <rect x="90" y="266" width="40" height="14" rx="3" fill="#7ec8e3" opacity="0.9"/>
  <text x="110" y="277" font-size="8" fill="#0a0a0a" text-anchor="middle" font-weight="700">Param</text>
  <rect x="136" y="266" width="40" height="14" rx="3" fill="#7777cc" opacity="0.9"/>
  <text x="156" y="277" font-size="8" fill="#fff" text-anchor="middle" font-weight="700">Grad</text>
  <rect x="206" y="266" width="12" height="14" rx="2" fill="#ce9178" opacity="0.9"/>

  <rect x="62" y="294" width="216" height="48" rx="8" fill="#0d1b2a" stroke="#7ec8e3" stroke-width="1.2"/>
  <text x="100" y="314" font-size="10" font-weight="700" fill="#7ec8e3">GPU 3</text>
  <rect x="90" y="320" width="40" height="14" rx="3" fill="#7ec8e3" opacity="0.9"/>
  <text x="110" y="331" font-size="8" fill="#0a0a0a" text-anchor="middle" font-weight="700">Param</text>
  <rect x="136" y="320" width="40" height="14" rx="3" fill="#7777cc" opacity="0.9"/>
  <text x="156" y="331" font-size="8" fill="#fff" text-anchor="middle" font-weight="700">Grad</text>
  <rect x="218" y="320" width="12" height="14" rx="2" fill="#ce9178" opacity="0.9"/>

  <!-- Stage 1 memory note -->
  <rect x="62" y="352" width="216" height="30" rx="6" fill="#111" stroke="#7ec8e3" stroke-width="0.8"/>
  <text x="170" y="371" font-size="10" fill="#7ec8e3" text-anchor="middle">메모리 절약: ~4× (옵티마이저)</text>

  <!-- ===== STAGE 2 ===== -->
  <rect x="332" y="132" width="216" height="48" rx="8" fill="#0d1b2a" stroke="#ce9178" stroke-width="1.2"/>
  <text x="370" y="152" font-size="10" font-weight="700" fill="#ce9178">GPU 0</text>
  <rect x="360" y="158" width="40" height="14" rx="3" fill="#7ec8e3" opacity="0.9"/>
  <text x="380" y="169" font-size="8" fill="#0a0a0a" text-anchor="middle" font-weight="700">Param</text>
  <rect x="406" y="158" width="10" height="14" rx="2" fill="#7777cc" opacity="0.9"/>
  <text x="422" y="152" font-size="9" fill="#7777cc">G ¼</text>
  <rect x="452" y="158" width="10" height="14" rx="2" fill="#ce9178" opacity="0.9"/>
  <text x="468" y="152" font-size="9" fill="#ce9178">O ¼</text>

  <rect x="332" y="186" width="216" height="48" rx="8" fill="#0d1b2a" stroke="#ce9178" stroke-width="1.2"/>
  <text x="370" y="206" font-size="10" font-weight="700" fill="#ce9178">GPU 1</text>
  <rect x="360" y="212" width="40" height="14" rx="3" fill="#7ec8e3" opacity="0.9"/>
  <text x="380" y="223" font-size="8" fill="#0a0a0a" text-anchor="middle" font-weight="700">Param</text>
  <rect x="416" y="212" width="10" height="14" rx="2" fill="#7777cc" opacity="0.9"/>
  <rect x="462" y="212" width="10" height="14" rx="2" fill="#ce9178" opacity="0.9"/>

  <rect x="332" y="240" width="216" height="48" rx="8" fill="#0d1b2a" stroke="#ce9178" stroke-width="1.2"/>
  <text x="370" y="260" font-size="10" font-weight="700" fill="#ce9178">GPU 2</text>
  <rect x="360" y="266" width="40" height="14" rx="3" fill="#7ec8e3" opacity="0.9"/>
  <text x="380" y="277" font-size="8" fill="#0a0a0a" text-anchor="middle" font-weight="700">Param</text>
  <rect x="426" y="266" width="10" height="14" rx="2" fill="#7777cc" opacity="0.9"/>
  <rect x="472" y="266" width="10" height="14" rx="2" fill="#ce9178" opacity="0.9"/>

  <rect x="332" y="294" width="216" height="48" rx="8" fill="#0d1b2a" stroke="#ce9178" stroke-width="1.2"/>
  <text x="370" y="314" font-size="10" font-weight="700" fill="#ce9178">GPU 3</text>
  <rect x="360" y="320" width="40" height="14" rx="3" fill="#7ec8e3" opacity="0.9"/>
  <text x="380" y="331" font-size="8" fill="#0a0a0a" text-anchor="middle" font-weight="700">Param</text>
  <rect x="436" y="320" width="10" height="14" rx="2" fill="#7777cc" opacity="0.9"/>
  <rect x="482" y="320" width="10" height="14" rx="2" fill="#ce9178" opacity="0.9"/>

  <rect x="332" y="352" width="216" height="30" rx="6" fill="#111" stroke="#ce9178" stroke-width="0.8"/>
  <text x="440" y="371" font-size="10" fill="#ce9178" text-anchor="middle">메모리 절약: ~8× (그래디언트 추가)</text>

  <!-- ===== STAGE 3 ===== -->
  <rect x="602" y="132" width="216" height="48" rx="8" fill="#0d1b2a" stroke="#55c555" stroke-width="1.2"/>
  <text x="640" y="152" font-size="10" font-weight="700" fill="#55c555">GPU 0</text>
  <rect x="630" y="158" width="12" height="14" rx="2" fill="#7ec8e3" opacity="0.9"/>
  <text x="647" y="152" font-size="9" fill="#7ec8e3">P ¼</text>
  <rect x="660" y="158" width="10" height="14" rx="2" fill="#7777cc" opacity="0.9"/>
  <text x="674" y="152" font-size="9" fill="#7777cc">G ¼</text>
  <rect x="688" y="158" width="10" height="14" rx="2" fill="#ce9178" opacity="0.9"/>
  <text x="702" y="152" font-size="9" fill="#ce9178">O ¼</text>

  <rect x="602" y="186" width="216" height="48" rx="8" fill="#0d1b2a" stroke="#55c555" stroke-width="1.2"/>
  <text x="640" y="206" font-size="10" font-weight="700" fill="#55c555">GPU 1</text>
  <rect x="630" y="212" width="12" height="14" rx="2" fill="#7ec8e3" opacity="0.9"/>
  <rect x="660" y="212" width="10" height="14" rx="2" fill="#7777cc" opacity="0.9"/>
  <rect x="688" y="212" width="10" height="14" rx="2" fill="#ce9178" opacity="0.9"/>

  <rect x="602" y="240" width="216" height="48" rx="8" fill="#0d1b2a" stroke="#55c555" stroke-width="1.2"/>
  <text x="640" y="260" font-size="10" font-weight="700" fill="#55c555">GPU 2</text>
  <rect x="630" y="266" width="12" height="14" rx="2" fill="#7ec8e3" opacity="0.9"/>
  <rect x="660" y="266" width="10" height="14" rx="2" fill="#7777cc" opacity="0.9"/>
  <rect x="688" y="266" width="10" height="14" rx="2" fill="#ce9178" opacity="0.9"/>

  <rect x="602" y="294" width="216" height="48" rx="8" fill="#0d1b2a" stroke="#55c555" stroke-width="1.2"/>
  <text x="640" y="314" font-size="10" font-weight="700" fill="#55c555">GPU 3</text>
  <rect x="630" y="320" width="12" height="14" rx="2" fill="#7ec8e3" opacity="0.9"/>
  <rect x="660" y="320" width="10" height="14" rx="2" fill="#7777cc" opacity="0.9"/>
  <rect x="688" y="320" width="10" height="14" rx="2" fill="#ce9178" opacity="0.9"/>

  <rect x="602" y="352" width="216" height="30" rx="6" fill="#111" stroke="#55c555" stroke-width="0.8"/>
  <text x="710" y="371" font-size="10" fill="#55c555" text-anchor="middle">메모리 절약: ~16× (파라미터 추가)</text>

  <!-- Code block: deepspeed config -->
  <rect x="62" y="394" width="756" height="52" rx="6" fill="#000000" stroke="#3a4a6e" stroke-width="1"/>
  <text x="80" y="414" font-size="13" font-family="'JetBrains Mono','Menlo','Consolas',monospace" fill="#9aa4b8" xml:space="preserve">// ds_config.json (ZeRO Stage 3)</text>
  <text x="80" y="432" font-size="13" font-family="'JetBrains Mono','Menlo','Consolas',monospace" xml:space="preserve">
    <tspan fill="#ffffff">{</tspan>
    <tspan fill="#7ec8e3"> "zero_optimization"</tspan>
    <tspan fill="#ffffff">: {</tspan>
    <tspan fill="#7ec8e3"> "stage"</tspan>
    <tspan fill="#ffffff">:</tspan>
    <tspan fill="#b5cea8"> 3</tspan>
    <tspan fill="#ffffff">,</tspan>
    <tspan fill="#7ec8e3"> "offload_optimizer"</tspan>
    <tspan fill="#ffffff">: {</tspan>
    <tspan fill="#7ec8e3">"device"</tspan>
    <tspan fill="#ffffff">:</tspan>
    <tspan fill="#ce9178">"cpu"</tspan>
    <tspan fill="#ffffff">} } }</tspan>
  </text>
</svg>
