<svg xmlns="http://www.w3.org/2000/svg" width="880" height="340" viewBox="0 0 880 340" font-family="'Wanted Sans Variable','Wanted Sans',-apple-system,sans-serif">
  <defs>
    <marker id="arrFP" viewBox="0 0 14 14" refX="12" refY="7" markerUnits="userSpaceOnUse" markerWidth="14" markerHeight="14" orient="auto">
      <path d="M 0 0 L 13 7 L 0 14 z" fill="#7ec8e3"/>
    </marker>
  </defs>
  <rect x="0" y="0" width="880" height="340" rx="12" fill="#0a0a0a"/>
  <text x="60" y="48" font-size="22" font-weight="700" fill="#e8e8e8">format-patch / am — 이메일로 커밋 주고받기</text>

  <rect x="60" y="110" width="190" height="150" rx="10" fill="#10151f" stroke="#3a4a6e" stroke-width="1.5"/>
  <text x="155" y="150" font-size="16" font-weight="600" fill="#e8e8e8" text-anchor="middle">보내는 쪽</text>
  <text x="155" y="180" font-size="12" fill="#888" text-anchor="middle">로컬 커밋</text>
  <text x="155" y="204" font-size="13" fill="#7ec8e3" text-anchor="middle" font-weight="600">format-patch</text>
  <text x="155" y="228" font-size="12" fill="#888" text-anchor="middle">.patch 생성</text>

  <rect x="345" y="110" width="190" height="150" rx="10" fill="#000000" stroke="#55c555" stroke-width="1.5"/>
  <text x="440" y="150" font-size="16" font-weight="600" fill="#e8e8e8" text-anchor="middle">0001-*.patch</text>
  <text x="440" y="180" font-size="13" fill="#55c555" text-anchor="middle" font-weight="600">mbox 형식</text>
  <text x="440" y="204" font-size="12" fill="#888" text-anchor="middle">메일 본문 · diff</text>
  <text x="440" y="228" font-size="12" fill="#888" text-anchor="middle">작성자 · 날짜 포함</text>

  <rect x="630" y="110" width="190" height="150" rx="10" fill="#10151f" stroke="#3a4a6e" stroke-width="1.5"/>
  <text x="725" y="150" font-size="16" font-weight="600" fill="#e8e8e8" text-anchor="middle">받는 쪽</text>
  <text x="725" y="180" font-size="13" fill="#7ec8e3" text-anchor="middle" font-weight="600">git am</text>
  <text x="725" y="204" font-size="12" fill="#888" text-anchor="middle">패치 적용</text>
  <text x="725" y="228" font-size="12" fill="#888" text-anchor="middle">커밋 그대로 재현</text>

  <line x1="250" y1="185" x2="343" y2="185" stroke="#7ec8e3" stroke-width="2" marker-end="url(#arrFP)"/>
  <text x="296" y="172" font-size="11" fill="#9aa4b8" text-anchor="middle">생성</text>

  <line x1="535" y1="185" x2="628" y2="185" stroke="#7ec8e3" stroke-width="2" marker-end="url(#arrFP)"/>
  <text x="581" y="172" font-size="11" fill="#9aa4b8" text-anchor="middle">이메일 전송</text>

  <text x="60" y="302" font-size="13" fill="#888">중앙 서버 없이도 패치 파일만 오가면 커밋 메시지·작성자·타임스탬프가 그대로 전달됩니다.</text>
</svg>
