<svg xmlns="http://www.w3.org/2000/svg" viewBox="0 0 880 440" width="880">
  <rect width="880" height="440" fill="#0a0a0a" rx="12"/>

  <text x="440" y="46" text-anchor="middle" font-family="'Wanted Sans Variable','Wanted Sans',-apple-system,sans-serif" font-size="22" font-weight="700" fill="#e8e8e8">Rebase vs Merge 히스토리 비교</text>
  <text x="440" y="72" text-anchor="middle" font-family="'Wanted Sans Variable','Wanted Sans',-apple-system,sans-serif" font-size="16" font-weight="600" fill="#888">동일한 작업 결과, 다른 히스토리 모양</text>

  <!-- Setup (same start) -->
  <text x="80" y="108" font-family="'Wanted Sans Variable','Wanted Sans',-apple-system,sans-serif" font-size="13" fill="#888">시작 상태 (공통)</text>

  <circle cx="100" cy="155" r="18" fill="#1a2233" stroke="#7ec8e3" stroke-width="2"/>
  <text x="100" y="159" text-anchor="middle" font-family="'Wanted Sans Variable','Wanted Sans',-apple-system,sans-serif" font-size="11" fill="#7ec8e3">C1</text>
  <circle cx="180" cy="155" r="18" fill="#1a2233" stroke="#7ec8e3" stroke-width="2"/>
  <text x="180" y="159" text-anchor="middle" font-family="'Wanted Sans Variable','Wanted Sans',-apple-system,sans-serif" font-size="11" fill="#7ec8e3">C2</text>
  <circle cx="280" cy="115" r="18" fill="#1a2233" stroke="#55c555" stroke-width="2"/>
  <text x="280" y="119" text-anchor="middle" font-family="'Wanted Sans Variable','Wanted Sans',-apple-system,sans-serif" font-size="11" fill="#55c555">F1</text>
  <circle cx="360" cy="115" r="18" fill="#1a2233" stroke="#55c555" stroke-width="2"/>
  <text x="360" y="119" text-anchor="middle" font-family="'Wanted Sans Variable','Wanted Sans',-apple-system,sans-serif" font-size="11" fill="#55c555">F2</text>
  <circle cx="280" cy="195" r="18" fill="#1a2233" stroke="#7777cc" stroke-width="2"/>
  <text x="280" y="199" text-anchor="middle" font-family="'Wanted Sans Variable','Wanted Sans',-apple-system,sans-serif" font-size="11" fill="#7777cc">M1</text>

  <!-- Start arrows -->
  <line x1="118" y1="155" x2="160" y2="155" stroke="#555" stroke-width="1.5"/>
  <polygon points="160,150 170,155 160,160" fill="#555"/>
  <line x1="196" y1="144" x2="260" y2="122" stroke="#555" stroke-width="1.5"/>
  <polygon points="255,116 265,121 257,129" fill="#555"/>
  <line x1="196" y1="166" x2="260" y2="188" stroke="#555" stroke-width="1.5"/>
  <polygon points="256,188 266,192 258,200" fill="#555"/>
  <line x1="298" y1="115" x2="340" y2="115" stroke="#55c555" stroke-width="1.5"/>
  <polygon points="340,110 350,115 340,120" fill="#55c555"/>

  <!-- Labels -->
  <text x="360" y="94" text-anchor="middle" font-family="'Wanted Sans Variable','Wanted Sans',-apple-system,sans-serif" font-size="11" fill="#55c555">feature</text>
  <text x="280" y="218" text-anchor="middle" font-family="'Wanted Sans Variable','Wanted Sans',-apple-system,sans-serif" font-size="11" fill="#7777cc">main</text>

  <!-- Divider -->
  <line x1="440" y1="90" x2="440" y2="240" stroke="#333" stroke-width="2" stroke-dasharray="5,4"/>

  <!-- LEFT: Merge result -->
  <text x="220" y="262" text-anchor="middle" font-family="'Wanted Sans Variable','Wanted Sans',-apple-system,sans-serif" font-size="15" font-weight="600" fill="#7777cc">merge 결과</text>
  <text x="220" y="280" text-anchor="middle" font-family="'Wanted Sans Variable','Wanted Sans',-apple-system,sans-serif" font-size="12" fill="#888">브랜치 흔적 보존</text>

  <circle cx="80" cy="340" r="18" fill="#1a2233" stroke="#7ec8e3" stroke-width="2"/>
  <text x="80" y="344" text-anchor="middle" font-family="'Wanted Sans Variable','Wanted Sans',-apple-system,sans-serif" font-size="11" fill="#7ec8e3">C1</text>
  <circle cx="150" cy="340" r="18" fill="#1a2233" stroke="#7ec8e3" stroke-width="2"/>
  <text x="150" y="344" text-anchor="middle" font-family="'Wanted Sans Variable','Wanted Sans',-apple-system,sans-serif" font-size="11" fill="#7ec8e3">C2</text>

  <circle cx="220" cy="300" r="18" fill="#1a2233" stroke="#55c555" stroke-width="2"/>
  <text x="220" y="304" text-anchor="middle" font-family="'Wanted Sans Variable','Wanted Sans',-apple-system,sans-serif" font-size="11" fill="#55c555">F1</text>
  <circle cx="290" cy="300" r="18" fill="#1a2233" stroke="#55c555" stroke-width="2"/>
  <text x="290" y="304" text-anchor="middle" font-family="'Wanted Sans Variable','Wanted Sans',-apple-system,sans-serif" font-size="11" fill="#55c555">F2</text>

  <circle cx="220" cy="380" r="18" fill="#1a2233" stroke="#7777cc" stroke-width="2"/>
  <text x="220" y="384" text-anchor="middle" font-family="'Wanted Sans Variable','Wanted Sans',-apple-system,sans-serif" font-size="11" fill="#7777cc">M1</text>

  <circle cx="380" cy="340" r="20" fill="#1a1a2a" stroke="#e8e8e8" stroke-width="2"/>
  <text x="380" y="338" text-anchor="middle" font-family="'Wanted Sans Variable','Wanted Sans',-apple-system,sans-serif" font-size="11" fill="#e8e8e8">MG</text>
  <text x="380" y="352" text-anchor="middle" font-family="'Wanted Sans Variable','Wanted Sans',-apple-system,sans-serif" font-size="10" fill="#888">merge</text>

  <!-- Merge arrows -->
  <line x1="98" y1="340" x2="130" y2="340" stroke="#555" stroke-width="1.5"/>
  <polygon points="130,335 140,340 130,345" fill="#555"/>
  <line x1="166" y1="329" x2="202" y2="309" stroke="#555" stroke-width="1.5"/>
  <polygon points="198,303 208,308 200,316" fill="#555"/>
  <line x1="166" y1="351" x2="202" y2="371" stroke="#555" stroke-width="1.5"/>
  <polygon points="198,372 208,376 200,384" fill="#555"/>
  <line x1="238" y1="300" x2="270" y2="300" stroke="#55c555" stroke-width="1.5"/>
  <polygon points="270,295 280,300 270,305" fill="#55c555"/>
  <line x1="308" y1="312" x2="360" y2="330" stroke="#55c555" stroke-width="1.5"/>
  <polygon points="355,327 365,330 358,338" fill="#55c555"/>
  <line x1="238" y1="380" x2="360" y2="350" stroke="#7777cc" stroke-width="1.5"/>
  <polygon points="355,346 365,349 357,357" fill="#7777cc"/>

  <!-- RIGHT: Rebase result -->
  <text x="670" y="262" text-anchor="middle" font-family="'Wanted Sans Variable','Wanted Sans',-apple-system,sans-serif" font-size="15" font-weight="600" fill="#55c555">rebase 결과</text>
  <text x="670" y="280" text-anchor="middle" font-family="'Wanted Sans Variable','Wanted Sans',-apple-system,sans-serif" font-size="12" fill="#888">직선 히스토리</text>

  <circle cx="480" cy="340" r="18" fill="#1a2233" stroke="#7ec8e3" stroke-width="2"/>
  <text x="480" y="344" text-anchor="middle" font-family="'Wanted Sans Variable','Wanted Sans',-apple-system,sans-serif" font-size="11" fill="#7ec8e3">C1</text>
  <circle cx="550" cy="340" r="18" fill="#1a2233" stroke="#7ec8e3" stroke-width="2"/>
  <text x="550" y="344" text-anchor="middle" font-family="'Wanted Sans Variable','Wanted Sans',-apple-system,sans-serif" font-size="11" fill="#7ec8e3">C2</text>
  <circle cx="630" cy="340" r="18" fill="#1a2233" stroke="#7777cc" stroke-width="2"/>
  <text x="630" y="344" text-anchor="middle" font-family="'Wanted Sans Variable','Wanted Sans',-apple-system,sans-serif" font-size="11" fill="#7777cc">M1</text>
  <circle cx="710" cy="340" r="18" fill="#1a1a0a" stroke="#55c555" stroke-width="2"/>
  <text x="710" y="344" text-anchor="middle" font-family="'Wanted Sans Variable','Wanted Sans',-apple-system,sans-serif" font-size="11" fill="#55c555">F1'</text>
  <circle cx="790" cy="340" r="18" fill="#1a1a0a" stroke="#55c555" stroke-width="2"/>
  <text x="790" y="344" text-anchor="middle" font-family="'Wanted Sans Variable','Wanted Sans',-apple-system,sans-serif" font-size="11" fill="#55c555">F2'</text>

  <!-- Rebase arrows -->
  <line x1="498" y1="340" x2="530" y2="340" stroke="#555" stroke-width="1.5"/>
  <polygon points="530,335 540,340 530,345" fill="#555"/>
  <line x1="568" y1="340" x2="610" y2="340" stroke="#555" stroke-width="1.5"/>
  <polygon points="610,335 620,340 610,345" fill="#555"/>
  <line x1="648" y1="340" x2="690" y2="340" stroke="#555" stroke-width="1.5"/>
  <polygon points="690,335 700,340 690,345" fill="#555"/>
  <line x1="728" y1="340" x2="770" y2="340" stroke="#55c555" stroke-width="1.5"/>
  <polygon points="770,335 780,340 770,345" fill="#55c555"/>

  <!-- Bottom info -->
  <line x1="60" y1="412" x2="820" y2="412" stroke="#222" stroke-width="1"/>
  <text x="220" y="432" text-anchor="middle" font-family="'Wanted Sans Variable','Wanted Sans',-apple-system,sans-serif" font-size="12" fill="#888">원본 SHA 유지 | 부모 2개 | 이력 명확</text>
  <text x="670" y="432" text-anchor="middle" font-family="'Wanted Sans Variable','Wanted Sans',-apple-system,sans-serif" font-size="12" fill="#888">새 SHA 생성 | 부모 1개 | 직선 이력</text>
</svg>
