<svg xmlns="http://www.w3.org/2000/svg" width="880" height="360" viewBox="0 0 880 360" font-family="'Wanted Sans Variable','Wanted Sans',-apple-system,sans-serif">
  <defs>
    <marker id="jl1" viewBox="0 0 14 14" refX="12" refY="7" markerUnits="userSpaceOnUse" markerWidth="14" markerHeight="14" orient="auto">
      <path d="M 0 0 L 13 7 L 0 14 z" fill="#7ec8e3"/>
    </marker>
  </defs>
  <rect x="0" y="0" width="880" height="360" rx="12" fill="#0a0a0a"/>
  <text x="60" y="50" font-size="22" font-weight="700" fill="#e8e8e8">여러 언어, 하나의 바이트코드, 하나의 JVM</text>

  <!-- language boxes -->
  <rect x="50" y="90" width="150" height="56" rx="10" fill="#11151c" stroke="#7777cc" stroke-width="1.5"/>
  <text x="125" y="124" font-size="15" font-weight="600" fill="#e8e8e8" text-anchor="middle">Java</text>
  <rect x="222" y="90" width="150" height="56" rx="10" fill="#11151c" stroke="#7777cc" stroke-width="1.5"/>
  <text x="297" y="124" font-size="15" font-weight="600" fill="#e8e8e8" text-anchor="middle">Kotlin</text>
  <rect x="394" y="90" width="150" height="56" rx="10" fill="#11151c" stroke="#7777cc" stroke-width="1.5"/>
  <text x="469" y="124" font-size="15" font-weight="600" fill="#e8e8e8" text-anchor="middle">Scala</text>
  <rect x="566" y="90" width="120" height="56" rx="10" fill="#11151c" stroke="#7777cc" stroke-width="1.5"/>
  <text x="626" y="124" font-size="15" font-weight="600" fill="#e8e8e8" text-anchor="middle">Groovy</text>
  <rect x="708" y="90" width="122" height="56" rx="10" fill="#11151c" stroke="#7777cc" stroke-width="1.5"/>
  <text x="769" y="124" font-size="15" font-weight="600" fill="#e8e8e8" text-anchor="middle">Clojure</text>

  <!-- bytecode -->
  <rect x="240" y="200" width="400" height="56" rx="10" fill="#11151c" stroke="#7ec8e3" stroke-width="1.5"/>
  <text x="440" y="234" font-size="15" font-weight="600" fill="#7ec8e3" text-anchor="middle">.class 바이트코드 (공통 포맷)</text>

  <!-- JVM -->
  <rect x="180" y="290" width="520" height="56" rx="10" fill="#11151c" stroke="#55c555" stroke-width="1.5"/>
  <text x="440" y="324" font-size="15" font-weight="600" fill="#55c555" text-anchor="middle">JVM — GC · JIT · 메모리 모델을 공유</text>

  <line x1="125" y1="148" x2="320" y2="198" stroke="#7ec8e3" stroke-width="2" marker-end="url(#jl1)"/>
  <line x1="297" y1="148" x2="380" y2="198" stroke="#7ec8e3" stroke-width="2" marker-end="url(#jl1)"/>
  <line x1="469" y1="148" x2="460" y2="198" stroke="#7ec8e3" stroke-width="2" marker-end="url(#jl1)"/>
  <line x1="626" y1="148" x2="520" y2="198" stroke="#7ec8e3" stroke-width="2" marker-end="url(#jl1)"/>
  <line x1="769" y1="148" x2="580" y2="198" stroke="#7ec8e3" stroke-width="2" marker-end="url(#jl1)"/>
  <line x1="440" y1="258" x2="440" y2="288" stroke="#55c555" stroke-width="2.5" marker-end="url(#jl1)"/>
</svg>
