<svg xmlns="http://www.w3.org/2000/svg" width="880" height="300" viewBox="0 0 880 300" font-family="'Wanted Sans Variable','Wanted Sans',-apple-system,sans-serif">
  <rect x="0" y="0" width="880" height="300" rx="12" fill="#0a0a0a"/>
  <text x="60" y="46" font-size="22" font-weight="700" fill="#e8e8e8">JFR이 기록하는 이벤트 종류</text>

  <!-- row 1 -->
  <rect x="50" y="80" width="246" height="80" rx="8" fill="#0f1626" stroke="#3a4a6e" stroke-width="1"/>
  <text x="66" y="112" font-size="14" font-weight="600" fill="#7ec8e3">GC 이벤트</text>
  <text x="66" y="136" font-size="12" fill="#bbb">pause·힙 변화·수집 원인</text>

  <rect x="313" y="80" width="246" height="80" rx="8" fill="#0f1626" stroke="#3a4a6e" stroke-width="1"/>
  <text x="329" y="112" font-size="14" font-weight="600" fill="#55c555">객체 할당</text>
  <text x="329" y="136" font-size="12" fill="#bbb">큰 객체·TLAB 밖 할당 출처</text>

  <rect x="576" y="80" width="246" height="80" rx="8" fill="#0f1626" stroke="#3a4a6e" stroke-width="1"/>
  <text x="592" y="112" font-size="14" font-weight="600" fill="#e05555">락 경합</text>
  <text x="592" y="136" font-size="12" fill="#bbb">모니터 blocked·대기 시간</text>

  <!-- row 2 -->
  <rect x="50" y="180" width="246" height="80" rx="8" fill="#0f1626" stroke="#3a4a6e" stroke-width="1"/>
  <text x="66" y="212" font-size="14" font-weight="600" fill="#e0a055">메서드 샘플</text>
  <text x="66" y="236" font-size="12" fill="#bbb">CPU hot path·핫 메서드</text>

  <rect x="313" y="180" width="246" height="80" rx="8" fill="#0f1626" stroke="#3a4a6e" stroke-width="1"/>
  <text x="329" y="212" font-size="14" font-weight="600" fill="#7ec8e3">I/O</text>
  <text x="329" y="236" font-size="12" fill="#bbb">파일·소켓 읽기/쓰기 지연</text>

  <rect x="576" y="180" width="246" height="80" rx="8" fill="#0f1626" stroke="#3a4a6e" stroke-width="1"/>
  <text x="592" y="212" font-size="14" font-weight="600" fill="#7777cc">예외 · 스레드</text>
  <text x="592" y="236" font-size="12" fill="#bbb">예외 발생·스레드 상태 전이</text>
</svg>
