<svg xmlns="http://www.w3.org/2000/svg" width="880" height="300" viewBox="0 0 880 300" font-family="'Wanted Sans Variable','Wanted Sans',-apple-system,sans-serif">
  <rect x="0" y="0" width="880" height="300" rx="12" fill="#0a0a0a"/>
  <text x="60" y="46" font-size="22" font-weight="700" fill="#e8e8e8">JMC가 .jfr을 펼쳐 보여주는 뷰</text>

  <rect x="50" y="80" width="246" height="80" rx="8" fill="#0f1626" stroke="#3a4a6e" stroke-width="1"/>
  <text x="66" y="112" font-size="14" font-weight="600" fill="#55c555">Automated Analysis</text>
  <text x="66" y="136" font-size="12" fill="#bbb">규칙 기반 자동 진단 점수</text>

  <rect x="313" y="80" width="246" height="80" rx="8" fill="#0f1626" stroke="#3a4a6e" stroke-width="1"/>
  <text x="329" y="112" font-size="14" font-weight="600" fill="#e0a055">Method Profiling</text>
  <text x="329" y="136" font-size="12" fill="#bbb">플레임 그래프·핫 메서드</text>

  <rect x="576" y="80" width="246" height="80" rx="8" fill="#0f1626" stroke="#3a4a6e" stroke-width="1"/>
  <text x="592" y="112" font-size="14" font-weight="600" fill="#7ec8e3">Memory</text>
  <text x="592" y="136" font-size="12" fill="#bbb">할당 출처·TLAB 분석</text>

  <rect x="50" y="180" width="246" height="80" rx="8" fill="#0f1626" stroke="#3a4a6e" stroke-width="1"/>
  <text x="66" y="212" font-size="14" font-weight="600" fill="#e05555">Lock Instances</text>
  <text x="66" y="236" font-size="12" fill="#bbb">락별 경합 누적 시간</text>

  <rect x="313" y="180" width="246" height="80" rx="8" fill="#0f1626" stroke="#3a4a6e" stroke-width="1"/>
  <text x="329" y="212" font-size="14" font-weight="600" fill="#7ec8e3">Garbage Collections</text>
  <text x="329" y="236" font-size="12" fill="#bbb">pause·원인 타임라인</text>

  <rect x="576" y="180" width="246" height="80" rx="8" fill="#0f1626" stroke="#3a4a6e" stroke-width="1"/>
  <text x="592" y="212" font-size="14" font-weight="600" fill="#7777cc">Threads</text>
  <text x="592" y="236" font-size="12" fill="#bbb">스레드별 활동·상태 전이</text>
</svg>
