<svg xmlns="http://www.w3.org/2000/svg" width="880" height="420" viewBox="0 0 880 420" font-family="'Wanted Sans Variable','Wanted Sans',-apple-system,sans-serif">
  <rect width="880" height="420" rx="12" fill="#0a0a0a"/>
  <text x="50" y="52" font-size="22" font-weight="700" fill="#e8e8e8">프로덕션 준비 — 6개 영역 점검</text>
  <text x="50" y="80" font-size="14" fill="#888">운영에 올리기 전 빠짐없이 확인할 범주들</text>

  <rect x="50" y="105" width="250" height="130" rx="10" fill="#16181d" stroke="#55c555" stroke-width="1.5"/>
  <text x="68" y="133" font-size="15" font-weight="600" fill="#55c555">신뢰성</text>
  <text x="68" y="159" font-size="12" fill="#ffffff">레플리카 ≥ 2 · PDB</text>
  <text x="68" y="181" font-size="12" fill="#ffffff">probe 3종 · 롤링 업데이트</text>
  <text x="68" y="203" font-size="12" fill="#ffffff">graceful shutdown</text>
  <text x="68" y="225" font-size="12" fill="#9aa4b8">anti-affinity 분산</text>

  <rect x="315" y="105" width="250" height="130" rx="10" fill="#16181d" stroke="#7ec8e3" stroke-width="1.5"/>
  <text x="333" y="133" font-size="15" font-weight="600" fill="#7ec8e3">리소스</text>
  <text x="333" y="159" font-size="12" fill="#ffffff">requests · limits 설정</text>
  <text x="333" y="181" font-size="12" fill="#ffffff">QoS 클래스 의도대로</text>
  <text x="333" y="203" font-size="12" fill="#ffffff">HPA · 오토스케일</text>
  <text x="333" y="225" font-size="12" fill="#9aa4b8">ResourceQuota · LimitRange</text>

  <rect x="580" y="105" width="250" height="130" rx="10" fill="#16181d" stroke="#7777cc" stroke-width="1.5"/>
  <text x="598" y="133" font-size="15" font-weight="600" fill="#7777cc">보안</text>
  <text x="598" y="159" font-size="12" fill="#ffffff">non-root · securityContext</text>
  <text x="598" y="181" font-size="12" fill="#ffffff">RBAC 최소 권한</text>
  <text x="598" y="203" font-size="12" fill="#ffffff">시크릿 관리 · 이미지 스캔</text>
  <text x="598" y="225" font-size="12" fill="#9aa4b8">NetworkPolicy · PSA</text>

  <rect x="50" y="250" width="250" height="130" rx="10" fill="#16181d" stroke="#e0a555" stroke-width="1.5"/>
  <text x="68" y="278" font-size="15" font-weight="600" fill="#e0a555">관측성</text>
  <text x="68" y="304" font-size="12" fill="#ffffff">메트릭 · 대시보드</text>
  <text x="68" y="326" font-size="12" fill="#ffffff">중앙 로깅 · 알림</text>
  <text x="68" y="348" font-size="12" fill="#ffffff">분산 추적</text>
  <text x="68" y="370" font-size="12" fill="#9aa4b8">SLO · 핵심 지표 정의</text>

  <rect x="315" y="250" width="250" height="130" rx="10" fill="#16181d" stroke="#55c5b5" stroke-width="1.5"/>
  <text x="333" y="278" font-size="15" font-weight="600" fill="#55c5b5">네트워킹</text>
  <text x="333" y="304" font-size="12" fill="#ffffff">Service · Ingress · TLS</text>
  <text x="333" y="326" font-size="12" fill="#ffffff">DNS 정책 확인</text>
  <text x="333" y="348" font-size="12" fill="#ffffff">NetworkPolicy 격리</text>
  <text x="333" y="370" font-size="12" fill="#9aa4b8">외부 도달성 검증</text>

  <rect x="580" y="250" width="250" height="130" rx="10" fill="#16181d" stroke="#c578c8" stroke-width="1.5"/>
  <text x="598" y="278" font-size="15" font-weight="600" fill="#c578c8">운영</text>
  <text x="598" y="304" font-size="12" fill="#ffffff">GitOps · 선언적 배포</text>
  <text x="598" y="326" font-size="12" fill="#ffffff">etcd 백업 · DR</text>
  <text x="598" y="348" font-size="12" fill="#ffffff">업그레이드 절차</text>
  <text x="598" y="370" font-size="12" fill="#9aa4b8">런북 · 온콜 체계</text>
</svg>
