<svg xmlns="http://www.w3.org/2000/svg" width="880" height="600" viewBox="0 0 880 600">
  <defs>
    <style>text { font-family: 'Wanted Sans Variable','Wanted Sans',-apple-system,sans-serif; }
    .mono { font-family: 'JetBrains Mono','Menlo',monospace; }</style>
  </defs>
  <rect width="880" height="600" fill="#0a0a0a" rx="12"/>

  <text x="440" y="46" text-anchor="middle" font-size="22" font-weight="700" fill="#e8e8e8">V13 부분 적용 사건 — 9개 ALTER 가 도중에 멈췄을 때</text>
  <text x="440" y="68" text-anchor="middle" font-size="13" fill="#888">한 번에 commit 되어야 하는 트랜잭션이 어딘가에서 끊겼다</text>

  <!-- 9 ALTER table column -->
  <rect x="60" y="100" width="380" height="450" rx="8" fill="#0f0f0f" stroke="#333" stroke-width="1"/>
  <text x="250" y="128" text-anchor="middle" font-size="14" font-weight="700" fill="#e8e8e8">V13__add_project_code.sql</text>
  <text x="250" y="148" text-anchor="middle" font-size="11" fill="#888">9개 ALTER TABLE — 첫 시도 결과</text>
  <line x1="80" y1="160" x2="420" y2="160" stroke="#222"/>

  <!-- 7 succeeded -->
  <g>
    <rect x="80" y="178" width="340" height="32" rx="4" fill="#0f1a0f" stroke="#55c555" stroke-width="1"/>
    <circle cx="100" cy="194" r="6" fill="#55c555"/>
    <text x="120" y="199" class="mono" font-size="11" fill="#aaa">erd_project</text>
    <text x="404" y="199" text-anchor="end" font-size="10" fill="#55c555">commit ✓</text>

    <rect x="80" y="218" width="340" height="32" rx="4" fill="#0f1a0f" stroke="#55c555" stroke-width="1"/>
    <circle cx="100" cy="234" r="6" fill="#55c555"/>
    <text x="120" y="239" class="mono" font-size="11" fill="#aaa">erd_project_member</text>
    <text x="404" y="239" text-anchor="end" font-size="10" fill="#55c555">commit ✓</text>

    <rect x="80" y="258" width="340" height="32" rx="4" fill="#0f1a0f" stroke="#55c555" stroke-width="1"/>
    <circle cx="100" cy="274" r="6" fill="#55c555"/>
    <text x="120" y="279" class="mono" font-size="11" fill="#aaa">erd_business_unit</text>
    <text x="404" y="279" text-anchor="end" font-size="10" fill="#55c555">commit ✓</text>

    <rect x="80" y="298" width="340" height="32" rx="4" fill="#0f1a0f" stroke="#55c555" stroke-width="1"/>
    <circle cx="100" cy="314" r="6" fill="#55c555"/>
    <text x="120" y="319" class="mono" font-size="11" fill="#aaa">erd_diagram</text>
    <text x="404" y="319" text-anchor="end" font-size="10" fill="#55c555">commit ✓</text>

    <rect x="80" y="338" width="340" height="32" rx="4" fill="#0f1a0f" stroke="#55c555" stroke-width="1"/>
    <circle cx="100" cy="354" r="6" fill="#55c555"/>
    <text x="120" y="359" class="mono" font-size="11" fill="#aaa">erd_table</text>
    <text x="404" y="359" text-anchor="end" font-size="10" fill="#55c555">commit ✓</text>

    <rect x="80" y="378" width="340" height="32" rx="4" fill="#0f1a0f" stroke="#55c555" stroke-width="1"/>
    <circle cx="100" cy="394" r="6" fill="#55c555"/>
    <text x="120" y="399" class="mono" font-size="11" fill="#aaa">erd_column</text>
    <text x="404" y="399" text-anchor="end" font-size="10" fill="#55c555">commit ✓</text>

    <rect x="80" y="418" width="340" height="32" rx="4" fill="#0f1a0f" stroke="#55c555" stroke-width="1"/>
    <circle cx="100" cy="434" r="6" fill="#55c555"/>
    <text x="120" y="439" class="mono" font-size="11" fill="#aaa">erd_relation</text>
    <text x="404" y="439" text-anchor="end" font-size="10" fill="#55c555">commit ✓</text>
  </g>

  <!-- 2 not yet -->
  <rect x="80" y="458" width="340" height="32" rx="4" fill="#1a0f0f" stroke="#e05555" stroke-width="1.5"/>
  <circle cx="100" cy="474" r="6" fill="#e05555"/>
  <text x="120" y="479" class="mono" font-size="11" fill="#aaa">erd_tag</text>
  <text x="404" y="479" text-anchor="end" font-size="10" fill="#e05555">실패 ✗</text>

  <rect x="80" y="498" width="340" height="32" rx="4" fill="#1a0f0f" stroke="#444" stroke-width="1" stroke-dasharray="4,3"/>
  <circle cx="100" cy="514" r="6" fill="#444"/>
  <text x="120" y="519" class="mono" font-size="11" fill="#666">erd_project_system_column_default</text>
  <text x="404" y="519" text-anchor="end" font-size="10" fill="#666">미실행</text>

  <!-- Right: error + retry -->
  <rect x="470" y="100" width="350" height="200" rx="8" fill="#1a0f0f" stroke="#e05555" stroke-width="2"/>
  <text x="490" y="128" font-size="14" font-weight="700" fill="#e05555">두 번째 시도 — 즉시 실패</text>
  <text x="490" y="148" font-size="11" fill="#888">Spring Boot 부팅 → V13 재실행</text>
  <line x1="490" y1="160" x2="800" y2="160" stroke="#222"/>

  <rect x="490" y="174" width="310" height="110" rx="4" fill="#000" stroke="#222"/>
  <text x="498" y="192" class="mono" font-size="10" fill="#e05555">SQL State: 42701</text>
  <text x="498" y="208" class="mono" font-size="10" fill="#aaa">Message  : column "project_code"</text>
  <text x="498" y="222" class="mono" font-size="10" fill="#aaa">           of relation "erd_relation"</text>
  <text x="498" y="236" class="mono" font-size="10" fill="#aaa">           already exists</text>
  <text x="498" y="252" class="mono" font-size="10" fill="#888">Line     : 38</text>
  <text x="498" y="268" class="mono" font-size="10" fill="#aaa">Statement: ALTER TABLE erd_relation</text>
  <text x="498" y="282" class="mono" font-size="10" fill="#aaa">           ADD COLUMN project_code ...</text>

  <!-- Right: idempotent fix -->
  <rect x="470" y="320" width="350" height="230" rx="8" fill="#0f1a0f" stroke="#55c555" stroke-width="2"/>
  <text x="490" y="348" font-size="14" font-weight="700" fill="#55c555">fix — IF NOT EXISTS 한 줄</text>
  <text x="490" y="368" font-size="11" fill="#888">이미 적용된 컬럼은 skip, 누락만 마저 적용</text>
  <line x1="490" y1="380" x2="800" y2="380" stroke="#222"/>

  <rect x="490" y="394" width="310" height="80" rx="4" fill="#000" stroke="#222"/>
  <text x="498" y="412" class="mono" font-size="10" fill="#7ec8e3">ALTER TABLE erd_relation</text>
  <text x="498" y="428" class="mono" font-size="10" fill="#55c555">  ADD COLUMN IF NOT EXISTS</text>
  <text x="498" y="444" class="mono" font-size="10" fill="#aaa">  project_code VARCHAR(100)</text>
  <text x="498" y="460" class="mono" font-size="10" fill="#aaa">  NOT NULL DEFAULT 'mebrix';</text>

  <text x="490" y="498" font-size="11" fill="#aaa">+ 운영 회복 가이드:</text>
  <text x="498" y="516" class="mono" font-size="10" fill="#888">DELETE FROM flyway_schema_history</text>
  <text x="498" y="530" class="mono" font-size="10" fill="#888"> WHERE version='13' AND success=false;</text>

  <text x="440" y="582" text-anchor="middle" font-size="11" fill="#444">PALDYN · V13 부분 적용 사건</text>
</svg>
