<svg xmlns="http://www.w3.org/2000/svg" width="880" viewBox="0 0 880 500" font-family="'Wanted Sans Variable','Wanted Sans',-apple-system,sans-serif">
  <rect width="880" height="500" rx="12" fill="#0a0a0a"/>

  <!-- Title -->
  <text x="440" y="46" text-anchor="middle" fill="#e8e8e8" font-size="22" font-weight="700" xml:space="preserve">다층 신경망 (MLP) 기본 구조</text>
  <text x="440" y="70" text-anchor="middle" fill="#888" font-size="13" xml:space="preserve">입력층 → 은닉층(들) → 출력층으로 이어지는 완전 연결 피드포워드 네트워크</text>

  <!-- Layer labels -->
  <text x="110" y="108" text-anchor="middle" fill="#7ec8e3" font-size="13" font-weight="600" xml:space="preserve">입력층</text>
  <text x="110" y="124" text-anchor="middle" fill="#888" font-size="11" xml:space="preserve">Input Layer</text>

  <text x="330" y="108" text-anchor="middle" fill="#7777cc" font-size="13" font-weight="600" xml:space="preserve">은닉층 1</text>
  <text x="330" y="124" text-anchor="middle" fill="#888" font-size="11" xml:space="preserve">Hidden Layer 1</text>

  <text x="550" y="108" text-anchor="middle" fill="#7777cc" font-size="13" font-weight="600" xml:space="preserve">은닉층 2</text>
  <text x="550" y="124" text-anchor="middle" fill="#888" font-size="11" xml:space="preserve">Hidden Layer 2</text>

  <text x="770" y="108" text-anchor="middle" fill="#55c555" font-size="13" font-weight="600" xml:space="preserve">출력층</text>
  <text x="770" y="124" text-anchor="middle" fill="#888" font-size="11" xml:space="preserve">Output Layer</text>

  <!-- Input layer nodes (4 nodes) -->
  <circle cx="110" cy="175" r="22" fill="#0d1520" stroke="#7ec8e3" stroke-width="2"/>
  <text x="110" y="180" text-anchor="middle" fill="#7ec8e3" font-size="12" xml:space="preserve">x₁</text>

  <circle cx="110" cy="235" r="22" fill="#0d1520" stroke="#7ec8e3" stroke-width="2"/>
  <text x="110" y="240" text-anchor="middle" fill="#7ec8e3" font-size="12" xml:space="preserve">x₂</text>

  <circle cx="110" cy="295" r="22" fill="#0d1520" stroke="#7ec8e3" stroke-width="2"/>
  <text x="110" y="300" text-anchor="middle" fill="#7ec8e3" font-size="12" xml:space="preserve">x₃</text>

  <circle cx="110" cy="355" r="22" fill="#0d1520" stroke="#7ec8e3" stroke-width="2"/>
  <text x="110" y="360" text-anchor="middle" fill="#7ec8e3" font-size="12" xml:space="preserve">x₄</text>

  <!-- Hidden layer 1 nodes (5 nodes) -->
  <circle cx="330" cy="155" r="22" fill="#0d0a20" stroke="#7777cc" stroke-width="2"/>
  <text x="330" y="160" text-anchor="middle" fill="#7777cc" font-size="11" xml:space="preserve">h₁</text>

  <circle cx="330" cy="215" r="22" fill="#0d0a20" stroke="#7777cc" stroke-width="2"/>
  <text x="330" y="220" text-anchor="middle" fill="#7777cc" font-size="11" xml:space="preserve">h₂</text>

  <circle cx="330" cy="275" r="22" fill="#0d0a20" stroke="#7777cc" stroke-width="2"/>
  <text x="330" y="280" text-anchor="middle" fill="#7777cc" font-size="11" xml:space="preserve">h₃</text>

  <circle cx="330" cy="335" r="22" fill="#0d0a20" stroke="#7777cc" stroke-width="2"/>
  <text x="330" y="340" text-anchor="middle" fill="#7777cc" font-size="11" xml:space="preserve">h₄</text>

  <circle cx="330" cy="395" r="22" fill="#0d0a20" stroke="#7777cc" stroke-width="2"/>
  <text x="330" y="400" text-anchor="middle" fill="#7777cc" font-size="11" xml:space="preserve">h₅</text>

  <!-- Hidden layer 2 nodes (4 nodes) -->
  <circle cx="550" cy="175" r="22" fill="#0d0a20" stroke="#7777cc" stroke-width="2"/>
  <text x="550" y="180" text-anchor="middle" fill="#7777cc" font-size="11" xml:space="preserve">h₁</text>

  <circle cx="550" cy="245" r="22" fill="#0d0a20" stroke="#7777cc" stroke-width="2"/>
  <text x="550" y="250" text-anchor="middle" fill="#7777cc" font-size="11" xml:space="preserve">h₂</text>

  <circle cx="550" cy="315" r="22" fill="#0d0a20" stroke="#7777cc" stroke-width="2"/>
  <text x="550" y="320" text-anchor="middle" fill="#7777cc" font-size="11" xml:space="preserve">h₃</text>

  <circle cx="550" cy="385" r="22" fill="#0d0a20" stroke="#7777cc" stroke-width="2"/>
  <text x="550" y="390" text-anchor="middle" fill="#7777cc" font-size="11" xml:space="preserve">h₄</text>

  <!-- Output layer nodes (3 nodes) -->
  <circle cx="770" cy="205" r="22" fill="#0c1a0c" stroke="#55c555" stroke-width="2"/>
  <text x="770" y="210" text-anchor="middle" fill="#55c555" font-size="11" xml:space="preserve">y₁</text>

  <circle cx="770" cy="285" r="22" fill="#0c1a0c" stroke="#55c555" stroke-width="2"/>
  <text x="770" y="290" text-anchor="middle" fill="#55c555" font-size="11" xml:space="preserve">y₂</text>

  <circle cx="770" cy="365" r="22" fill="#0c1a0c" stroke="#55c555" stroke-width="2"/>
  <text x="770" y="370" text-anchor="middle" fill="#55c555" font-size="11" xml:space="preserve">y₃</text>

  <!-- Connections: Input → Hidden1 (subset for clarity) -->
  <line x1="132" y1="175" x2="308" y2="155" stroke="#1a1a2a" stroke-width="1"/>
  <line x1="132" y1="175" x2="308" y2="215" stroke="#1a1a2a" stroke-width="1"/>
  <line x1="132" y1="175" x2="308" y2="275" stroke="#1a1a2a" stroke-width="1"/>
  <line x1="132" y1="175" x2="308" y2="335" stroke="#1a1a2a" stroke-width="1"/>
  <line x1="132" y1="175" x2="308" y2="395" stroke="#1a1a2a" stroke-width="1"/>

  <line x1="132" y1="235" x2="308" y2="155" stroke="#1a1a2a" stroke-width="1"/>
  <line x1="132" y1="235" x2="308" y2="215" stroke="#1a1a2a" stroke-width="1"/>
  <line x1="132" y1="235" x2="308" y2="275" stroke="#1a1a2a" stroke-width="1"/>
  <line x1="132" y1="235" x2="308" y2="335" stroke="#1a1a2a" stroke-width="1"/>
  <line x1="132" y1="235" x2="308" y2="395" stroke="#1a1a2a" stroke-width="1"/>

  <line x1="132" y1="295" x2="308" y2="155" stroke="#1a1a2a" stroke-width="1"/>
  <line x1="132" y1="295" x2="308" y2="215" stroke="#1a1a2a" stroke-width="1"/>
  <line x1="132" y1="295" x2="308" y2="275" stroke="#1a1a2a" stroke-width="1"/>
  <line x1="132" y1="295" x2="308" y2="335" stroke="#1a1a2a" stroke-width="1"/>
  <line x1="132" y1="295" x2="308" y2="395" stroke="#1a1a2a" stroke-width="1"/>

  <line x1="132" y1="355" x2="308" y2="155" stroke="#1a1a2a" stroke-width="1"/>
  <line x1="132" y1="355" x2="308" y2="215" stroke="#1a1a2a" stroke-width="1"/>
  <line x1="132" y1="355" x2="308" y2="275" stroke="#1a1a2a" stroke-width="1"/>
  <line x1="132" y1="355" x2="308" y2="335" stroke="#1a1a2a" stroke-width="1"/>
  <line x1="132" y1="355" x2="308" y2="395" stroke="#1a1a2a" stroke-width="1"/>

  <!-- Connections: Hidden1 → Hidden2 -->
  <line x1="352" y1="155" x2="528" y2="175" stroke="#1a1a2a" stroke-width="1"/>
  <line x1="352" y1="155" x2="528" y2="245" stroke="#1a1a2a" stroke-width="1"/>
  <line x1="352" y1="155" x2="528" y2="315" stroke="#1a1a2a" stroke-width="1"/>
  <line x1="352" y1="155" x2="528" y2="385" stroke="#1a1a2a" stroke-width="1"/>
  <line x1="352" y1="215" x2="528" y2="175" stroke="#1a1a2a" stroke-width="1"/>
  <line x1="352" y1="215" x2="528" y2="245" stroke="#1a1a2a" stroke-width="1"/>
  <line x1="352" y1="215" x2="528" y2="315" stroke="#1a1a2a" stroke-width="1"/>
  <line x1="352" y1="215" x2="528" y2="385" stroke="#1a1a2a" stroke-width="1"/>
  <line x1="352" y1="275" x2="528" y2="175" stroke="#1a1a2a" stroke-width="1"/>
  <line x1="352" y1="275" x2="528" y2="245" stroke="#1a1a2a" stroke-width="1"/>
  <line x1="352" y1="275" x2="528" y2="315" stroke="#1a1a2a" stroke-width="1"/>
  <line x1="352" y1="275" x2="528" y2="385" stroke="#1a1a2a" stroke-width="1"/>
  <line x1="352" y1="335" x2="528" y2="175" stroke="#1a1a2a" stroke-width="1"/>
  <line x1="352" y1="335" x2="528" y2="245" stroke="#1a1a2a" stroke-width="1"/>
  <line x1="352" y1="335" x2="528" y2="315" stroke="#1a1a2a" stroke-width="1"/>
  <line x1="352" y1="335" x2="528" y2="385" stroke="#1a1a2a" stroke-width="1"/>
  <line x1="352" y1="395" x2="528" y2="175" stroke="#1a1a2a" stroke-width="1"/>
  <line x1="352" y1="395" x2="528" y2="245" stroke="#1a1a2a" stroke-width="1"/>
  <line x1="352" y1="395" x2="528" y2="315" stroke="#1a1a2a" stroke-width="1"/>
  <line x1="352" y1="395" x2="528" y2="385" stroke="#1a1a2a" stroke-width="1"/>

  <!-- Connections: Hidden2 → Output -->
  <line x1="572" y1="175" x2="748" y2="205" stroke="#1a2a1a" stroke-width="1"/>
  <line x1="572" y1="175" x2="748" y2="285" stroke="#1a2a1a" stroke-width="1"/>
  <line x1="572" y1="175" x2="748" y2="365" stroke="#1a2a1a" stroke-width="1"/>
  <line x1="572" y1="245" x2="748" y2="205" stroke="#1a2a1a" stroke-width="1"/>
  <line x1="572" y1="245" x2="748" y2="285" stroke="#1a2a1a" stroke-width="1"/>
  <line x1="572" y1="245" x2="748" y2="365" stroke="#1a2a1a" stroke-width="1"/>
  <line x1="572" y1="315" x2="748" y2="205" stroke="#1a2a1a" stroke-width="1"/>
  <line x1="572" y1="315" x2="748" y2="285" stroke="#1a2a1a" stroke-width="1"/>
  <line x1="572" y1="315" x2="748" y2="365" stroke="#1a2a1a" stroke-width="1"/>
  <line x1="572" y1="385" x2="748" y2="205" stroke="#1a2a1a" stroke-width="1"/>
  <line x1="572" y1="385" x2="748" y2="285" stroke="#1a2a1a" stroke-width="1"/>
  <line x1="572" y1="385" x2="748" y2="365" stroke="#1a2a1a" stroke-width="1"/>

  <!-- Parameter count info bar -->
  <rect x="60" y="430" width="760" height="34" rx="6" fill="#111" stroke="#1e1e1e"/>
  <text x="440" y="443" text-anchor="middle" fill="#888" font-size="11" xml:space="preserve">파라미터 수: 입→은1 (4×5+5=25) + 은1→은2 (5×4+4=24) + 은2→출 (4×3+3=15) = 64개</text>
  <text x="440" y="459" text-anchor="middle" fill="#55c555" font-size="11" xml:space="preserve">W(l) ∈ ℝ^(n_out × n_in)  b(l) ∈ ℝ^n_out  →  총 파라미터 = Σ (n_out × n_in + n_out)</text>

  <!-- Footer -->
</svg>
