<svg xmlns="http://www.w3.org/2000/svg" width="880" height="430" viewBox="0 0 880 430">
  <rect width="880" height="430" fill="#0a0a0a" rx="12"/>

  <text x="440" y="44" font-family="'Wanted Sans Variable','Wanted Sans',-apple-system,sans-serif" font-size="22" font-weight="700" fill="#e8e8e8" text-anchor="middle">Grid 셀 병합 — 적용 전/후 비교</text>
  <text x="440" y="70" font-family="'Wanted Sans Variable','Wanted Sans',-apple-system,sans-serif" font-size="16" font-weight="600" fill="#888" text-anchor="middle">mergeType · mergeRule 설정으로 동일 값 자동 병합</text>

  <!-- LEFT: Before merge -->
  <text x="210" y="96" font-family="'Wanted Sans Variable','Wanted Sans',-apple-system,sans-serif" font-size="14" font-weight="600" fill="#888" text-anchor="middle">병합 전</text>
  <rect x="50" y="106" width="330" height="290" fill="#111827" rx="8" stroke="#3a4a6e"/>

  <!-- Head -->
  <rect x="50" y="106" width="330" height="36" fill="#1a2744" rx="8"/>
  <rect x="50" y="122" width="330" height="20" fill="#1a2744"/>
  <text x="122" y="128" font-family="'Wanted Sans Variable','Wanted Sans',-apple-system,sans-serif" font-size="12" font-weight="600" fill="#7ec8e3" text-anchor="middle">부서</text>
  <text x="270" y="128" font-family="'Wanted Sans Variable','Wanted Sans',-apple-system,sans-serif" font-size="12" font-weight="600" fill="#7ec8e3" text-anchor="middle">성명</text>
  <line x1="50" y1="142" x2="380" y2="142" stroke="#253555" stroke-width="1"/>
  <line x1="192" y1="106" x2="192" y2="396" stroke="#1a2030" stroke-width="1"/>

  <!-- Body rows: no merge -->
  <rect x="50" y="142" width="330" height="36" fill="#0e1420"/>
  <text x="122" y="165" font-family="'Wanted Sans Variable','Wanted Sans',-apple-system,sans-serif" font-size="13" fill="#e8e8e8" text-anchor="middle">개발팀</text>
  <text x="270" y="165" font-family="'Wanted Sans Variable','Wanted Sans',-apple-system,sans-serif" font-size="13" fill="#e8e8e8" text-anchor="middle">홍길동</text>
  <line x1="50" y1="178" x2="380" y2="178" stroke="#1a2030" stroke-width="1"/>

  <rect x="50" y="178" width="330" height="36" fill="#111827"/>
  <text x="122" y="201" font-family="'Wanted Sans Variable','Wanted Sans',-apple-system,sans-serif" font-size="13" fill="#e8e8e8" text-anchor="middle">개발팀</text>
  <text x="270" y="201" font-family="'Wanted Sans Variable','Wanted Sans',-apple-system,sans-serif" font-size="13" fill="#e8e8e8" text-anchor="middle">이민수</text>
  <line x1="50" y1="214" x2="380" y2="214" stroke="#1a2030" stroke-width="1"/>

  <rect x="50" y="214" width="330" height="36" fill="#0e1420"/>
  <text x="122" y="237" font-family="'Wanted Sans Variable','Wanted Sans',-apple-system,sans-serif" font-size="13" fill="#e8e8e8" text-anchor="middle">개발팀</text>
  <text x="270" y="237" font-family="'Wanted Sans Variable','Wanted Sans',-apple-system,sans-serif" font-size="13" fill="#e8e8e8" text-anchor="middle">박지훈</text>
  <line x1="50" y1="250" x2="380" y2="250" stroke="#1a2030" stroke-width="1"/>

  <rect x="50" y="250" width="330" height="36" fill="#111827"/>
  <text x="122" y="273" font-family="'Wanted Sans Variable','Wanted Sans',-apple-system,sans-serif" font-size="13" fill="#e8e8e8" text-anchor="middle">기획팀</text>
  <text x="270" y="273" font-family="'Wanted Sans Variable','Wanted Sans',-apple-system,sans-serif" font-size="13" fill="#e8e8e8" text-anchor="middle">김철수</text>
  <line x1="50" y1="286" x2="380" y2="286" stroke="#1a2030" stroke-width="1"/>

  <rect x="50" y="286" width="330" height="36" fill="#0e1420"/>
  <text x="122" y="309" font-family="'Wanted Sans Variable','Wanted Sans',-apple-system,sans-serif" font-size="13" fill="#e8e8e8" text-anchor="middle">기획팀</text>
  <text x="270" y="309" font-family="'Wanted Sans Variable','Wanted Sans',-apple-system,sans-serif" font-size="13" fill="#e8e8e8" text-anchor="middle">최영진</text>
  <line x1="50" y1="322" x2="380" y2="322" stroke="#1a2030" stroke-width="1"/>

  <rect x="50" y="322" width="330" height="36" fill="#111827"/>
  <text x="122" y="345" font-family="'Wanted Sans Variable','Wanted Sans',-apple-system,sans-serif" font-size="13" fill="#e8e8e8" text-anchor="middle">영업팀</text>
  <text x="270" y="345" font-family="'Wanted Sans Variable','Wanted Sans',-apple-system,sans-serif" font-size="13" fill="#e8e8e8" text-anchor="middle">정수진</text>
  <line x1="50" y1="358" x2="380" y2="358" stroke="#1a2030" stroke-width="1"/>

  <rect x="50" y="358" width="330" height="38" fill="#0e1420"/>
  <text x="122" y="382" font-family="'Wanted Sans Variable','Wanted Sans',-apple-system,sans-serif" font-size="13" fill="#e8e8e8" text-anchor="middle">영업팀</text>
  <text x="270" y="382" font-family="'Wanted Sans Variable','Wanted Sans',-apple-system,sans-serif" font-size="13" fill="#e8e8e8" text-anchor="middle">윤기범</text>

  <!-- Arrow between left and right -->
  <polygon points="388,205 414,205 414,196 436,215 414,234 414,225 388,225" fill="#1e2433"/>
  <polygon points="390,207 416,207 416,198 434,215 416,232 416,223 390,223" fill="#55c555"/>
  <text x="413" y="247" font-family="'Wanted Sans Variable','Wanted Sans',-apple-system,sans-serif" font-size="11" fill="#55c555" text-anchor="middle">merge</text>

  <!-- RIGHT: After merge -->
  <text x="660" y="96" font-family="'Wanted Sans Variable','Wanted Sans',-apple-system,sans-serif" font-size="14" font-weight="600" fill="#55c555" text-anchor="middle">병합 후 (mergeType="merge")</text>
  <rect x="450" y="106" width="380" height="290" fill="#111827" rx="8" stroke="#3a4a6e"/>

  <!-- Head -->
  <rect x="450" y="106" width="380" height="36" fill="#1a2744" rx="8"/>
  <rect x="450" y="122" width="380" height="20" fill="#1a2744"/>
  <text x="545" y="128" font-family="'Wanted Sans Variable','Wanted Sans',-apple-system,sans-serif" font-size="12" font-weight="600" fill="#7ec8e3" text-anchor="middle">부서</text>
  <text x="720" y="128" font-family="'Wanted Sans Variable','Wanted Sans',-apple-system,sans-serif" font-size="12" font-weight="600" fill="#7ec8e3" text-anchor="middle">성명</text>
  <line x1="450" y1="142" x2="830" y2="142" stroke="#253555" stroke-width="1"/>
  <line x1="635" y1="106" x2="635" y2="396" stroke="#1a2030" stroke-width="1"/>

  <!-- Merged "개발팀" spans rows 1-3 -->
  <rect x="450" y="142" width="185" height="108" fill="#0e1420"/>
  <text x="542" y="201" font-family="'Wanted Sans Variable','Wanted Sans',-apple-system,sans-serif" font-size="13" font-weight="700" fill="#7ec8e3" text-anchor="middle">개발팀</text>
  <line x1="450" y1="178" x2="636" y2="178" stroke="#1a2030" stroke-width="2" stroke-dasharray="2,2"/>
  <line x1="450" y1="214" x2="636" y2="214" stroke="#1a2030" stroke-width="2" stroke-dasharray="2,2"/>
  <line x1="450" y1="250" x2="830" y2="250" stroke="#1a2030" stroke-width="1"/>

  <!-- 성명 cells for 개발팀 -->
  <rect x="635" y="142" width="195" height="36" fill="#0e1420"/>
  <text x="732" y="165" font-family="'Wanted Sans Variable','Wanted Sans',-apple-system,sans-serif" font-size="13" fill="#e8e8e8" text-anchor="middle">홍길동</text>
  <line x1="635" y1="178" x2="830" y2="178" stroke="#1a2030" stroke-width="1"/>
  <rect x="635" y="178" width="195" height="36" fill="#111827"/>
  <text x="732" y="201" font-family="'Wanted Sans Variable','Wanted Sans',-apple-system,sans-serif" font-size="13" fill="#e8e8e8" text-anchor="middle">이민수</text>
  <line x1="635" y1="214" x2="830" y2="214" stroke="#1a2030" stroke-width="1"/>
  <rect x="635" y="214" width="195" height="36" fill="#0e1420"/>
  <text x="732" y="237" font-family="'Wanted Sans Variable','Wanted Sans',-apple-system,sans-serif" font-size="13" fill="#e8e8e8" text-anchor="middle">박지훈</text>

  <!-- Merged "기획팀" spans rows 4-5 -->
  <rect x="450" y="250" width="185" height="72" fill="#111827"/>
  <text x="542" y="291" font-family="'Wanted Sans Variable','Wanted Sans',-apple-system,sans-serif" font-size="13" font-weight="700" fill="#7ec8e3" text-anchor="middle">기획팀</text>
  <line x1="450" y1="286" x2="636" y2="286" stroke="#1a2030" stroke-width="2" stroke-dasharray="2,2"/>
  <line x1="450" y1="322" x2="830" y2="322" stroke="#1a2030" stroke-width="1"/>
  <rect x="635" y="250" width="195" height="36" fill="#111827"/>
  <text x="732" y="273" font-family="'Wanted Sans Variable','Wanted Sans',-apple-system,sans-serif" font-size="13" fill="#e8e8e8" text-anchor="middle">김철수</text>
  <line x1="635" y1="286" x2="830" y2="286" stroke="#1a2030" stroke-width="1"/>
  <rect x="635" y="286" width="195" height="36" fill="#0e1420"/>
  <text x="732" y="309" font-family="'Wanted Sans Variable','Wanted Sans',-apple-system,sans-serif" font-size="13" fill="#e8e8e8" text-anchor="middle">최영진</text>

  <!-- Merged "영업팀" spans rows 6-7 -->
  <rect x="450" y="322" width="185" height="74" fill="#0e1420"/>
  <text x="542" y="362" font-family="'Wanted Sans Variable','Wanted Sans',-apple-system,sans-serif" font-size="13" font-weight="700" fill="#7ec8e3" text-anchor="middle">영업팀</text>
  <line x1="450" y1="358" x2="636" y2="358" stroke="#1a2030" stroke-width="2" stroke-dasharray="2,2"/>
  <rect x="635" y="322" width="195" height="36" fill="#111827"/>
  <text x="732" y="345" font-family="'Wanted Sans Variable','Wanted Sans',-apple-system,sans-serif" font-size="13" fill="#e8e8e8" text-anchor="middle">정수진</text>
  <line x1="635" y1="358" x2="830" y2="358" stroke="#1a2030" stroke-width="1"/>
  <rect x="635" y="358" width="195" height="38" fill="#0e1420"/>
  <text x="732" y="382" font-family="'Wanted Sans Variable','Wanted Sans',-apple-system,sans-serif" font-size="13" fill="#e8e8e8" text-anchor="middle">윤기범</text>
</svg>
