<svg xmlns="http://www.w3.org/2000/svg" width="880" height="600" viewBox="0 0 880 600">
  <defs>
    <style>
      text { font-family: 'Wanted Sans Variable','Wanted Sans',-apple-system,sans-serif; }
    </style>
  </defs>
  <rect width="880" height="600" rx="12" fill="#0a0a0a"/>

  <!-- title -->
  <text x="440" y="48" text-anchor="middle" font-size="22" font-weight="700" fill="#e8e8e8">Nexacro Studio N — 핵심 단축키 맵</text>

  <!-- Column headers -->
  <text x="145" y="80" text-anchor="middle" font-size="16" font-weight="600" fill="#7ec8e3">파일 / 실행</text>
  <text x="440" y="80" text-anchor="middle" font-size="16" font-weight="600" fill="#55c555">편집 / 컴포넌트</text>
  <text x="735" y="80" text-anchor="middle" font-size="16" font-weight="600" fill="#7777cc">디버그 / 탐색</text>

  <!-- ─── Column 1: File/Run ─── -->
  <!-- rows -->
  <!-- row bg alternating -->
  <rect x="60" y="92" width="170" height="28" rx="3" fill="#0e1218"/>
  <rect x="60" y="120" width="170" height="28" rx="3" fill="#0d1117"/>
  <rect x="60" y="148" width="170" height="28" rx="3" fill="#0e1218"/>
  <rect x="60" y="176" width="170" height="28" rx="3" fill="#0d1117"/>
  <rect x="60" y="204" width="170" height="28" rx="3" fill="#0e1218"/>
  <rect x="60" y="232" width="170" height="28" rx="3" fill="#0d1117"/>
  <rect x="60" y="260" width="170" height="28" rx="3" fill="#0e1218"/>
  <rect x="60" y="288" width="170" height="28" rx="3" fill="#0d1117"/>
  <rect x="60" y="316" width="170" height="28" rx="3" fill="#0e1218"/>
  <rect x="60" y="344" width="170" height="28" rx="3" fill="#0d1117"/>

  <!-- key badges Col1 -->
  <rect x="65" y="97" width="76" height="18" rx="4" fill="#12233a" stroke="#1e3a5a"/>
  <text x="103" y="110" text-anchor="middle" font-size="11" font-weight="700" fill="#7ec8e3">Ctrl + S</text>
  <text x="152" y="110" font-size="11" fill="#888">저장</text>

  <rect x="65" y="125" width="102" height="18" rx="4" fill="#12233a" stroke="#1e3a5a"/>
  <text x="116" y="138" text-anchor="middle" font-size="11" font-weight="700" fill="#7ec8e3">Ctrl + Shift + S</text>
  <text x="175" y="138" font-size="11" fill="#888">전체저장</text>

  <rect x="65" y="153" width="46" height="18" rx="4" fill="#12233a" stroke="#1e3a5a"/>
  <text x="88" y="166" text-anchor="middle" font-size="11" font-weight="700" fill="#7ec8e3">F5</text>
  <text x="117" y="166" font-size="11" fill="#888">Test Run</text>

  <rect x="65" y="181" width="46" height="18" rx="4" fill="#12233a" stroke="#1e3a5a"/>
  <text x="88" y="194" text-anchor="middle" font-size="11" font-weight="700" fill="#7ec8e3">F6</text>
  <text x="117" y="194" font-size="11" fill="#888">현재 폼 실행</text>

  <rect x="65" y="209" width="58" height="18" rx="4" fill="#12233a" stroke="#1e3a5a"/>
  <text x="94" y="222" text-anchor="middle" font-size="11" font-weight="700" fill="#7ec8e3">Shift+F5</text>
  <text x="129" y="222" font-size="11" fill="#888">실행 중지</text>

  <rect x="65" y="237" width="76" height="18" rx="4" fill="#12233a" stroke="#1e3a5a"/>
  <text x="103" y="250" text-anchor="middle" font-size="11" font-weight="700" fill="#7ec8e3">Ctrl + N</text>
  <text x="147" y="250" font-size="11" fill="#888">새 폼</text>

  <rect x="65" y="265" width="76" height="18" rx="4" fill="#12233a" stroke="#1e3a5a"/>
  <text x="103" y="278" text-anchor="middle" font-size="11" font-weight="700" fill="#7ec8e3">Ctrl + O</text>
  <text x="147" y="278" font-size="11" fill="#888">파일 열기</text>

  <rect x="65" y="293" width="76" height="18" rx="4" fill="#12233a" stroke="#1e3a5a"/>
  <text x="103" y="306" text-anchor="middle" font-size="11" font-weight="700" fill="#7ec8e3">Ctrl + W</text>
  <text x="147" y="306" font-size="11" fill="#888">탭 닫기</text>

  <rect x="65" y="321" width="92" height="18" rx="4" fill="#12233a" stroke="#1e3a5a"/>
  <text x="111" y="334" text-anchor="middle" font-size="11" font-weight="700" fill="#7ec8e3">Ctrl + Shift + B</text>
  <text x="163" y="334" font-size="11" fill="#888">빌드</text>

  <rect x="65" y="349" width="76" height="18" rx="4" fill="#12233a" stroke="#1e3a5a"/>
  <text x="103" y="362" text-anchor="middle" font-size="11" font-weight="700" fill="#7ec8e3">Ctrl + Z</text>
  <text x="147" y="362" font-size="11" fill="#888">실행 취소</text>

  <!-- ─── Column 2: Edit/Component ─── -->
  <rect x="258" y="92" width="364" height="28" rx="3" fill="#0e1218"/>
  <rect x="258" y="120" width="364" height="28" rx="3" fill="#0d1117"/>
  <rect x="258" y="148" width="364" height="28" rx="3" fill="#0e1218"/>
  <rect x="258" y="176" width="364" height="28" rx="3" fill="#0d1117"/>
  <rect x="258" y="204" width="364" height="28" rx="3" fill="#0e1218"/>
  <rect x="258" y="232" width="364" height="28" rx="3" fill="#0d1117"/>
  <rect x="258" y="260" width="364" height="28" rx="3" fill="#0e1218"/>
  <rect x="258" y="288" width="364" height="28" rx="3" fill="#0d1117"/>
  <rect x="258" y="316" width="364" height="28" rx="3" fill="#0e1218"/>
  <rect x="258" y="344" width="364" height="28" rx="3" fill="#0d1117"/>

  <!-- Col2 keys -->
  <rect x="263" y="97" width="76" height="18" rx="4" fill="#1a2e1a" stroke="#2a4a2a"/>
  <text x="301" y="110" text-anchor="middle" font-size="11" font-weight="700" fill="#55c555">Ctrl + C</text>
  <text x="345" y="110" font-size="11" fill="#888">복사</text>

  <rect x="263" y="125" width="76" height="18" rx="4" fill="#1a2e1a" stroke="#2a4a2a"/>
  <text x="301" y="138" text-anchor="middle" font-size="11" font-weight="700" fill="#55c555">Ctrl + V</text>
  <text x="345" y="138" font-size="11" fill="#888">붙여넣기</text>

  <rect x="263" y="153" width="76" height="18" rx="4" fill="#1a2e1a" stroke="#2a4a2a"/>
  <text x="301" y="166" text-anchor="middle" font-size="11" font-weight="700" fill="#55c555">Ctrl + X</text>
  <text x="345" y="166" font-size="11" fill="#888">잘라내기</text>

  <rect x="263" y="181" width="76" height="18" rx="4" fill="#1a2e1a" stroke="#2a4a2a"/>
  <text x="301" y="194" text-anchor="middle" font-size="11" font-weight="700" fill="#55c555">Ctrl + A</text>
  <text x="345" y="194" font-size="11" fill="#888">전체 선택</text>

  <rect x="263" y="209" width="96" height="18" rx="4" fill="#1a2e1a" stroke="#2a4a2a"/>
  <text x="311" y="222" text-anchor="middle" font-size="11" font-weight="700" fill="#55c555">Ctrl + Shift + Z</text>
  <text x="365" y="222" font-size="11" fill="#888">다시 실행</text>

  <rect x="263" y="237" width="96" height="18" rx="4" fill="#1a2e1a" stroke="#2a4a2a"/>
  <text x="311" y="250" text-anchor="middle" font-size="11" font-weight="700" fill="#55c555">Ctrl + G</text>
  <text x="365" y="250" font-size="11" fill="#888">줄 번호로 이동 (Script)</text>

  <rect x="263" y="265" width="96" height="18" rx="4" fill="#1a2e1a" stroke="#2a4a2a"/>
  <text x="311" y="278" text-anchor="middle" font-size="11" font-weight="700" fill="#55c555">Ctrl + F</text>
  <text x="365" y="278" font-size="11" fill="#888">텍스트 찾기</text>

  <rect x="263" y="293" width="96" height="18" rx="4" fill="#1a2e1a" stroke="#2a4a2a"/>
  <text x="311" y="306" text-anchor="middle" font-size="11" font-weight="700" fill="#55c555">Ctrl + H</text>
  <text x="365" y="306" font-size="11" fill="#888">바꾸기</text>

  <rect x="263" y="321" width="96" height="18" rx="4" fill="#1a2e1a" stroke="#2a4a2a"/>
  <text x="311" y="334" text-anchor="middle" font-size="11" font-weight="700" fill="#55c555">Ctrl + /</text>
  <text x="365" y="334" font-size="11" fill="#888">줄 주석 토글</text>

  <rect x="263" y="349" width="96" height="18" rx="4" fill="#1a2e1a" stroke="#2a4a2a"/>
  <text x="311" y="362" text-anchor="middle" font-size="11" font-weight="700" fill="#55c555">Tab / Shift+Tab</text>
  <text x="365" y="362" font-size="11" fill="#888">들여쓰기 / 내어쓰기</text>

  <!-- ─── Column 3: Debug/Navigate ─── -->
  <rect x="650" y="92" width="170" height="28" rx="3" fill="#0e1218"/>
  <rect x="650" y="120" width="170" height="28" rx="3" fill="#0d1117"/>
  <rect x="650" y="148" width="170" height="28" rx="3" fill="#0e1218"/>
  <rect x="650" y="176" width="170" height="28" rx="3" fill="#0d1117"/>
  <rect x="650" y="204" width="170" height="28" rx="3" fill="#0e1218"/>
  <rect x="650" y="232" width="170" height="28" rx="3" fill="#0d1117"/>
  <rect x="650" y="260" width="170" height="28" rx="3" fill="#0e1218"/>
  <rect x="650" y="288" width="170" height="28" rx="3" fill="#0d1117"/>
  <rect x="650" y="316" width="170" height="28" rx="3" fill="#0e1218"/>
  <rect x="650" y="344" width="170" height="28" rx="3" fill="#0d1117"/>

  <!-- Col3 keys -->
  <rect x="655" y="97" width="46" height="18" rx="4" fill="#1e1a35" stroke="#3a2a5a"/>
  <text x="678" y="110" text-anchor="middle" font-size="11" font-weight="700" fill="#7777cc">F9</text>
  <text x="707" y="110" font-size="11" fill="#888">디버그 실행</text>

  <rect x="655" y="125" width="46" height="18" rx="4" fill="#1e1a35" stroke="#3a2a5a"/>
  <text x="678" y="138" text-anchor="middle" font-size="11" font-weight="700" fill="#7777cc">F10</text>
  <text x="707" y="138" font-size="11" fill="#888">Step Over</text>

  <rect x="655" y="153" width="46" height="18" rx="4" fill="#1e1a35" stroke="#3a2a5a"/>
  <text x="678" y="166" text-anchor="middle" font-size="11" font-weight="700" fill="#7777cc">F11</text>
  <text x="707" y="166" font-size="11" fill="#888">Step Into</text>

  <rect x="655" y="181" width="76" height="18" rx="4" fill="#1e1a35" stroke="#3a2a5a"/>
  <text x="693" y="194" text-anchor="middle" font-size="11" font-weight="700" fill="#7777cc">Shift + F11</text>
  <text x="737" y="194" font-size="11" fill="#888">Step Out</text>

  <rect x="655" y="209" width="76" height="18" rx="4" fill="#1e1a35" stroke="#3a2a5a"/>
  <text x="693" y="222" text-anchor="middle" font-size="11" font-weight="700" fill="#7777cc">Ctrl + F8</text>
  <text x="737" y="222" font-size="11" fill="#888">중단점 설정</text>

  <rect x="655" y="237" width="76" height="18" rx="4" fill="#1e1a35" stroke="#3a2a5a"/>
  <text x="693" y="250" text-anchor="middle" font-size="11" font-weight="700" fill="#7777cc">Ctrl + D</text>
  <text x="737" y="250" font-size="11" fill="#888">중단점 목록</text>

  <rect x="655" y="265" width="96" height="18" rx="4" fill="#1e1a35" stroke="#3a2a5a"/>
  <text x="703" y="278" text-anchor="middle" font-size="11" font-weight="700" fill="#7777cc">Ctrl + Tab</text>
  <text x="757" y="278" font-size="11" fill="#888">탭 전환</text>

  <rect x="655" y="293" width="96" height="18" rx="4" fill="#1e1a35" stroke="#3a2a5a"/>
  <text x="703" y="306" text-anchor="middle" font-size="11" font-weight="700" fill="#7777cc">Alt + ←/→</text>
  <text x="757" y="306" font-size="11" fill="#888">이전/다음 탭</text>

  <rect x="655" y="321" width="96" height="18" rx="4" fill="#1e1a35" stroke="#3a2a5a"/>
  <text x="703" y="334" text-anchor="middle" font-size="11" font-weight="700" fill="#7777cc">Ctrl + Shift + F</text>
  <text x="757" y="334" font-size="11" fill="#888">전체 검색</text>

  <rect x="655" y="349" width="96" height="18" rx="4" fill="#1e1a35" stroke="#3a2a5a"/>
  <text x="703" y="362" text-anchor="middle" font-size="11" font-weight="700" fill="#7777cc">F1</text>
  <text x="720" y="362" font-size="11" fill="#888">도움말</text>

  <!-- Dividers between columns -->
  <line x1="238" y1="88" x2="238" y2="380" stroke="#1e2433" stroke-width="1"/>
  <line x1="634" y1="88" x2="634" y2="380" stroke="#1e2433" stroke-width="1"/>

  <!-- Design tab shortcuts section -->
  <rect x="60" y="400" width="760" height="130" rx="8" fill="#0d1117" stroke="#1e2433"/>
  <text x="440" y="424" text-anchor="middle" font-size="14" font-weight="700" fill="#e8e8e8">Design 탭 전용 단축키</text>

  <!-- design shortcuts grid: 3 cols -->
  <!-- col 1 -->
  <rect x="80" y="436" width="160" height="22" rx="3" fill="#0e1218"/>
  <rect x="86" y="440" width="80" height="14" rx="3" fill="#12233a" stroke="#1e3a5a"/>
  <text x="126" y="451" text-anchor="middle" font-size="11" font-weight="700" fill="#7ec8e3">방향키</text>
  <text x="172" y="451" font-size="11" fill="#888">1px 이동</text>

  <rect x="80" y="462" width="200" height="22" rx="3" fill="#0d1117"/>
  <rect x="86" y="466" width="110" height="14" rx="3" fill="#12233a" stroke="#1e3a5a"/>
  <text x="141" y="477" text-anchor="middle" font-size="11" font-weight="700" fill="#7ec8e3">Shift + 방향키</text>
  <text x="202" y="477" font-size="11" fill="#888">1px 크기 변경</text>

  <rect x="80" y="488" width="200" height="22" rx="3" fill="#0e1218"/>
  <rect x="86" y="492" width="110" height="14" rx="3" fill="#12233a" stroke="#1e3a5a"/>
  <text x="141" y="503" text-anchor="middle" font-size="11" font-weight="700" fill="#7ec8e3">Ctrl + 방향키</text>
  <text x="202" y="503" font-size="11" fill="#888">10px 단위 이동</text>

  <!-- col 2 -->
  <rect x="300" y="436" width="240" height="22" rx="3" fill="#0e1218"/>
  <rect x="306" y="440" width="110" height="14" rx="3" fill="#1a2e1a" stroke="#2a4a2a"/>
  <text x="361" y="451" text-anchor="middle" font-size="11" font-weight="700" fill="#55c555">Ctrl + 드래그</text>
  <text x="422" y="451" font-size="11" fill="#888">컴포넌트 복사</text>

  <rect x="300" y="462" width="240" height="22" rx="3" fill="#0d1117"/>
  <rect x="306" y="466" width="80" height="14" rx="3" fill="#1a2e1a" stroke="#2a4a2a"/>
  <text x="346" y="477" text-anchor="middle" font-size="11" font-weight="700" fill="#55c555">Ctrl + L</text>
  <text x="392" y="477" font-size="11" fill="#888">왼쪽 정렬</text>

  <rect x="300" y="488" width="240" height="22" rx="3" fill="#0e1218"/>
  <rect x="306" y="492" width="80" height="14" rx="3" fill="#1a2e1a" stroke="#2a4a2a"/>
  <text x="346" y="503" text-anchor="middle" font-size="11" font-weight="700" fill="#55c555">Ctrl + R</text>
  <text x="392" y="503" font-size="11" fill="#888">오른쪽 정렬</text>

  <!-- col 3 -->
  <rect x="560" y="436" width="260" height="22" rx="3" fill="#0e1218"/>
  <rect x="566" y="440" width="80" height="14" rx="3" fill="#1e1a35" stroke="#3a2a5a"/>
  <text x="606" y="451" text-anchor="middle" font-size="11" font-weight="700" fill="#7777cc">Ctrl + T</text>
  <text x="652" y="451" font-size="11" fill="#888">위쪽 정렬</text>

  <rect x="560" y="462" width="260" height="22" rx="3" fill="#0d1117"/>
  <rect x="566" y="466" width="80" height="14" rx="3" fill="#1e1a35" stroke="#3a2a5a"/>
  <text x="606" y="477" text-anchor="middle" font-size="11" font-weight="700" fill="#7777cc">Ctrl + B</text>
  <text x="652" y="477" font-size="11" fill="#888">아래쪽 정렬</text>

  <rect x="560" y="488" width="260" height="22" rx="3" fill="#0e1218"/>
  <rect x="566" y="492" width="98" height="14" rx="3" fill="#1e1a35" stroke="#3a2a5a"/>
  <text x="615" y="503" text-anchor="middle" font-size="11" font-weight="700" fill="#7777cc">Ctrl + Shift + H</text>
  <text x="670" y="503" font-size="11" fill="#888">같은 너비로 맞춤</text>

  <!-- footer -->
  <text x="440" y="552" text-anchor="middle" font-size="11" fill="#444">PALDYN · Nexacro N 완전 정복</text>
</svg>
