<svg xmlns="http://www.w3.org/2000/svg" width="880" viewBox="0 0 880 440" font-family="'Wanted Sans Variable','Wanted Sans',-apple-system,sans-serif">
  <rect width="880" height="440" fill="#0a0a0a" rx="12"/>
  <text x="440" y="48" fill="#e8e8e8" font-size="22" font-weight="700" text-anchor="middle">лҹ°нғҖмһ„ нҸј лЎңл“ң л°©мӢқ л№„көҗ</text>

  <!-- Method 1: loadContents -->
  <rect x="60" y="74" width="360" height="160" rx="8" fill="#111827" stroke="#7ec8e3" stroke-width="1.5"/>
  <text x="240" y="100" fill="#7ec8e3" font-size="15" font-weight="600" text-anchor="middle">loadContents</text>
  <text x="240" y="122" fill="#888" font-size="12" text-anchor="middle">Div м»Ён…Ңмқҙл„Ҳм—җ Form лЎңл“ң</text>
  <line x1="80" y1="134" x2="400" y2="134" stroke="#1e2433" stroke-width="1"/>
  <text x="80" y="154" fill="#e8e8e8" font-size="12">вҖў Div м•Ҳм—җ Formмқ„ лҸҷм Ғ лЎңл“ң</text>
  <text x="80" y="172" fill="#e8e8e8" font-size="12">вҖў лӢЁмқј м»Ён…Ңмқҙл„Ҳм—җ көҗмІҙ н‘ңмӢң</text>
  <text x="80" y="190" fill="#e8e8e8" font-size="12">вҖў Tab м—Ҷмқҙ лӮҙмҡ© м „нҷҳн•  л•Ң нҷңмҡ©</text>
  <text x="80" y="210" fill="#888" font-size="12">div.loadContents(sUrl, oArgs)</text>

  <!-- Method 2: createContents (Dynamic Form) -->
  <rect x="460" y="74" width="360" height="160" rx="8" fill="#111827" stroke="#55c555" stroke-width="1.5"/>
  <text x="640" y="100" fill="#55c555" font-size="15" font-weight="600" text-anchor="middle">createContents</text>
  <text x="640" y="122" fill="#888" font-size="12" text-anchor="middle">лҸ…лҰҪ Form мқёмҠӨн„ҙмҠӨ мғқм„ұ</text>
  <line x1="480" y1="134" x2="800" y2="134" stroke="#1e2433" stroke-width="1"/>
  <text x="480" y="154" fill="#e8e8e8" font-size="12">вҖў Frame/Divм—җ лҸ…лҰҪ Form мғқм„ұ</text>
  <text x="480" y="172" fill="#e8e8e8" font-size="12">вҖў м—¬лҹ¬ Form лҸҷмӢң лЎңл“ң к°ҖлҠҘ</text>
  <text x="480" y="190" fill="#e8e8e8" font-size="12">вҖў IDлЎң мқҙнӣ„ м ‘к·јВ·м ңкұ° к°ҖлҠҘ</text>
  <text x="480" y="210" fill="#888" font-size="12">frame.createContents(sId, sUrl)</text>

  <!-- Flow: loadContents -->
  <text x="240" y="258" fill="#888" font-size="13" text-anchor="middle">loadContents нқҗлҰ„</text>
  <rect x="60" y="268" width="360" height="148" rx="8" fill="#0f172a" stroke="#374151"/>

  <rect x="80" y="284" width="100" height="36" rx="4" fill="#1e293b" stroke="#7ec8e3"/>
  <text x="130" y="307" fill="#7ec8e3" font-size="11" text-anchor="middle">div_content</text>

  <line x1="180" y1="302" x2="214" y2="302" stroke="#374151" stroke-width="1.5"/>
  <polygon points="220,302 208,296 208,308" fill="#374151"/>

  <rect x="220" y="284" width="180" height="36" rx="4" fill="#1e293b" stroke="#55c555"/>
  <text x="310" y="307" fill="#55c555" font-size="11" text-anchor="middle">loadContents(sUrl)</text>

  <text x="240" y="360" fill="#888" font-size="12" text-anchor="middle">Div лӮҙл¶Җк°Җ мғҲ FormмңјлЎң көҗмІҙ</text>
  <text x="240" y="380" fill="#7ec8e3" font-size="12" text-anchor="middle">мқҙм „ FormмқҖ мһҗлҸҷ unload</text>
  <text x="240" y="398" fill="#888" font-size="11" text-anchor="middle">onload мқҙлІӨнҠёлЎң мҷ„лЈҢ к°җм§Җ</text>

  <!-- Flow: createContents -->
  <text x="640" y="258" fill="#888" font-size="13" text-anchor="middle">createContents нқҗлҰ„</text>
  <rect x="460" y="268" width="360" height="148" rx="8" fill="#0f172a" stroke="#374151"/>
  <rect x="480" y="284" width="100" height="36" rx="4" fill="#1e293b" stroke="#55c555"/>
  <text x="530" y="307" fill="#55c555" font-size="11" text-anchor="middle">WorkArea Frame</text>

  <line x1="580" y1="302" x2="614" y2="302" stroke="#374151" stroke-width="1.5"/>
  <polygon points="620,302 608,296 608,308" fill="#374151"/>

  <rect x="620" y="280" width="80" height="44" rx="4" fill="#1e293b" stroke="#7777cc"/>
  <text x="660" y="300" fill="#7777cc" font-size="10" text-anchor="middle">Form A</text>
  <rect x="620" y="302" width="80" height="44" rx="4" fill="#1e293b" stroke="#7777cc" fill-opacity="0.5"/>
  <text x="660" y="322" fill="#7777cc" font-size="10" text-anchor="middle">Form B</text>

  <text x="640" y="370" fill="#888" font-size="12" text-anchor="middle">м—¬лҹ¬ Form лҸҷмӢң мЎҙмһ¬</text>
  <text x="640" y="388" fill="#55c555" font-size="12" text-anchor="middle">к°Ғ Form лҸ…лҰҪ мғқлӘ…мЈјкё°</text>
</svg>
