<svg xmlns="http://www.w3.org/2000/svg" width="880" viewBox="0 0 880 510"
     style="font-family:'Wanted Sans Variable','Wanted Sans',-apple-system,sans-serif">

  <rect width="880" height="510" fill="#0a0a0a" rx="12"/>

  <!-- Title -->
  <text x="440" y="46" text-anchor="middle" font-size="22" font-weight="700" fill="#e8e8e8">Platform vs Nexacro N — 핵심 차이</text>
  <text x="440" y="68" text-anchor="middle" font-size="13" fill="#888">마이그레이션 결정 시 반드시 확인해야 할 6가지</text>

  <!-- ===== Column Headers ===== -->
  <!-- Feature label column: x=345-535, center=440 -->
  <!-- Platform column: x=62-332 -->
  <!-- N column: x=548-818 -->

  <rect x="62" y="85" width="270" height="44" fill="#12101a" rx="6" stroke="#7777cc" stroke-width="1.5"/>
  <text x="197" y="112" text-anchor="middle" font-size="14" font-weight="700" fill="#9988cc">Nexacro Platform</text>

  <rect x="348" y="85" width="184" height="44" fill="#0e0e0e" rx="6" stroke="#333" stroke-width="1"/>
  <text x="440" y="112" text-anchor="middle" font-size="13" font-weight="600" fill="#666">비교 항목</text>

  <rect x="548" y="85" width="270" height="44" fill="#0c140e" rx="6" stroke="#55c555" stroke-width="1.5"/>
  <text x="683" y="112" text-anchor="middle" font-size="14" font-weight="700" fill="#55c555">Nexacro N (V24)</text>

  <!-- ===== Row 1: 런타임 기술 ===== -->
  <rect x="62" y="140" width="270" height="52" fill="#0e0e14" rx="4" stroke="#1e1e2a" stroke-width="1"/>
  <text x="197" y="161" text-anchor="middle" font-size="12" fill="#aaa">ActiveX · Flash 혼용</text>
  <text x="197" y="179" text-anchor="middle" font-size="11" fill="#666">IE 필수 환경</text>

  <text x="440" y="170" text-anchor="middle" font-size="12" font-weight="600" fill="#888">런타임 기술</text>

  <rect x="548" y="140" width="270" height="52" fill="#0a140e" rx="4" stroke="#1a2e1a" stroke-width="1"/>
  <text x="683" y="161" text-anchor="middle" font-size="12" fill="#55c555">순수 HTML5 / JavaScript</text>
  <text x="683" y="179" text-anchor="middle" font-size="11" fill="#888">플러그인 없음</text>

  <!-- ===== Row 2: 브라우저 지원 ===== -->
  <rect x="62" y="202" width="270" height="52" fill="#0e0e14" rx="4" stroke="#1e1e2a" stroke-width="1"/>
  <text x="197" y="223" text-anchor="middle" font-size="12" fill="#e05555">IE 8/9/10/11 중심</text>
  <text x="197" y="241" text-anchor="middle" font-size="11" fill="#666">Chrome 부분 지원</text>

  <text x="440" y="232" text-anchor="middle" font-size="12" font-weight="600" fill="#888">브라우저 지원</text>

  <rect x="548" y="202" width="270" height="52" fill="#0a140e" rx="4" stroke="#1a2e1a" stroke-width="1"/>
  <text x="683" y="223" text-anchor="middle" font-size="12" fill="#55c555">Chrome · Edge · Safari</text>
  <text x="683" y="241" text-anchor="middle" font-size="11" fill="#888">Firefox · 모바일 브라우저</text>

  <!-- ===== Row 3: 모바일 지원 ===== -->
  <rect x="62" y="264" width="270" height="52" fill="#0e0e14" rx="4" stroke="#1e1e2a" stroke-width="1"/>
  <text x="197" y="285" text-anchor="middle" font-size="12" fill="#e05555">제한적 (부분 지원)</text>
  <text x="197" y="303" text-anchor="middle" font-size="11" fill="#666">별도 Mobile 제품 필요</text>

  <text x="440" y="294" text-anchor="middle" font-size="12" font-weight="600" fill="#888">모바일 지원</text>

  <rect x="548" y="264" width="270" height="52" fill="#0a140e" rx="4" stroke="#1a2e1a" stroke-width="1"/>
  <text x="683" y="285" text-anchor="middle" font-size="12" fill="#55c555">정식 지원 (반응형)</text>
  <text x="683" y="303" text-anchor="middle" font-size="11" fill="#888">iOS · Android 모두 동작</text>

  <!-- ===== Row 4: 개발 언어 ===== -->
  <rect x="62" y="326" width="270" height="52" fill="#0e0e14" rx="4" stroke="#1e1e2a" stroke-width="1"/>
  <text x="197" y="347" text-anchor="middle" font-size="12" fill="#aaa">ES3 수준 JavaScript</text>
  <text x="197" y="365" text-anchor="middle" font-size="11" fill="#666">nexacro 전용 API 중심</text>

  <text x="440" y="356" text-anchor="middle" font-size="12" font-weight="600" fill="#888">개발 언어</text>

  <rect x="548" y="326" width="270" height="52" fill="#0a140e" rx="4" stroke="#1a2e1a" stroke-width="1"/>
  <text x="683" y="347" text-anchor="middle" font-size="12" fill="#55c555">ES5+ · TypeScript(V24)</text>
  <text x="683" y="365" text-anchor="middle" font-size="11" fill="#888">표준 JS 생태계 활용 가능</text>

  <!-- ===== Row 5: API 호환성 ===== -->
  <rect x="62" y="388" width="270" height="52" fill="#0e0e14" rx="4" stroke="#1e1e2a" stroke-width="1"/>
  <text x="197" y="409" text-anchor="middle" font-size="12" fill="#aaa">Platform API 기반</text>
  <text x="197" y="427" text-anchor="middle" font-size="11" fill="#666">일부 구 API 사용</text>

  <text x="440" y="418" text-anchor="middle" font-size="12" font-weight="600" fill="#888">API 호환성</text>

  <rect x="548" y="388" width="270" height="52" fill="#0a140e" rx="4" stroke="#1a2e1a" stroke-width="1"/>
  <text x="683" y="409" text-anchor="middle" font-size="12" fill="#7ec8e3">Platform과 대부분 호환</text>
  <text x="683" y="427" text-anchor="middle" font-size="11" fill="#888">일부 컴포넌트 마이그레이션 필요</text>

  <!-- Footer -->
  <text x="440" y="464" text-anchor="middle" font-size="11" fill="#444">PALDYN · Nexacro N 완전 정복 시리즈 — Chapter 1</text>
</svg>
