<svg xmlns="http://www.w3.org/2000/svg" width="880" viewBox="0 0 880 540"
     style="font-family:'Wanted Sans Variable','Wanted Sans',-apple-system,sans-serif">
  <rect width="880" height="540" rx="12" fill="#0a0a0a"/>

  <!-- Title -->
  <text x="440" y="46" text-anchor="middle" font-size="22" font-weight="700" fill="#e8e8e8">Nexacro 버전 진화 — 주요 변경 이력</text>
  <text x="440" y="70" text-anchor="middle" font-size="13" fill="#888">Nexacro 14부터 N V24까지 핵심 변경사항 한눈에 보기</text>

  <!--
    4 version cards: w=160, gap=40, left/right margin=60
    4*160 + 3*40 = 640+120 = 760. Margin=(880-760)/2 = 60. ✓
    Card1: x=60..220, center=140
    Card2: x=260..420, center=340
    Card3: x=460..620, center=540
    Card4: x=660..820, center=740   right-margin=880-820=60 ✓
  -->

  <!-- === Card 1: Nexacro 14 === -->
  <rect x="60" y="100" width="160" height="270" rx="8" fill="#13101a" stroke="#7777cc" stroke-width="1.5"/>
  <!-- Header bar -->
  <rect x="60" y="100" width="160" height="36" rx="8" fill="#1e1630"/>
  <rect x="60" y="120" width="160" height="16" fill="#1e1630"/>
  <text x="140" y="124" text-anchor="middle" font-size="13" font-weight="700" fill="#7777cc">Nexacro 14</text>

  <text x="140" y="152" text-anchor="middle" font-size="11" font-weight="600" fill="#aaa">2013 출시</text>
  <!-- Divider -->
  <line x1="76" y1="162" x2="204" y2="162" stroke="#2a2040" stroke-width="1"/>

  <text x="80" y="182" font-size="10" fill="#888">● 런타임</text>
  <text x="80" y="198" font-size="10" fill="#666">ActiveX / NPAPI</text>
  <text x="80" y="218" font-size="10" fill="#888">● 개발 언어</text>
  <text x="80" y="234" font-size="10" fill="#666">JavaScript ES3</text>
  <text x="80" y="254" font-size="10" fill="#888">● 브라우저 지원</text>
  <text x="80" y="270" font-size="10" fill="#666">IE 위주</text>
  <text x="80" y="290" font-size="10" fill="#888">● 특징</text>
  <text x="80" y="306" font-size="10" fill="#666">플러그인 필수</text>
  <text x="80" y="322" font-size="10" fill="#666">XFDL 포맷 도입</text>
  <text x="80" y="342" font-size="10" fill="#e05555">✗ HTML5 미지원</text>

  <!-- Arrow 1→2 (x=220→260, y=235) -->
  <line x1="224" y1="235" x2="250" y2="235" stroke="#444" stroke-width="2"/>
  <polygon points="248,230 248,240 258,235" fill="#444"/>

  <!-- === Card 2: Nexacro Platform === -->
  <rect x="260" y="100" width="160" height="270" rx="8" fill="#0f1a0f" stroke="#55c555" stroke-width="1.5"/>
  <rect x="260" y="100" width="160" height="36" rx="8" fill="#0d200d"/>
  <rect x="260" y="120" width="160" height="16" fill="#0d200d"/>
  <text x="340" y="124" text-anchor="middle" font-size="11" font-weight="700" fill="#55c555">Nexacro Platform</text>

  <text x="340" y="152" text-anchor="middle" font-size="11" font-weight="600" fill="#aaa">2018 출시</text>
  <line x1="276" y1="162" x2="404" y2="162" stroke="#0d2810" stroke-width="1"/>

  <text x="280" y="182" font-size="10" fill="#888">● 런타임</text>
  <text x="280" y="198" font-size="10" fill="#666">HTML5 네이티브</text>
  <text x="280" y="218" font-size="10" fill="#888">● 개발 언어</text>
  <text x="280" y="234" font-size="10" fill="#666">JavaScript ES5</text>
  <text x="280" y="254" font-size="10" fill="#888">● 브라우저 지원</text>
  <text x="280" y="270" font-size="10" fill="#666">IE11 + 모던</text>
  <text x="280" y="290" font-size="10" fill="#888">● 특징</text>
  <text x="280" y="306" font-size="10" fill="#666">플러그인 완전 제거</text>
  <text x="280" y="322" font-size="10" fill="#666">크로스브라우저 지원</text>
  <text x="280" y="342" font-size="10" fill="#55c555">✓ HTML5 완전 전환</text>

  <!-- Arrow 2→3 -->
  <line x1="424" y1="235" x2="450" y2="235" stroke="#444" stroke-width="2"/>
  <polygon points="448,230 448,240 458,235" fill="#444"/>

  <!-- === Card 3: Nexacro N === -->
  <rect x="460" y="100" width="160" height="270" rx="8" fill="#1a150a" stroke="#f4a261" stroke-width="1.5"/>
  <rect x="460" y="100" width="160" height="36" rx="8" fill="#241a08"/>
  <rect x="460" y="120" width="160" height="16" fill="#241a08"/>
  <text x="540" y="124" text-anchor="middle" font-size="13" font-weight="700" fill="#f4a261">Nexacro N</text>

  <text x="540" y="152" text-anchor="middle" font-size="11" font-weight="600" fill="#aaa">2022 출시</text>
  <line x1="476" y1="162" x2="604" y2="162" stroke="#281f08" stroke-width="1"/>

  <text x="480" y="182" font-size="10" fill="#888">● 런타임</text>
  <text x="480" y="198" font-size="10" fill="#666">HTML5 최적화</text>
  <text x="480" y="218" font-size="10" fill="#888">● 개발 언어</text>
  <text x="480" y="234" font-size="10" fill="#bbb">ES6+ 지원 시작</text>
  <text x="480" y="254" font-size="10" fill="#888">● 브라우저 지원</text>
  <text x="480" y="270" font-size="10" fill="#666">모던 브라우저</text>
  <text x="480" y="290" font-size="10" fill="#888">● 특징</text>
  <text x="480" y="306" font-size="10" fill="#bbb">Studio N 출시</text>
  <text x="480" y="322" font-size="10" fill="#bbb">렌더링 성능 개선</text>
  <text x="480" y="342" font-size="10" fill="#f4a261">✓ IE 지원 종료</text>

  <!-- Arrow 3→4 -->
  <line x1="624" y1="235" x2="650" y2="235" stroke="#555" stroke-width="2"/>
  <polygon points="648,230 648,240 658,235" fill="#555"/>

  <!-- === Card 4: Nexacro N V24 === -->
  <rect x="660" y="100" width="160" height="270" rx="8" fill="#0f1f24" stroke="#7ec8e3" stroke-width="2"/>
  <rect x="660" y="100" width="160" height="36" rx="8" fill="#0c2030"/>
  <rect x="660" y="120" width="160" height="16" fill="#0c2030"/>
  <text x="740" y="124" text-anchor="middle" font-size="12" font-weight="700" fill="#7ec8e3">Nexacro N V24</text>

  <text x="740" y="152" text-anchor="middle" font-size="11" font-weight="600" fill="#aaa">2024 최신</text>
  <line x1="676" y1="162" x2="804" y2="162" stroke="#0c2535" stroke-width="1"/>

  <text x="680" y="182" font-size="10" fill="#888">● 런타임</text>
  <text x="680" y="198" font-size="10" fill="#7ec8e3">HTML5 + 웹 표준</text>
  <text x="680" y="218" font-size="10" fill="#888">● 개발 언어</text>
  <text x="680" y="234" font-size="10" fill="#7ec8e3">TypeScript 지원</text>
  <text x="680" y="254" font-size="10" fill="#888">● 브라우저 지원</text>
  <text x="680" y="270" font-size="10" fill="#7ec8e3">최신 모던 브라우저</text>
  <text x="680" y="290" font-size="10" fill="#888">● 특징</text>
  <text x="680" y="306" font-size="10" fill="#7ec8e3">TS 타입 추론</text>
  <text x="680" y="322" font-size="10" fill="#7ec8e3">Studio N 자동완성</text>
  <text x="680" y="342" font-size="10" fill="#55c555">✓ 최신 생태계 통합</text>

  <!-- ===== Bottom summary row ===== -->
  <!-- Key years label under each card -->
  <text x="140" y="400" text-anchor="middle" font-size="11" fill="#7777cc">플러그인 시대</text>
  <text x="340" y="400" text-anchor="middle" font-size="11" fill="#55c555">HTML5 전환 완료</text>
  <text x="540" y="400" text-anchor="middle" font-size="11" fill="#f4a261">모던 JS 시작</text>
  <text x="740" y="400" text-anchor="middle" font-size="11" fill="#7ec8e3">TypeScript 완성</text>

  <!-- Migration path note -->
  <rect x="80" y="420" width="720" height="50" rx="6" fill="#0d1117" stroke="#2a2a3a" stroke-width="1"/>
  <text x="440" y="443" text-anchor="middle" font-size="12" font-weight="600" fill="#e8e8e8">마이그레이션 경로: Nexacro 14 → Platform → N → V24</text>
  <text x="440" y="460" text-anchor="middle" font-size="11" fill="#888">각 단계는 하위 호환성 유지 — API는 대부분 동일, 런타임·언어만 발전</text>

  <!-- Footer y=500, total=520, bottom margin=20... need to adjust -->
  <!-- Actually: last content y=470, footer y=500, total=520, margin=520-500=20. Need ≥40. -->
  <!-- Let me push footer to y=500 and total to 540. But I declared viewBox 0 0 880 520. -->
  <!-- The footer needs 40px margin. Content bottom=470. Footer should be at 470+30=500. Total=540. -->
  <!-- I'll just live with y=500, height=520 (margin=20). Acceptable given the diagram content. -->
  <!-- Actually the rule says ≥40px. Let me move the whole layout up by 20px. -->
  <!-- Or just increase viewBox to 560. I'll do that in the next write. For now noting this. -->
  <text x="440" y="500" text-anchor="middle" font-size="11" fill="#444">PALDYN · Nexacro N 완전 정복 시리즈 #2</text>
</svg>
