<svg xmlns="http://www.w3.org/2000/svg" width="880" viewBox="0 0 880 268"
     font-family="'Wanted Sans Variable','Wanted Sans',-apple-system,sans-serif">
  <rect width="880" height="268" rx="12" fill="#0a0a0a"/>

  <!-- Title -->
  <text x="440" y="42" text-anchor="middle" font-size="22" font-weight="700" fill="#e8e8e8">Nexacro Studio N 설치 단계</text>

  <!-- ── Box 1: 포털 다운로드 (x=72) ── -->
  <rect x="72" y="68" width="108" height="108" rx="8" fill="#0f1520" stroke="#7777cc" stroke-width="1.5"/>
  <circle cx="126" cy="96" r="16" fill="#7777cc"/>
  <text x="126" y="101" text-anchor="middle" font-size="14" font-weight="700" fill="#e8e8e8">1</text>
  <text x="126" y="134" text-anchor="middle" font-size="12" font-weight="600" fill="#e8e8e8">포털 접속</text>
  <text x="126" y="152" text-anchor="middle" font-size="12" fill="#888">다운로드</text>

  <!-- Arrow 1 (shaft 36px, head width 20px) -->
  <polygon points="182,118 218,118 218,112 230,122 218,132 218,126 182,126"
           fill="#444" stroke="#333" stroke-width="1"/>

  <!-- ── Box 2: JDK 설치 (x=232) ── -->
  <rect x="232" y="68" width="108" height="108" rx="8" fill="#0f1520" stroke="#7ec8e3" stroke-width="1.5"/>
  <circle cx="286" cy="96" r="16" fill="#7ec8e3"/>
  <text x="286" y="101" text-anchor="middle" font-size="14" font-weight="700" fill="#0a0a0a">2</text>
  <text x="286" y="134" text-anchor="middle" font-size="12" font-weight="600" fill="#e8e8e8">JDK 17+</text>
  <text x="286" y="152" text-anchor="middle" font-size="12" fill="#888">설치</text>

  <!-- Arrow 2 -->
  <polygon points="342,118 378,118 378,112 390,122 378,132 378,126 342,126"
           fill="#444" stroke="#333" stroke-width="1"/>

  <!-- ── Box 3: Studio N 설치 (x=392) ── -->
  <rect x="392" y="68" width="108" height="108" rx="8" fill="#0f1520" stroke="#55c555" stroke-width="1.5"/>
  <circle cx="446" cy="96" r="16" fill="#55c555"/>
  <text x="446" y="101" text-anchor="middle" font-size="14" font-weight="700" fill="#0a0a0a">3</text>
  <text x="446" y="134" text-anchor="middle" font-size="12" font-weight="600" fill="#e8e8e8">Studio N</text>
  <text x="446" y="152" text-anchor="middle" font-size="12" fill="#888">설치 실행</text>

  <!-- Arrow 3 -->
  <polygon points="502,118 538,118 538,112 550,122 538,132 538,126 502,126"
           fill="#444" stroke="#333" stroke-width="1"/>

  <!-- ── Box 4: 라이선스 활성화 (x=552) ── -->
  <rect x="552" y="68" width="108" height="108" rx="8" fill="#0f1520" stroke="#e05555" stroke-width="1.5"/>
  <circle cx="606" cy="96" r="16" fill="#e05555"/>
  <text x="606" y="101" text-anchor="middle" font-size="14" font-weight="700" fill="#e8e8e8">4</text>
  <text x="606" y="134" text-anchor="middle" font-size="12" font-weight="600" fill="#e8e8e8">라이선스</text>
  <text x="606" y="152" text-anchor="middle" font-size="12" fill="#888">활성화</text>

  <!-- Arrow 4 -->
  <polygon points="662,118 698,118 698,112 710,122 698,132 698,126 662,126"
           fill="#444" stroke="#333" stroke-width="1"/>

  <!-- ── Box 5: 첫 실행 확인 (x=712) ── -->
  <rect x="712" y="68" width="108" height="108" rx="8" fill="#0f1520" stroke="#55c555" stroke-width="1.5"/>
  <circle cx="766" cy="96" r="16" fill="#55c555"/>
  <text x="766" y="101" text-anchor="middle" font-size="14" font-weight="700" fill="#0a0a0a">5</text>
  <text x="766" y="134" text-anchor="middle" font-size="12" font-weight="600" fill="#e8e8e8">첫 실행</text>
  <text x="766" y="152" text-anchor="middle" font-size="12" fill="#888">확인</text>

  <!-- Notes -->
  <text x="440" y="208" text-anchor="middle" font-size="11" fill="#888">① 투비소프트 고객포털 계정 필요  ·  ② JAVA_HOME 환경변수 설정 필수  ·  ③ Windows 64bit 권장</text>
  <text x="440" y="226" text-anchor="middle" font-size="11" fill="#888">④ 온라인 활성화: 인터넷 연결 필요  ·  ⑤ 새 프로젝트 생성 후 Test Run 성공으로 환경 확인</text>

  <!-- Footer -->
  <text x="440" y="252" text-anchor="middle" font-size="11" fill="#444">© PALDYN · Nexacro N 완전 정복 시리즈</text>
</svg>
