<svg xmlns="http://www.w3.org/2000/svg" width="880" height="330" viewBox="0 0 880 330" font-family="'Wanted Sans Variable','Wanted Sans',-apple-system,sans-serif">
  <defs>
    <marker id="arrPub" viewBox="0 0 14 14" refX="12" refY="7" markerUnits="userSpaceOnUse" markerWidth="14" markerHeight="14" orient="auto">
      <path d="M 0 0 L 13 7 L 0 14 z" fill="#7ec8e3"/>
    </marker>
  </defs>
  <rect x="0" y="0" width="880" height="330" rx="12" fill="#0a0a0a"/>
  <text x="60" y="52" font-size="22" font-weight="700" fill="#e8e8e8">PyPI 배포 흐름</text>

  <rect x="60" y="120" width="180" height="64" rx="8" fill="#11151f" stroke="#7777cc" stroke-width="1.5"/>
  <text x="150" y="148" font-size="14" font-weight="600" fill="#e8e8e8" text-anchor="middle">build</text>
  <text x="150" y="169" font-size="12" fill="#888" text-anchor="middle">wheel · sdist 생성</text>

  <rect x="350" y="120" width="180" height="64" rx="8" fill="#11151f" stroke="#7ec8e3" stroke-width="1.5"/>
  <text x="440" y="148" font-size="14" font-weight="600" fill="#e8e8e8" text-anchor="middle">twine upload</text>
  <text x="440" y="169" font-size="12" fill="#888" text-anchor="middle">인증 · 전송</text>

  <rect x="640" y="70" width="180" height="64" rx="8" fill="#11151f" stroke="#e0a555" stroke-width="1.5"/>
  <text x="730" y="98" font-size="14" font-weight="600" fill="#e8e8e8" text-anchor="middle">TestPyPI</text>
  <text x="730" y="119" font-size="12" fill="#888" text-anchor="middle">리허설</text>

  <rect x="640" y="170" width="180" height="64" rx="8" fill="#11151f" stroke="#55c555" stroke-width="1.5"/>
  <text x="730" y="198" font-size="14" font-weight="600" fill="#e8e8e8" text-anchor="middle">PyPI</text>
  <text x="730" y="219" font-size="12" fill="#888" text-anchor="middle">정식 공개</text>

  <line x1="240" y1="152" x2="348" y2="152" stroke="#7ec8e3" stroke-width="2" marker-end="url(#arrPub)"/>
  <line x1="530" y1="140" x2="638" y2="108" stroke="#7ec8e3" stroke-width="2" marker-end="url(#arrPub)"/>
  <line x1="530" y1="164" x2="638" y2="196" stroke="#7ec8e3" stroke-width="2" marker-end="url(#arrPub)"/>

  <text x="60" y="290" font-size="13" fill="#888">TestPyPI에 먼저 올려 메타데이터·설치를 확인한 뒤 PyPI로 정식 배포하면 실수를 줄인다.</text>
</svg>
