<svg xmlns="http://www.w3.org/2000/svg" width="880" height="340" viewBox="0 0 880 340" font-family="'Wanted Sans Variable','Wanted Sans',-apple-system,sans-serif">
  <rect x="0" y="0" width="880" height="340" rx="12" fill="#0a0a0a"/>
  <text x="60" y="52" font-size="22" font-weight="700" fill="#e8e8e8">하나의 함수가 여러 테스트로 펼쳐진다</text>

  <defs>
    <marker id="arr5" viewBox="0 0 14 14" refX="12" refY="7" markerUnits="userSpaceOnUse" markerWidth="14" markerHeight="14" orient="auto">
      <path d="M 0 0 L 13 7 L 0 14 z" fill="#7ec8e3"/>
    </marker>
  </defs>

  <rect x="60" y="120" width="360" height="120" rx="6" fill="#000000" stroke="#3a4a6e" stroke-width="1"/>
  <text xml:space="preserve" x="76" y="152" font-family="'JetBrains Mono','Menlo','Consolas',monospace" font-size="13" fill="#7777cc">@pytest.mark.parametrize(</text>
  <text xml:space="preserve" x="100" y="176" font-family="'JetBrains Mono','Menlo','Consolas',monospace" font-size="13" fill="#ce9178">"n,sq"</text>
  <text xml:space="preserve" x="158" y="176" font-family="'JetBrains Mono','Menlo','Consolas',monospace" font-size="13" fill="#ffffff">, [(2,4),(3,9),(4,16)])</text>
  <text xml:space="preserve" x="76" y="210" font-family="'JetBrains Mono','Menlo','Consolas',monospace" font-size="13" fill="#7ec8e3" font-weight="600">def</text>
  <text xml:space="preserve" x="118" y="210" font-family="'JetBrains Mono','Menlo','Consolas',monospace" font-size="13" fill="#ffffff">test_sq(n, sq):</text>

  <line x1="420" y1="180" x2="486" y2="140" stroke="#7ec8e3" stroke-width="2" marker-end="url(#arr5)"/>
  <line x1="420" y1="180" x2="486" y2="180" stroke="#7ec8e3" stroke-width="2" marker-end="url(#arr5)"/>
  <line x1="420" y1="180" x2="486" y2="220" stroke="#7ec8e3" stroke-width="2" marker-end="url(#arr5)"/>

  <rect x="496" y="116" width="324" height="48" rx="6" fill="#0f1a0f" stroke="#55c555" stroke-width="1"/>
  <text x="516" y="145" font-size="13" fill="#ffffff">test_sq[2-4] ✓</text>

  <rect x="496" y="172" width="324" height="48" rx="6" fill="#0f1a0f" stroke="#55c555" stroke-width="1"/>
  <text x="516" y="201" font-size="13" fill="#ffffff">test_sq[3-9] ✓</text>

  <rect x="496" y="228" width="324" height="48" rx="6" fill="#0f1a0f" stroke="#55c555" stroke-width="1"/>
  <text x="516" y="257" font-size="13" fill="#ffffff">test_sq[4-16] ✓</text>

  <text x="60" y="308" font-size="13" fill="#888" xml:space="preserve">케이스 목록의 길이만큼 독립적인 테스트가 생성되어 각각 통과·실패가 따로 보고된다.</text>
</svg>
