<svg xmlns="http://www.w3.org/2000/svg" width="880" height="320" viewBox="0 0 880 320" font-family="'Wanted Sans Variable','Wanted Sans',-apple-system,sans-serif">
  <rect x="0" y="0" width="880" height="320" rx="12" fill="#0a0a0a"/>
  <text x="60" y="52" font-size="22" font-weight="700" fill="#e8e8e8">여러 환경에서 한 번에 테스트</text>

  <defs>
    <marker id="arr8" viewBox="0 0 14 14" refX="12" refY="7" markerUnits="userSpaceOnUse" markerWidth="14" markerHeight="14" orient="auto">
      <path d="M 0 0 L 13 7 L 0 14 z" fill="#7ec8e3"/>
    </marker>
  </defs>

  <rect x="60" y="120" width="200" height="80" rx="6" fill="#101622" stroke="#7777cc" stroke-width="1"/>
  <text x="160" y="152" font-size="15" font-weight="600" fill="#7ec8e3" text-anchor="middle">하나의 코드</text>
  <text x="160" y="174" font-size="12" fill="#888" text-anchor="middle">tox / nox 실행</text>

  <line x1="260" y1="160" x2="356" y2="98" stroke="#7ec8e3" stroke-width="2" marker-end="url(#arr8)"/>
  <line x1="260" y1="160" x2="356" y2="160" stroke="#7ec8e3" stroke-width="2" marker-end="url(#arr8)"/>
  <line x1="260" y1="160" x2="356" y2="222" stroke="#7ec8e3" stroke-width="2" marker-end="url(#arr8)"/>

  <rect x="366" y="72" width="200" height="52" rx="6" fill="#0f1a0f" stroke="#55c555" stroke-width="1"/>
  <text x="386" y="104" font-size="14" fill="#ffffff">venv: Python 3.10</text>

  <rect x="366" y="134" width="200" height="52" rx="6" fill="#0f1a0f" stroke="#55c555" stroke-width="1"/>
  <text x="386" y="166" font-size="14" fill="#ffffff">venv: Python 3.11</text>

  <rect x="366" y="196" width="200" height="52" rx="6" fill="#0f1a0f" stroke="#55c555" stroke-width="1"/>
  <text x="386" y="228" font-size="14" fill="#ffffff">venv: Python 3.12</text>

  <rect x="620" y="134" width="200" height="52" rx="6" fill="#101622" stroke="#7777cc" stroke-width="1"/>
  <text x="720" y="160" font-size="13" fill="#ffffff" text-anchor="middle">각 환경 격리</text>
  <text x="720" y="178" font-size="12" fill="#888" text-anchor="middle">독립 설치·실행</text>
  <line x1="566" y1="160" x2="614" y2="160" stroke="#7ec8e3" stroke-width="2" marker-end="url(#arr8)"/>

  <text x="60" y="288" font-size="13" fill="#888" xml:space="preserve">버전·의존성 조합마다 격리된 가상환경을 만들어 테스트하므로, 호환성 문제를 미리 잡는다.</text>
</svg>
