<svg xmlns="http://www.w3.org/2000/svg" width="880" height="360" viewBox="0 0 880 360" font-family="'Wanted Sans Variable','Wanted Sans',-apple-system,sans-serif">
  <rect x="0" y="0" width="880" height="360" rx="12" fill="#0a0a0a"/>
  <text x="60" y="52" font-size="22" font-weight="700" fill="#e8e8e8">전역 설치 vs 가상환경 격리</text>

  <text x="60" y="100" font-size="16" font-weight="600" fill="#e05555">전역에 전부 설치</text>
  <rect x="60" y="120" width="340" height="190" rx="8" fill="#11151f" stroke="#e05555" stroke-width="1.5"/>
  <text x="230" y="150" font-size="13" fill="#888" text-anchor="middle">system Python</text>
  <rect x="84" y="168" width="292" height="34" rx="6" fill="#000000" stroke="#3a4a6e" stroke-width="1"/>
  <text x="98" y="190" font-size="12" fill="#ffffff" font-family="'JetBrains Mono',monospace">projectA → django 3.2</text>
  <rect x="84" y="212" width="292" height="34" rx="6" fill="#000000" stroke="#3a4a6e" stroke-width="1"/>
  <text x="98" y="234" font-size="12" fill="#ffffff" font-family="'JetBrains Mono',monospace">projectB → django 5.0</text>
  <text x="230" y="288" font-size="13" fill="#e05555" text-anchor="middle">버전 충돌 — 둘 다 만족 불가</text>

  <text x="480" y="100" font-size="16" font-weight="600" fill="#55c555">프로젝트별 venv</text>
  <rect x="480" y="120" width="340" height="190" rx="8" fill="#11151f" stroke="#55c555" stroke-width="1.5"/>
  <rect x="504" y="150" width="135" height="130" rx="6" fill="#000000" stroke="#3a4a6e" stroke-width="1"/>
  <text x="571" y="176" font-size="12" fill="#7ec8e3" text-anchor="middle" font-weight="600">.venv (A)</text>
  <text x="571" y="200" font-size="12" fill="#ffffff" text-anchor="middle" font-family="'JetBrains Mono',monospace">django 3.2</text>
  <rect x="661" y="150" width="135" height="130" rx="6" fill="#000000" stroke="#3a4a6e" stroke-width="1"/>
  <text x="728" y="176" font-size="12" fill="#7ec8e3" text-anchor="middle" font-weight="600">.venv (B)</text>
  <text x="728" y="200" font-size="12" fill="#ffffff" text-anchor="middle" font-family="'JetBrains Mono',monospace">django 5.0</text>
  <text x="650" y="335" font-size="13" fill="#55c555" text-anchor="middle">서로 간섭 없음 — 충돌 해결</text>
</svg>
