<svg xmlns="http://www.w3.org/2000/svg" width="880" height="340" viewBox="0 0 880 340" font-family="'Wanted Sans Variable','Wanted Sans',-apple-system,sans-serif">
  <defs>
    <marker id="arrP" viewBox="0 0 14 14" refX="12" refY="7" markerUnits="userSpaceOnUse" markerWidth="14" markerHeight="14" orient="auto">
      <path d="M 0 0 L 13 7 L 0 14 z" fill="#7ec8e3"/>
    </marker>
  </defs>
  <rect x="0" y="0" width="880" height="340" rx="12" fill="#0a0a0a"/>
  <text x="60" y="52" font-size="22" font-weight="700" fill="#e8e8e8">Poetry 하나로 묶이는 작업</text>

  <rect x="360" y="100" width="160" height="70" rx="8" fill="#11151f" stroke="#7ec8e3" stroke-width="2"/>
  <text x="440" y="132" font-size="16" font-weight="600" fill="#e8e8e8" text-anchor="middle">Poetry</text>
  <text x="440" y="154" font-size="12" fill="#888" text-anchor="middle">통합 도구</text>

  <rect x="60" y="240" width="220" height="64" rx="8" fill="#11151f" stroke="#7777cc" stroke-width="1.5"/>
  <text x="170" y="268" font-size="14" font-weight="600" fill="#e8e8e8" text-anchor="middle">의존성 해결 · lock</text>
  <text x="170" y="289" font-size="12" fill="#888" text-anchor="middle">poetry.lock</text>

  <rect x="330" y="240" width="220" height="64" rx="8" fill="#11151f" stroke="#55c555" stroke-width="1.5"/>
  <text x="440" y="268" font-size="14" font-weight="600" fill="#e8e8e8" text-anchor="middle">가상환경 관리</text>
  <text x="440" y="289" font-size="12" fill="#888" text-anchor="middle">자동 venv</text>

  <rect x="600" y="240" width="220" height="64" rx="8" fill="#11151f" stroke="#e0a555" stroke-width="1.5"/>
  <text x="710" y="268" font-size="14" font-weight="600" fill="#e8e8e8" text-anchor="middle">빌드 · 배포</text>
  <text x="710" y="289" font-size="12" fill="#888" text-anchor="middle">wheel/sdist</text>

  <line x1="410" y1="172" x2="200" y2="238" stroke="#7ec8e3" stroke-width="2" marker-end="url(#arrP)"/>
  <line x1="440" y1="172" x2="440" y2="238" stroke="#7ec8e3" stroke-width="2" marker-end="url(#arrP)"/>
  <line x1="470" y1="172" x2="680" y2="238" stroke="#7ec8e3" stroke-width="2" marker-end="url(#arrP)"/>
</svg>
