<svg width="880" height="500" viewBox="0 0 880 500" xmlns="http://www.w3.org/2000/svg">
<rect width="880" height="500" rx="12" fill="#0a0a0a"/>

<!-- Title -->
<text x="440" y="44" text-anchor="middle" font-family="'Wanted Sans Variable','Wanted Sans',-apple-system,sans-serif" font-size="22" font-weight="700" fill="#ffffff">횡단 관심사 (Cross-Cutting Concern)</text>
<text x="440" y="68" text-anchor="middle" font-family="'Wanted Sans Variable','Wanted Sans',-apple-system,sans-serif" font-size="16" font-weight="600" fill="#e8e8e8">여러 모듈에 동일한 코드가 반복되는 문제 → AOP로 분리</text>

<!-- ── LEFT SIDE: Without AOP (x=60, w=360) ── -->
<text x="240" y="100" text-anchor="middle" font-family="'Wanted Sans Variable','Wanted Sans',-apple-system,sans-serif" font-size="14" font-weight="600" fill="#e05555">AOP 없이 — 코드 중복</text>

<!-- Service A -->
<rect x="60" y="114" width="360" height="90" rx="6" fill="#1a0a0a" stroke="#e05555" stroke-width="1.5"/>
<text x="76" y="132" font-family="'Wanted Sans Variable','Wanted Sans',-apple-system,sans-serif" font-size="13" font-weight="600" fill="#e8e8e8">OrderService</text>
<rect x="76" y="140" width="76" height="20" rx="3" fill="#e05555" opacity="0.25"/>
<text x="79" y="154" font-family="'Wanted Sans Variable','Wanted Sans',-apple-system,sans-serif" font-size="11" fill="#e05555">로깅 코드</text>
<rect x="160" y="140" width="76" height="20" rx="3" fill="#7777cc" opacity="0.3"/>
<text x="163" y="154" font-family="'Wanted Sans Variable','Wanted Sans',-apple-system,sans-serif" font-size="11" fill="#9999ee">보안 코드</text>
<rect x="244" y="140" width="76" height="20" rx="3" fill="#e8b04a" opacity="0.3"/>
<text x="247" y="154" font-family="'Wanted Sans Variable','Wanted Sans',-apple-system,sans-serif" font-size="11" fill="#e8b04a">트랜잭션</text>
<rect x="76" y="168" width="260" height="28" rx="3" fill="#1a2a1a" stroke="#55c555" stroke-width="1"/>
<text x="206" y="186" text-anchor="middle" font-family="'Wanted Sans Variable','Wanted Sans',-apple-system,sans-serif" font-size="12" fill="#55c555">핵심 비즈니스 로직</text>

<!-- Service B -->
<rect x="60" y="218" width="360" height="90" rx="6" fill="#1a0a0a" stroke="#e05555" stroke-width="1.5"/>
<text x="76" y="236" font-family="'Wanted Sans Variable','Wanted Sans',-apple-system,sans-serif" font-size="13" font-weight="600" fill="#e8e8e8">UserService</text>
<rect x="76" y="244" width="76" height="20" rx="3" fill="#e05555" opacity="0.25"/>
<text x="79" y="258" font-family="'Wanted Sans Variable','Wanted Sans',-apple-system,sans-serif" font-size="11" fill="#e05555">로깅 코드</text>
<rect x="160" y="244" width="76" height="20" rx="3" fill="#7777cc" opacity="0.3"/>
<text x="163" y="258" font-family="'Wanted Sans Variable','Wanted Sans',-apple-system,sans-serif" font-size="11" fill="#9999ee">보안 코드</text>
<rect x="244" y="244" width="76" height="20" rx="3" fill="#e8b04a" opacity="0.3"/>
<text x="247" y="258" font-family="'Wanted Sans Variable','Wanted Sans',-apple-system,sans-serif" font-size="11" fill="#e8b04a">트랜잭션</text>
<rect x="76" y="272" width="260" height="28" rx="3" fill="#1a2a1a" stroke="#55c555" stroke-width="1"/>
<text x="206" y="290" text-anchor="middle" font-family="'Wanted Sans Variable','Wanted Sans',-apple-system,sans-serif" font-size="12" fill="#55c555">핵심 비즈니스 로직</text>

<!-- Service C -->
<rect x="60" y="322" width="360" height="90" rx="6" fill="#1a0a0a" stroke="#e05555" stroke-width="1.5"/>
<text x="76" y="340" font-family="'Wanted Sans Variable','Wanted Sans',-apple-system,sans-serif" font-size="13" font-weight="600" fill="#e8e8e8">ProductService</text>
<rect x="76" y="348" width="76" height="20" rx="3" fill="#e05555" opacity="0.25"/>
<text x="79" y="362" font-family="'Wanted Sans Variable','Wanted Sans',-apple-system,sans-serif" font-size="11" fill="#e05555">로깅 코드</text>
<rect x="160" y="348" width="76" height="20" rx="3" fill="#7777cc" opacity="0.3"/>
<text x="163" y="362" font-family="'Wanted Sans Variable','Wanted Sans',-apple-system,sans-serif" font-size="11" fill="#9999ee">보안 코드</text>
<rect x="244" y="348" width="76" height="20" rx="3" fill="#e8b04a" opacity="0.3"/>
<text x="247" y="362" font-family="'Wanted Sans Variable','Wanted Sans',-apple-system,sans-serif" font-size="11" fill="#e8b04a">트랜잭션</text>
<rect x="76" y="376" width="260" height="28" rx="3" fill="#1a2a1a" stroke="#55c555" stroke-width="1"/>
<text x="206" y="394" text-anchor="middle" font-family="'Wanted Sans Variable','Wanted Sans',-apple-system,sans-serif" font-size="12" fill="#55c555">핵심 비즈니스 로직</text>

<!-- ── MIDDLE ARROW ── -->
<polygon points="434,262 448,254 448,270" fill="#7ec8e3"/>
<line x1="434" y1="262" x2="420" y2="262" stroke="#7ec8e3" stroke-width="2"/>
<text x="441" y="248" text-anchor="middle" font-family="'Wanted Sans Variable','Wanted Sans',-apple-system,sans-serif" font-size="11" fill="#7ec8e3">AOP</text>
<text x="441" y="282" text-anchor="middle" font-family="'Wanted Sans Variable','Wanted Sans',-apple-system,sans-serif" font-size="11" fill="#7ec8e3">적용</text>

<!-- ── RIGHT SIDE: With AOP (x=460, w=360) ── -->
<text x="640" y="100" text-anchor="middle" font-family="'Wanted Sans Variable','Wanted Sans',-apple-system,sans-serif" font-size="14" font-weight="600" fill="#55c555">AOP 적용 후 — 관심사 분리</text>

<!-- Service boxes (clean) -->
<rect x="460" y="114" width="200" height="88" rx="6" fill="#0a1a0a" stroke="#55c555" stroke-width="1.5"/>
<text x="560" y="136" text-anchor="middle" font-family="'Wanted Sans Variable','Wanted Sans',-apple-system,sans-serif" font-size="13" font-weight="600" fill="#e8e8e8">OrderService</text>
<rect x="476" y="148" width="168" height="44" rx="3" fill="#1a2a1a" stroke="#55c555" stroke-width="1"/>
<text x="560" y="174" text-anchor="middle" font-family="'Wanted Sans Variable','Wanted Sans',-apple-system,sans-serif" font-size="12" fill="#55c555">비즈니스 로직만</text>

<rect x="460" y="218" width="200" height="88" rx="6" fill="#0a1a0a" stroke="#55c555" stroke-width="1.5"/>
<text x="560" y="240" text-anchor="middle" font-family="'Wanted Sans Variable','Wanted Sans',-apple-system,sans-serif" font-size="13" font-weight="600" fill="#e8e8e8">UserService</text>
<rect x="476" y="252" width="168" height="44" rx="3" fill="#1a2a1a" stroke="#55c555" stroke-width="1"/>
<text x="560" y="278" text-anchor="middle" font-family="'Wanted Sans Variable','Wanted Sans',-apple-system,sans-serif" font-size="12" fill="#55c555">비즈니스 로직만</text>

<rect x="460" y="322" width="200" height="88" rx="6" fill="#0a1a0a" stroke="#55c555" stroke-width="1.5"/>
<text x="560" y="344" text-anchor="middle" font-family="'Wanted Sans Variable','Wanted Sans',-apple-system,sans-serif" font-size="13" font-weight="600" fill="#e8e8e8">ProductService</text>
<rect x="476" y="356" width="168" height="44" rx="3" fill="#1a2a1a" stroke="#55c555" stroke-width="1"/>
<text x="560" y="382" text-anchor="middle" font-family="'Wanted Sans Variable','Wanted Sans',-apple-system,sans-serif" font-size="12" fill="#55c555">비즈니스 로직만</text>

<!-- Aspect boxes on right side -->
<rect x="680" y="114" width="140" height="24" rx="4" fill="#2a0a2a" stroke="#e05555" stroke-width="1"/>
<text x="750" y="130" text-anchor="middle" font-family="'Wanted Sans Variable','Wanted Sans',-apple-system,sans-serif" font-size="12" fill="#e05555">로깅 Aspect</text>
<line x1="680" y1="126" x2="670" y2="158" stroke="#e05555" stroke-width="1" stroke-dasharray="3,2" opacity="0.6"/>
<line x1="680" y1="126" x2="670" y2="262" stroke="#e05555" stroke-width="1" stroke-dasharray="3,2" opacity="0.6"/>
<line x1="680" y1="126" x2="670" y2="366" stroke="#e05555" stroke-width="1" stroke-dasharray="3,2" opacity="0.6"/>

<rect x="680" y="224" width="140" height="24" rx="4" fill="#0d0d2a" stroke="#7777cc" stroke-width="1"/>
<text x="750" y="240" text-anchor="middle" font-family="'Wanted Sans Variable','Wanted Sans',-apple-system,sans-serif" font-size="12" fill="#9999ee">보안 Aspect</text>

<rect x="680" y="334" width="140" height="24" rx="4" fill="#1a1500" stroke="#e8b04a" stroke-width="1"/>
<text x="750" y="350" text-anchor="middle" font-family="'Wanted Sans Variable','Wanted Sans',-apple-system,sans-serif" font-size="12" fill="#e8b04a">트랜잭션 Aspect</text>

<!-- Footer -->
<text x="440" y="478" text-anchor="middle" font-family="'Wanted Sans Variable','Wanted Sans',-apple-system,sans-serif" font-size="11" fill="#444">PALDYN — Spring 완전 정복</text>
</svg>
