<svg xmlns="http://www.w3.org/2000/svg" width="880" height="480" viewBox="0 0 880 480">
  <rect width="880" height="480" fill="#0a0a0a" rx="12"/>

  <!-- Title -->
  <text x="440" y="46" font-family="'Wanted Sans Variable','Wanted Sans',-apple-system,sans-serif" font-size="22" font-weight="700" fill="#e8e8e8" text-anchor="middle">마스킹 유형 비교: Padding vs Causal</text>
  <text x="440" y="70" font-family="'Wanted Sans Variable','Wanted Sans',-apple-system,sans-serif" font-size="14" font-weight="600" fill="#888" text-anchor="middle">어텐션 점수 행렬에서 차단할 위치를 결정하는 두 가지 전략</text>

  <!-- Padding Mask section -->
  <text x="200" y="104" font-family="'Wanted Sans Variable','Wanted Sans',-apple-system,sans-serif" font-size="14" font-weight="700" fill="#7ec8e3" text-anchor="middle">① Padding Mask</text>
  <text x="200" y="122" font-family="'Wanted Sans Variable','Wanted Sans',-apple-system,sans-serif" font-size="12" fill="#888" text-anchor="middle">배치 내 짧은 시퀀스의 &lt;PAD&gt; 차단</text>

  <!-- Padding mask matrix (5x5) -->
  <!-- Header row -->
  <text x="90" y="158" font-family="'JetBrains Mono','Menlo','Consolas',monospace" font-size="11" fill="#9aa4b8" text-anchor="middle">나</text>
  <text x="132" y="158" font-family="'JetBrains Mono','Menlo','Consolas',monospace" font-size="11" fill="#9aa4b8" text-anchor="middle">는</text>
  <text x="174" y="158" font-family="'JetBrains Mono','Menlo','Consolas',monospace" font-size="11" fill="#9aa4b8" text-anchor="middle">AI</text>
  <text x="216" y="158" font-family="'JetBrains Mono','Menlo','Consolas',monospace" font-size="11" fill="#e05555" text-anchor="middle">PAD</text>
  <text x="258" y="158" font-family="'JetBrains Mono','Menlo','Consolas',monospace" font-size="11" fill="#e05555" text-anchor="middle">PAD</text>

  <!-- Row labels -->
  <text x="58" y="186" font-family="'JetBrains Mono','Menlo','Consolas',monospace" font-size="11" fill="#9aa4b8">나</text>
  <text x="58" y="228" font-family="'JetBrains Mono','Menlo','Consolas',monospace" font-size="11" fill="#9aa4b8">는</text>
  <text x="58" y="270" font-family="'JetBrains Mono','Menlo','Consolas',monospace" font-size="11" fill="#9aa4b8">AI</text>
  <text x="50" y="312" font-family="'JetBrains Mono','Menlo','Consolas',monospace" font-size="11" fill="#e05555">PAD</text>
  <text x="50" y="354" font-family="'JetBrains Mono','Menlo','Consolas',monospace" font-size="11" fill="#e05555">PAD</text>

  <!-- Matrix cells (5 x 5) starting x=69, y=167, cell=42px -->
  <!-- Row 1 (나) -->
  <rect x="69" y="167" width="42" height="36" fill="#1a2a1a" rx="2"/><text x="90" y="190" font-family="'JetBrains Mono','Menlo','Consolas',monospace" font-size="11" fill="#55c555" text-anchor="middle">0.6</text>
  <rect x="111" y="167" width="42" height="36" fill="#1a2a1a" rx="2"/><text x="132" y="190" font-family="'JetBrains Mono','Menlo','Consolas',monospace" font-size="11" fill="#55c555" text-anchor="middle">0.3</text>
  <rect x="153" y="167" width="42" height="36" fill="#1a2a1a" rx="2"/><text x="174" y="190" font-family="'JetBrains Mono','Menlo','Consolas',monospace" font-size="11" fill="#55c555" text-anchor="middle">0.1</text>
  <rect x="195" y="167" width="42" height="36" fill="#2a0a0a" rx="2"/><text x="216" y="190" font-family="'JetBrains Mono','Menlo','Consolas',monospace" font-size="11" fill="#e05555" text-anchor="middle">-∞</text>
  <rect x="237" y="167" width="42" height="36" fill="#2a0a0a" rx="2"/><text x="258" y="190" font-family="'JetBrains Mono','Menlo','Consolas',monospace" font-size="11" fill="#e05555" text-anchor="middle">-∞</text>
  <!-- Row 2 (는) -->
  <rect x="69" y="209" width="42" height="36" fill="#1a2a1a" rx="2"/><text x="90" y="232" font-family="'JetBrains Mono','Menlo','Consolas',monospace" font-size="11" fill="#55c555" text-anchor="middle">0.2</text>
  <rect x="111" y="209" width="42" height="36" fill="#1a2a1a" rx="2"/><text x="132" y="232" font-family="'JetBrains Mono','Menlo','Consolas',monospace" font-size="11" fill="#55c555" text-anchor="middle">0.7</text>
  <rect x="153" y="209" width="42" height="36" fill="#1a2a1a" rx="2"/><text x="174" y="232" font-family="'JetBrains Mono','Menlo','Consolas',monospace" font-size="11" fill="#55c555" text-anchor="middle">0.1</text>
  <rect x="195" y="209" width="42" height="36" fill="#2a0a0a" rx="2"/><text x="216" y="232" font-family="'JetBrains Mono','Menlo','Consolas',monospace" font-size="11" fill="#e05555" text-anchor="middle">-∞</text>
  <rect x="237" y="209" width="42" height="36" fill="#2a0a0a" rx="2"/><text x="258" y="232" font-family="'JetBrains Mono','Menlo','Consolas',monospace" font-size="11" fill="#e05555" text-anchor="middle">-∞</text>
  <!-- Row 3 (AI) -->
  <rect x="69" y="251" width="42" height="36" fill="#1a2a1a" rx="2"/><text x="90" y="274" font-family="'JetBrains Mono','Menlo','Consolas',monospace" font-size="11" fill="#55c555" text-anchor="middle">0.3</text>
  <rect x="111" y="251" width="42" height="36" fill="#1a2a1a" rx="2"/><text x="132" y="274" font-family="'JetBrains Mono','Menlo','Consolas',monospace" font-size="11" fill="#55c555" text-anchor="middle">0.2</text>
  <rect x="153" y="251" width="42" height="36" fill="#1a2a1a" rx="2"/><text x="174" y="274" font-family="'JetBrains Mono','Menlo','Consolas',monospace" font-size="11" fill="#55c555" text-anchor="middle">0.5</text>
  <rect x="195" y="251" width="42" height="36" fill="#2a0a0a" rx="2"/><text x="216" y="274" font-family="'JetBrains Mono','Menlo','Consolas',monospace" font-size="11" fill="#e05555" text-anchor="middle">-∞</text>
  <rect x="237" y="251" width="42" height="36" fill="#2a0a0a" rx="2"/><text x="258" y="274" font-family="'JetBrains Mono','Menlo','Consolas',monospace" font-size="11" fill="#e05555" text-anchor="middle">-∞</text>
  <!-- Row 4 (PAD) -->
  <rect x="69" y="293" width="42" height="36" fill="#1a1a1a" rx="2"/><text x="90" y="316" font-family="'JetBrains Mono','Menlo','Consolas',monospace" font-size="11" fill="#555" text-anchor="middle">-∞</text>
  <rect x="111" y="293" width="42" height="36" fill="#1a1a1a" rx="2"/><text x="132" y="316" font-family="'JetBrains Mono','Menlo','Consolas',monospace" font-size="11" fill="#555" text-anchor="middle">-∞</text>
  <rect x="153" y="293" width="42" height="36" fill="#1a1a1a" rx="2"/><text x="174" y="316" font-family="'JetBrains Mono','Menlo','Consolas',monospace" font-size="11" fill="#555" text-anchor="middle">-∞</text>
  <rect x="195" y="293" width="42" height="36" fill="#1a1a1a" rx="2"/><text x="216" y="316" font-family="'JetBrains Mono','Menlo','Consolas',monospace" font-size="11" fill="#555" text-anchor="middle">-∞</text>
  <rect x="237" y="293" width="42" height="36" fill="#1a1a1a" rx="2"/><text x="258" y="316" font-family="'JetBrains Mono','Menlo','Consolas',monospace" font-size="11" fill="#555" text-anchor="middle">-∞</text>
  <!-- Row 5 (PAD) -->
  <rect x="69" y="335" width="42" height="36" fill="#1a1a1a" rx="2"/><text x="90" y="358" font-family="'JetBrains Mono','Menlo','Consolas',monospace" font-size="11" fill="#555" text-anchor="middle">-∞</text>
  <rect x="111" y="335" width="42" height="36" fill="#1a1a1a" rx="2"/><text x="132" y="358" font-family="'JetBrains Mono','Menlo','Consolas',monospace" font-size="11" fill="#555" text-anchor="middle">-∞</text>
  <rect x="153" y="335" width="42" height="36" fill="#1a1a1a" rx="2"/><text x="174" y="358" font-family="'JetBrains Mono','Menlo','Consolas',monospace" font-size="11" fill="#555" text-anchor="middle">-∞</text>
  <rect x="195" y="335" width="42" height="36" fill="#1a1a1a" rx="2"/><text x="216" y="358" font-family="'JetBrains Mono','Menlo','Consolas',monospace" font-size="11" fill="#555" text-anchor="middle">-∞</text>
  <rect x="237" y="335" width="42" height="36" fill="#1a1a1a" rx="2"/><text x="258" y="358" font-family="'JetBrains Mono','Menlo','Consolas',monospace" font-size="11" fill="#555" text-anchor="middle">-∞</text>

  <text x="200" y="398" font-family="'Wanted Sans Variable','Wanted Sans',-apple-system,sans-serif" font-size="11" fill="#888" text-anchor="middle">PAD 열·행 → -∞ → Softmax ≈ 0</text>

  <!-- Divider -->
  <line x1="410" y1="100" x2="410" y2="440" stroke="#3a4a6e" stroke-width="1"/>

  <!-- Causal Mask section -->
  <text x="645" y="104" font-family="'Wanted Sans Variable','Wanted Sans',-apple-system,sans-serif" font-size="14" font-weight="700" fill="#ce9178" text-anchor="middle">② Causal Mask (Look-Ahead Mask)</text>
  <text x="645" y="122" font-family="'Wanted Sans Variable','Wanted Sans',-apple-system,sans-serif" font-size="12" fill="#888" text-anchor="middle">디코더 자기 회귀 — 미래 토큰 차단</text>

  <!-- Causal mask matrix (5x5) -->
  <text x="460" y="158" font-family="'JetBrains Mono','Menlo','Consolas',monospace" font-size="11" fill="#9aa4b8" text-anchor="middle">t0</text>
  <text x="510" y="158" font-family="'JetBrains Mono','Menlo','Consolas',monospace" font-size="11" fill="#9aa4b8" text-anchor="middle">t1</text>
  <text x="560" y="158" font-family="'JetBrains Mono','Menlo','Consolas',monospace" font-size="11" fill="#9aa4b8" text-anchor="middle">t2</text>
  <text x="610" y="158" font-family="'JetBrains Mono','Menlo','Consolas',monospace" font-size="11" fill="#9aa4b8" text-anchor="middle">t3</text>
  <text x="660" y="158" font-family="'JetBrains Mono','Menlo','Consolas',monospace" font-size="11" fill="#9aa4b8" text-anchor="middle">t4</text>

  <text x="430" y="186" font-family="'JetBrains Mono','Menlo','Consolas',monospace" font-size="11" fill="#9aa4b8">t0</text>
  <text x="430" y="228" font-family="'JetBrains Mono','Menlo','Consolas',monospace" font-size="11" fill="#9aa4b8">t1</text>
  <text x="430" y="270" font-family="'JetBrains Mono','Menlo','Consolas',monospace" font-size="11" fill="#9aa4b8">t2</text>
  <text x="430" y="312" font-family="'JetBrains Mono','Menlo','Consolas',monospace" font-size="11" fill="#9aa4b8">t3</text>
  <text x="430" y="354" font-family="'JetBrains Mono','Menlo','Consolas',monospace" font-size="11" fill="#9aa4b8">t4</text>

  <!-- Causal mask: lower triangular visible, upper triangular -inf -->
  <!-- Row 0 -->
  <rect x="439" y="167" width="50" height="36" fill="#1a2a1a" rx="2"/><text x="460" y="190" font-family="'JetBrains Mono','Menlo','Consolas',monospace" font-size="11" fill="#55c555" text-anchor="middle">1.0</text>
  <rect x="489" y="167" width="50" height="36" fill="#2a0a0a" rx="2"/><text x="510" y="190" font-family="'JetBrains Mono','Menlo','Consolas',monospace" font-size="11" fill="#e05555" text-anchor="middle">-∞</text>
  <rect x="539" y="167" width="50" height="36" fill="#2a0a0a" rx="2"/><text x="560" y="190" font-family="'JetBrains Mono','Menlo','Consolas',monospace" font-size="11" fill="#e05555" text-anchor="middle">-∞</text>
  <rect x="589" y="167" width="50" height="36" fill="#2a0a0a" rx="2"/><text x="610" y="190" font-family="'JetBrains Mono','Menlo','Consolas',monospace" font-size="11" fill="#e05555" text-anchor="middle">-∞</text>
  <rect x="639" y="167" width="50" height="36" fill="#2a0a0a" rx="2"/><text x="660" y="190" font-family="'JetBrains Mono','Menlo','Consolas',monospace" font-size="11" fill="#e05555" text-anchor="middle">-∞</text>
  <!-- Row 1 -->
  <rect x="439" y="209" width="50" height="36" fill="#1a2a1a" rx="2"/><text x="460" y="232" font-family="'JetBrains Mono','Menlo','Consolas',monospace" font-size="11" fill="#55c555" text-anchor="middle">0.4</text>
  <rect x="489" y="209" width="50" height="36" fill="#1a2a1a" rx="2"/><text x="510" y="232" font-family="'JetBrains Mono','Menlo','Consolas',monospace" font-size="11" fill="#55c555" text-anchor="middle">0.6</text>
  <rect x="539" y="209" width="50" height="36" fill="#2a0a0a" rx="2"/><text x="560" y="232" font-family="'JetBrains Mono','Menlo','Consolas',monospace" font-size="11" fill="#e05555" text-anchor="middle">-∞</text>
  <rect x="589" y="209" width="50" height="36" fill="#2a0a0a" rx="2"/><text x="610" y="232" font-family="'JetBrains Mono','Menlo','Consolas',monospace" font-size="11" fill="#e05555" text-anchor="middle">-∞</text>
  <rect x="639" y="209" width="50" height="36" fill="#2a0a0a" rx="2"/><text x="660" y="232" font-family="'JetBrains Mono','Menlo','Consolas',monospace" font-size="11" fill="#e05555" text-anchor="middle">-∞</text>
  <!-- Row 2 -->
  <rect x="439" y="251" width="50" height="36" fill="#1a2a1a" rx="2"/><text x="460" y="274" font-family="'JetBrains Mono','Menlo','Consolas',monospace" font-size="11" fill="#55c555" text-anchor="middle">0.2</text>
  <rect x="489" y="251" width="50" height="36" fill="#1a2a1a" rx="2"/><text x="510" y="274" font-family="'JetBrains Mono','Menlo','Consolas',monospace" font-size="11" fill="#55c555" text-anchor="middle">0.3</text>
  <rect x="539" y="251" width="50" height="36" fill="#1a2a1a" rx="2"/><text x="560" y="274" font-family="'JetBrains Mono','Menlo','Consolas',monospace" font-size="11" fill="#55c555" text-anchor="middle">0.5</text>
  <rect x="589" y="251" width="50" height="36" fill="#2a0a0a" rx="2"/><text x="610" y="274" font-family="'JetBrains Mono','Menlo','Consolas',monospace" font-size="11" fill="#e05555" text-anchor="middle">-∞</text>
  <rect x="639" y="251" width="50" height="36" fill="#2a0a0a" rx="2"/><text x="660" y="274" font-family="'JetBrains Mono','Menlo','Consolas',monospace" font-size="11" fill="#e05555" text-anchor="middle">-∞</text>
  <!-- Row 3 -->
  <rect x="439" y="293" width="50" height="36" fill="#1a2a1a" rx="2"/><text x="460" y="316" font-family="'JetBrains Mono','Menlo','Consolas',monospace" font-size="11" fill="#55c555" text-anchor="middle">0.1</text>
  <rect x="489" y="293" width="50" height="36" fill="#1a2a1a" rx="2"/><text x="510" y="316" font-family="'JetBrains Mono','Menlo','Consolas',monospace" font-size="11" fill="#55c555" text-anchor="middle">0.2</text>
  <rect x="539" y="293" width="50" height="36" fill="#1a2a1a" rx="2"/><text x="560" y="316" font-family="'JetBrains Mono','Menlo','Consolas',monospace" font-size="11" fill="#55c555" text-anchor="middle">0.3</text>
  <rect x="589" y="293" width="50" height="36" fill="#1a2a1a" rx="2"/><text x="610" y="316" font-family="'JetBrains Mono','Menlo','Consolas',monospace" font-size="11" fill="#55c555" text-anchor="middle">0.4</text>
  <rect x="639" y="293" width="50" height="36" fill="#2a0a0a" rx="2"/><text x="660" y="316" font-family="'JetBrains Mono','Menlo','Consolas',monospace" font-size="11" fill="#e05555" text-anchor="middle">-∞</text>
  <!-- Row 4 -->
  <rect x="439" y="335" width="50" height="36" fill="#1a2a1a" rx="2"/><text x="460" y="358" font-family="'JetBrains Mono','Menlo','Consolas',monospace" font-size="11" fill="#55c555" text-anchor="middle">0.1</text>
  <rect x="489" y="335" width="50" height="36" fill="#1a2a1a" rx="2"/><text x="510" y="358" font-family="'JetBrains Mono','Menlo','Consolas',monospace" font-size="11" fill="#55c555" text-anchor="middle">0.2</text>
  <rect x="539" y="335" width="50" height="36" fill="#1a2a1a" rx="2"/><text x="560" y="358" font-family="'JetBrains Mono','Menlo','Consolas',monospace" font-size="11" fill="#55c555" text-anchor="middle">0.2</text>
  <rect x="589" y="335" width="50" height="36" fill="#1a2a1a" rx="2"/><text x="610" y="358" font-family="'JetBrains Mono','Menlo','Consolas',monospace" font-size="11" fill="#55c555" text-anchor="middle">0.3</text>
  <rect x="639" y="335" width="50" height="36" fill="#1a2a1a" rx="2"/><text x="660" y="358" font-family="'JetBrains Mono','Menlo','Consolas',monospace" font-size="11" fill="#55c555" text-anchor="middle">0.2</text>

  <text x="645" y="398" font-family="'Wanted Sans Variable','Wanted Sans',-apple-system,sans-serif" font-size="11" fill="#888" text-anchor="middle">하삼각 = 가시, 상삼각 = -∞ (미래 차단)</text>

  <!-- Bottom note -->
  <rect x="50" y="416" width="780" height="44" fill="#111827" rx="6" stroke="#3a4a6e" stroke-width="1"/>
  <text x="440" y="436" font-family="'Wanted Sans Variable','Wanted Sans',-apple-system,sans-serif" font-size="12" font-weight="600" fill="#e8e8e8" text-anchor="middle">Softmax(-∞) = 0  →  마스킹된 위치의 어텐션 가중치 = 0  →  출력에 영향 없음</text>
  <text x="440" y="452" font-family="'Wanted Sans Variable','Wanted Sans',-apple-system,sans-serif" font-size="12" fill="#888" text-anchor="middle">두 마스크는 AND 연산으로 결합 가능: Padding + Causal 동시 적용</text>
</svg>
