<svg xmlns="http://www.w3.org/2000/svg" width="880" height="270" viewBox="0 0 880 270" font-family="'Wanted Sans Variable','Wanted Sans',-apple-system,sans-serif">
  <defs>
    <marker id="jr_arr" viewBox="0 0 14 14" refX="12" refY="7" markerUnits="userSpaceOnUse" markerWidth="14" markerHeight="14" orient="auto">
      <path d="M 0 0 L 13 7 L 0 14 z" fill="#7ec8e3"/>
    </marker>
  </defs>
  <rect x="0" y="0" width="880" height="270" rx="12" fill="#0a0a0a"/>
  <text x="60" y="50" font-size="22" font-weight="700" fill="#e8e8e8">152편으로 걸어온 길</text>
  <text x="60" y="76" font-size="14" fill="#7ec8e3">기초부터 실전까지 — 시리즈를 한눈에</text>

  <line x1="230" y1="150" x2="254" y2="150" stroke="#7ec8e3" stroke-width="2" marker-end="url(#jr_arr)"/>
  <line x1="426" y1="150" x2="450" y2="150" stroke="#7ec8e3" stroke-width="2" marker-end="url(#jr_arr)"/>
  <line x1="622" y1="150" x2="646" y2="150" stroke="#7ec8e3" stroke-width="2" marker-end="url(#jr_arr)"/>

  <rect x="60" y="110" width="170" height="80" rx="8" fill="#15171c" stroke="#7777cc" stroke-width="1.5"/>
  <text x="145" y="146" font-size="14" font-weight="600" fill="#e8e8e8" text-anchor="middle">기초·환경</text>
  <text x="145" y="166" font-size="12" fill="#9aa4b8" text-anchor="middle">설정·기본 타입</text>

  <rect x="256" y="110" width="170" height="80" rx="8" fill="#15171c" stroke="#3a4a6e" stroke-width="1.5"/>
  <text x="341" y="146" font-size="14" font-weight="600" fill="#e8e8e8" text-anchor="middle">타입 시스템</text>
  <text x="341" y="166" font-size="12" fill="#9aa4b8" text-anchor="middle">좁히기·클래스</text>

  <rect x="452" y="110" width="170" height="80" rx="8" fill="#15171c" stroke="#3a4a6e" stroke-width="1.5"/>
  <text x="537" y="146" font-size="14" font-weight="600" fill="#e8e8e8" text-anchor="middle">고급 타입</text>
  <text x="537" y="166" font-size="12" fill="#9aa4b8" text-anchor="middle">제네릭·매핑·조건부</text>

  <rect x="648" y="110" width="170" height="80" rx="8" fill="#15171c" stroke="#55c555" stroke-width="1.5"/>
  <text x="733" y="146" font-size="14" font-weight="600" fill="#e8e8e8" text-anchor="middle">실전 적용</text>
  <text x="733" y="166" font-size="12" fill="#9aa4b8" text-anchor="middle">React·빌드·마이그레이션</text>
</svg>
