<svg xmlns="http://www.w3.org/2000/svg" width="880" height="360" viewBox="0 0 880 360" font-family="'Wanted Sans Variable','Wanted Sans',-apple-system,sans-serif">
  <defs>
    <marker id="pr_arr" viewBox="0 0 14 14" refX="12" refY="7" markerUnits="userSpaceOnUse" markerWidth="14" markerHeight="14" orient="auto">
      <path d="M 0 0 L 13 7 L 0 14 z" fill="#7ec8e3"/>
    </marker>
  </defs>
  <rect x="0" y="0" width="880" height="360" rx="12" fill="#0a0a0a"/>
  <text x="60" y="48" font-size="22" font-weight="700" fill="#e8e8e8">프로젝트 레퍼런스로 의존성을 쪼갠다</text>

  <line x1="220" y1="175" x2="378" y2="130" stroke="#7ec8e3" stroke-width="2" marker-end="url(#pr_arr)"/>
  <line x1="220" y1="185" x2="378" y2="266" stroke="#7ec8e3" stroke-width="2" marker-end="url(#pr_arr)"/>
  <line x1="532" y1="130" x2="678" y2="175" stroke="#7ec8e3" stroke-width="2" marker-end="url(#pr_arr)"/>
  <line x1="532" y1="266" x2="678" y2="185" stroke="#7ec8e3" stroke-width="2" marker-end="url(#pr_arr)"/>

  <rect x="70" y="150" width="150" height="60" rx="8" fill="#15171c" stroke="#7777cc" stroke-width="1.5"/>
  <text x="145" y="178" font-size="14" font-weight="600" fill="#e8e8e8" text-anchor="middle">shared</text>
  <text x="145" y="198" font-size="12" fill="#9aa4b8" text-anchor="middle">공유 타입·유틸</text>

  <rect x="380" y="96" width="150" height="60" rx="8" fill="#15171c" stroke="#3a4a6e" stroke-width="1.5"/>
  <text x="455" y="124" font-size="14" font-weight="600" fill="#e8e8e8" text-anchor="middle">ui</text>
  <text x="455" y="144" font-size="12" fill="#9aa4b8" text-anchor="middle">컴포넌트</text>

  <rect x="380" y="240" width="150" height="60" rx="8" fill="#15171c" stroke="#3a4a6e" stroke-width="1.5"/>
  <text x="455" y="268" font-size="14" font-weight="600" fill="#e8e8e8" text-anchor="middle">api</text>
  <text x="455" y="288" font-size="12" fill="#9aa4b8" text-anchor="middle">서버 로직</text>

  <rect x="680" y="150" width="150" height="60" rx="8" fill="#15171c" stroke="#55c555" stroke-width="1.5"/>
  <text x="755" y="178" font-size="14" font-weight="600" fill="#e8e8e8" text-anchor="middle">app</text>
  <text x="755" y="198" font-size="12" fill="#9aa4b8" text-anchor="middle">최종 번들</text>

  <text x="440" y="338" font-size="13" fill="#7ec8e3" text-anchor="middle">빌드 순서: shared → (ui · api) → app · 바뀐 패키지만 재빌드</text>
</svg>
