<svg xmlns="http://www.w3.org/2000/svg" width="880" height="422" viewBox="0 0 880 422" font-family="'Wanted Sans Variable','Wanted Sans',-apple-system,sans-serif">
  <rect x="0" y="0" width="880" height="422" rx="12" fill="#0a0a0a"/>
  <text x="60" y="50" font-size="22" font-weight="700" fill="#e8e8e8">타입 체크가 느려지는 4가지 원인</text>

  <rect x="60" y="88" width="760" height="60" rx="8" fill="#15171c" stroke="#3a4a6e" stroke-width="1"/>
  <rect x="60" y="88" width="5" height="60" rx="2" fill="#e05555"/>
  <text x="84" y="112" font-size="14" font-weight="600" fill="#e8e8e8">거대한 유니온·교차 타입</text>
  <text x="84" y="132" font-size="13" fill="#9aa4b8">멤버 수에 비례해 할당 가능성 비교 비용이 늘어난다</text>

  <rect x="60" y="166" width="760" height="60" rx="8" fill="#15171c" stroke="#3a4a6e" stroke-width="1"/>
  <rect x="60" y="166" width="5" height="60" rx="2" fill="#e05555"/>
  <text x="84" y="190" font-size="14" font-weight="600" fill="#e8e8e8">깊은 조건부·재귀 타입</text>
  <text x="84" y="210" font-size="13" fill="#9aa4b8">타입 인스턴스화가 폭발적으로 늘어 재귀 한계에 부딪힌다</text>

  <rect x="60" y="244" width="760" height="60" rx="8" fill="#15171c" stroke="#3a4a6e" stroke-width="1"/>
  <rect x="60" y="244" width="5" height="60" rx="2" fill="#e0a155"/>
  <text x="84" y="268" font-size="14" font-weight="600" fill="#e8e8e8">과도한 타입 추론</text>
  <text x="84" y="288" font-size="13" fill="#9aa4b8">복잡한 반환 타입을 명시하지 않아 매번 새로 추론한다</text>

  <rect x="60" y="322" width="760" height="60" rx="8" fill="#15171c" stroke="#3a4a6e" stroke-width="1"/>
  <rect x="60" y="322" width="5" height="60" rx="2" fill="#e0a155"/>
  <text x="84" y="346" font-size="14" font-weight="600" fill="#e8e8e8">큰 의존성·미사용 .d.ts</text>
  <text x="84" y="366" font-size="13" fill="#9aa4b8">skipLibCheck 없이 node_modules 타입까지 전부 재검사한다</text>
</svg>
