<svg viewBox="0 0 1672 941" xmlns="http://www.w3.org/2000/svg" role="img" aria-label="Docker">
  <defs>
    <linearGradient id="dbg" x1="0%" y1="0%" x2="100%" y2="100%">
      <stop offset="0%" stop-color="#0c2438"/>
      <stop offset="100%" stop-color="#06121d"/>
    </linearGradient>
  </defs>
  <rect width="1672" height="941" fill="url(#dbg)"/>
  <g transform="translate(495,470)">
    <!-- tail fluke -->
    <path d="M -180 18 C -232 -8 -240 2 -256 -24 C -240 34 -240 52 -256 84 C -228 60 -214 72 -180 60 Z" fill="#2496ed"/>
    <!-- body -->
    <path d="M -180 14 L 150 14 Q 208 14 208 62 Q 208 104 150 104 L -112 104 Q -180 104 -180 54 Z" fill="#2496ed"/>
    <!-- containers -->
    <g fill="#2496ed">
      <rect x="-152" y="-42" width="56" height="56" rx="7"/>
      <rect x="-88" y="-42" width="56" height="56" rx="7"/>
      <rect x="-24" y="-42" width="56" height="56" rx="7"/>
      <rect x="40" y="-42" width="56" height="56" rx="7"/>
      <rect x="104" y="-42" width="56" height="56" rx="7"/>
      <rect x="-56" y="-106" width="56" height="56" rx="7"/>
      <rect x="8" y="-106" width="56" height="56" rx="7"/>
      <rect x="72" y="-106" width="56" height="56" rx="7"/>
    </g>
    <!-- spout -->
    <path d="M 198 -34 q -20 -38 6 -68" fill="none" stroke="#2496ed" stroke-width="12" stroke-linecap="round"/>
    <!-- eye -->
    <circle cx="165" cy="50" r="11" fill="#06121d"/>
  </g>
  <text x="745" y="548" font-family="'Helvetica Neue', Helvetica, Arial, sans-serif" font-size="210" font-weight="600" fill="#ffffff">Docker</text>
</svg>
