<svg xmlns="http://www.w3.org/2000/svg" viewBox="0 0 128 128" width="128" height="128">
  <rect width="128" height="128" rx="8" fill="#F7DF1E"/>
  <path d="M64.7 88.8c0 13.1-7.7 19.1-18.9 19.1-10.1 0-16-5.2-19-11.5l10.4-6.3c2 3.5 3.8 6.5 8.2 6.5 4.2 0 6.8-1.6 6.8-8V44.4h12.5v44.4zm44 1.4c0 11.6-9.6 18.5-23.6 18.5-13.5 0-22.2-6.4-26.5-14.9l10.4-6c3.1 5.1 7.2 8.9 14.5 8.9 6.1 0 10-3 10-7.2 0-5-4-6.8-10.7-9.7l-3.7-1.6c-10.6-4.5-17.6-10.2-17.6-22.1 0-11 8.4-19.4 21.4-19.4 9.3 0 16 3.2 20.8 11.7l-11.4 7.3c-2.5-4.5-5.2-6.3-9.4-6.3-4.3 0-7 2.7-7 6.3 0 4.4 2.7 6.2 9 8.9l3.7 1.6c12.5 5.4 19.5 10.9 19.5 23z" fill="#000"/>
</svg>
