<svg viewBox="0 0 1672 941" xmlns="http://www.w3.org/2000/svg" role="img" aria-label="Kubernetes">
  <defs>
    <linearGradient id="kbg" x1="0%" y1="0%" x2="100%" y2="100%">
      <stop offset="0%" stop-color="#10223f"/>
      <stop offset="100%" stop-color="#070f1e"/>
    </linearGradient>
  </defs>
  <rect width="1672" height="941" fill="url(#kbg)"/>
  <g transform="translate(440,470)">
    <g stroke="#5b91f5" stroke-width="15" fill="none" stroke-linejoin="round">
      <polygon points="0,-150 117.3,-93.5 146.2,33.4 65.1,135.2 -65.1,135.2 -146.2,33.4 -117.3,-93.5"/>
      <line x1="0" y1="0" x2="0" y2="-150"/>
      <line x1="0" y1="0" x2="117.3" y2="-93.5"/>
      <line x1="0" y1="0" x2="146.2" y2="33.4"/>
      <line x1="0" y1="0" x2="65.1" y2="135.2"/>
      <line x1="0" y1="0" x2="-65.1" y2="135.2"/>
      <line x1="0" y1="0" x2="-146.2" y2="33.4"/>
      <line x1="0" y1="0" x2="-117.3" y2="-93.5"/>
    </g>
    <g fill="#5b91f5">
      <circle cx="0" cy="0" r="34"/>
      <circle cx="0" cy="-150" r="14"/>
      <circle cx="117.3" cy="-93.5" r="14"/>
      <circle cx="146.2" cy="33.4" r="14"/>
      <circle cx="65.1" cy="135.2" r="14"/>
      <circle cx="-65.1" cy="135.2" r="14"/>
      <circle cx="-146.2" cy="33.4" r="14"/>
      <circle cx="-117.3" cy="-93.5" r="14"/>
    </g>
  </g>
  <text x="660" y="546" font-family="'Helvetica Neue', Helvetica, Arial, sans-serif" font-size="180" font-weight="600" fill="#ffffff">kubernetes</text>
</svg>
