<svg viewBox="0 0 1672 941" xmlns="http://www.w3.org/2000/svg" role="img" aria-label="Linux">
  <defs>
    <linearGradient id="lbg" x1="0%" y1="0%" x2="100%" y2="100%">
      <stop offset="0%" stop-color="#2b2b33"/>
      <stop offset="100%" stop-color="#101015"/>
    </linearGradient>
  </defs>
  <rect width="1672" height="941" fill="url(#lbg)"/>
  <g transform="translate(560,470)">
    <!-- feet -->
    <ellipse cx="-66" cy="196" rx="74" ry="34" fill="#f5a623" transform="rotate(-16 -66 196)"/>
    <ellipse cx="66" cy="196" rx="74" ry="34" fill="#f5a623" transform="rotate(16 66 196)"/>
    <!-- body -->
    <path d="M 0 -210 C -118 -210 -168 -96 -168 34 C -168 150 -94 214 0 214 C 94 214 168 150 168 34 C 168 -96 118 -210 0 -210 Z" fill="#ffffff"/>
    <!-- eyes -->
    <ellipse cx="-44" cy="-96" rx="22" ry="30" fill="#1b1b1f"/>
    <ellipse cx="44" cy="-96" rx="22" ry="30" fill="#1b1b1f"/>
    <!-- beak -->
    <path d="M 0 -58 L 42 -30 L 0 2 L -42 -30 Z" fill="#f5a623"/>
  </g>
  <text x="785" y="548" font-family="'Helvetica Neue', Helvetica, Arial, sans-serif" font-size="210" font-weight="600" fill="#ffffff">Linux</text>
</svg>
